{
.appVersion = "1268";
DisplayStrings = (
"/Omacrongrave",
"N/Ngrave"
);
classes = (
{
automatic = 1;

glyphs = (
{
color = 6;
glyphname = A;
lastChange = "2019-10-12 23:10:52 +0000";
layers = (
{
anchors = (
{
name = abovecomb;
position = "{656, 866}";
},
{
name = bottom;
position = "{418, -93}";
},
{
name = dotbelowcomb;
position = "{428, 8}";
},
{
name = gram;
position = "{905, 364}";
},
{
name = ogonek;
position = "{679, 0}";
},
{
name = top;
position = "{684, 934}";
},
{
name = topleft;
position = "{449, 850}";
}
);
guideLines = (
{
angle = 90.9113;
position = "{687, 56}";
}
);
hints = (
{
horizontal = 1;
origin = "{0, 2}";
target = up;
type = BottomGhost;
},
{
horizontal = 1;
place = "{-4, -2}";
type = Stem;
},
{
horizontal = 1;
origin = "{0, 3}";
target = down;
type = TopGhost;
},
{
horizontal = 1;
origin = "{0, 6}";
target = up;
type = BottomGhost;
},
{
horizontal = 1;
place = "{637, 1917}";
type = Stem;
},
{
origin = "{0, 2}";
target = "{0, 7}";
type = Stem;
}
);
layerId = "BA196CD0-EE58-4274-B8DF-4393D3617A29";
paths = (
{
closed = 1;
nodes = (
"703 846 LINE",
"600 848 LINE",
"60 0 LINE",
"207 0 LINE",
"285 154 LINE",
"628 131 LINE",
"628 0 LINE",
"794 0 LINE"
);
},
{
closed = 1;
nodes = (
"352 268 LINE",
"647 775 LINE",
"647 268 LINE"
);
}
);
width = 1004;
},
{
anchors = (
{
name = abovecomb;
position = "{727, 897}";
},
{
name = bottom;
position = "{493, 3}";
},
{
name = dotbelow;
position = "{506, 10}";
},
{
name = dotbelowcomb;
position = "{503, 11}";
},
{
name = gram;
position = "{1007, 369}";
},
{
name = greekcap;
position = "{439, 679}";
},
{
name = ogonek;
position = "{752, 3}";
},
{
name = polyomicron;
position = "{449, 681}";
},
{
name = top;
position = "{750, 947}";
}
);
layerId = "BBDB329E-CE83-4304-A6B1-53EA5ACC004E";
paths = (
{
closed = 1;
nodes = (
"281 0 LINE",
"358 106 LINE",
"683 106 LINE",
"680 0 LINE",
"908 0 LINE",
"793 850 LINE",
"647 850 LINE",
"62 0 LINE"
);
},
{
closed = 1;
nodes = (
"461 297 LINE",
"665 649 LINE",
"682 297 LINE"
);
}
);
width = 1120;
}
);
unicode = 0041;
},
{
glyphname = "Alpha-latin";
lastChange = "2019-09-05 22:37:16 +0000";
layers = (
{
anchors = (
{
name = bottom;
position = "{407, 0}";
},
{
name = ogonek;
position = "{577, 29}";
},
{
name = top;
position = "{551, 577}";
}
);
hints = (
{
horizontal = 1;
origin = "{0, 14}";
target = "{1, 14}";
type = Stem;
},
{
horizontal = 1;
origin = "{1, 5}";
target = "{0, 2}";
type = Stem;
},
{
horizontal = 1;
origin = "{0, 18}";
target = "{1, 14}";
type = Stem;
},
{
place = "{127.25, 104.4}";
type = Stem;
},
{
place = "{678.76, 51.24}";
type = Stem;
}
);
layerId = "BA196CD0-EE58-4274-B8DF-4393D3617A29";
paths = (
{
closed = 1;
nodes = (
"629 655 OFFCURVE",
"594 677 OFFCURVE",
"541 677 CURVE SMOOTH",
"530 677 OFFCURVE",
"519 676 OFFCURVE",
"506 674 CURVE SMOOTH",
"405 658 OFFCURVE",
"248 547 OFFCURVE",
"155 387 CURVE SMOOTH",
"115 318 OFFCURVE",
"91 261 OFFCURVE",
"78 214 CURVE SMOOTH",
"22 13 OFFCURVE",
"183 -14 OFFCURVE",
"311 -14 CURVE SMOOTH",
"392 -14 OFFCURVE",
"473 17 OFFCURVE",
"529 82 CURVE",
"507 0 LINE",
"616 0 LINE",
"636 75 OFFCURVE",
"612 60 OFFCURVE",
"684 329 CURVE SMOOTH",
"758 605 OFFCURVE",
"790 600 OFFCURVE",
"809 673 CURVE",
"713 673 LINE",
"670 602 LINE"
);
},
{
closed = 1;
nodes = (
"279 485 OFFCURVE",
"424 598 OFFCURVE",
"488 610 CURVE SMOOTH",
"499 612 OFFCURVE",
"510 613 OFFCURVE",
"523 613 CURVE SMOOTH",
"583 613 OFFCURVE",
"648 582 OFFCURVE",
"602 396 CURVE SMOOTH",
"595 368 OFFCURVE",
"583 335 OFFCURVE",
"570 299 CURVE SMOOTH",
"524 172 OFFCURVE",
"522 138 OFFCURVE",
"340 138 CURVE SMOOTH",
"214 138 OFFCURVE",
"152 205 OFFCURVE",
"177 296 CURVE SMOOTH",
"182 314 OFFCURVE",
"190 333 OFFCURVE",
"201 352 CURVE"
);
}
);
width = 769;
},
{
anchors = (
{
name = bottom;
position = "{354, 0}";
},
{
name = ogonek;
position = "{524, 29}";
},
{
name = top;
position = "{497, 577}";
}
);
layerId = "BBDB329E-CE83-4304-A6B1-53EA5ACC004E";
paths = (
{
closed = 1;
nodes = (
"640 688 OFFCURVE",
"603 704 OFFCURVE",
"554 704 CURVE SMOOTH",
"542 704 OFFCURVE",
"530 703 OFFCURVE",
"516 701 CURVE SMOOTH",
"390 683 OFFCURVE",
"227 551 OFFCURVE",
"137 395 CURVE SMOOTH",
"98 327 OFFCURVE",
"71 266 OFFCURVE",
"57 214 CURVE SMOOTH",
"12 43 OFFCURVE",
"98 -41 OFFCURVE",
"310 -41 CURVE SMOOTH",
"375 -41 OFFCURVE",
"437 -23 OFFCURVE",
"489 11 CURVE",
"479 -27 LINE",
"641 -27 LINE",
"670 54 OFFCURVE",
"655 95 OFFCURVE",
"717 329 CURVE SMOOTH",
"791 602 OFFCURVE",
"833 605 OFFCURVE",
"849 700 CURVE",
"708 700 LINE",
"677 649 LINE"
);
},
{
closed = 1;
nodes = (
"294 451 OFFCURVE",
"430 574 OFFCURVE",
"493 583 CURVE",
"501 585 OFFCURVE",
"511 586 OFFCURVE",
"523 586 CURVE SMOOTH",
"595 586 OFFCURVE",
"615 525 OFFCURVE",
"581 396 CURVE SMOOTH",
"573 368 OFFCURVE",
"563 336 OFFCURVE",
"550 302 CURVE SMOOTH",
"500 171 OFFCURVE",
"500 165 OFFCURVE",
"353 165 CURVE SMOOTH",
"246 165 OFFCURVE",
"190 218 OFFCURVE",
"211 296 CURVE SMOOTH",
"215 311 OFFCURVE",
"222 328 OFFCURVE",
"232 344 CURVE SMOOTH"
);
}
);
width = 663;
}
);
unicode = 2C6D;
},
{
color = 6;
glyphname = B;
lastChange = "2019-10-13 01:06:42 +0000";
layers = (
{
anchors = (
{
name = bottom;
position = "{367, -77}";
},
{
name = stroke;
position = "{181, 258}";
},
{
name = top;
position = "{580, 811}";
},
{
name = top_hook;
position = "{97, 591}";
}
);
layerId = "BA196CD0-EE58-4274-B8DF-4393D3617A29";
paths = (
{
closed = 1;
nodes = (
"365 0 LINE SMOOTH",
"552 0 OFFCURVE",
"679 28 OFFCURVE",
"730 231 CURVE SMOOTH",
"766 375 OFFCURVE",
"714 454 OFFCURVE",
"574 478 CURVE",
"679 493 OFFCURVE",
"734 548 OFFCURVE",
"750 681 CURVE SMOOTH",
"773 873 OFFCURVE",
"662 849 OFFCURVE",
"547 849 CURVE SMOOTH",
"287 849 LINE",
"67 0 LINE"
);
},
{
closed = 1;
nodes = (
"285 427 LINE",
"465 427 LINE SMOOTH",
"525 427 OFFCURVE",
"568 416 OFFCURVE",
"590 391 CURVE SMOOTH",
"612 365 OFFCURVE",
"627 349 OFFCURVE",
"618 293 CURVE SMOOTH",
"599 180 OFFCURVE",
"524 164 OFFCURVE",
"403 164 CURVE SMOOTH",
"224 164 LINE"
);
},
{
closed = 1;
nodes = (
"380 774 LINE",
"547 774 LINE SMOOTH",
"656 774 OFFCURVE",
"685 775 OFFCURVE",
"672 687 CURVE SMOOTH",
"653 549 OFFCURVE",
"585 518 OFFCURVE",
"476 518 CURVE SMOOTH",
"308 518 LINE"
);
}
);
width = 878;
},
{
anchors = (
{
name = bottom;
position = "{393, -41}";
},
{
name = stroke;
position = "{278, 264}";
},
{
name = top;
position = "{649, 916}";
},
{
name = top_hook;
position = "{89, 563}";
}
);
layerId = "BBDB329E-CE83-4304-A6B1-53EA5ACC004E";
paths = (
{
closed = 1;
nodes = (
"393 2 LINE SMOOTH",
"581 2 OFFCURVE",
"727 2 OFFCURVE",
"797 234 CURVE SMOOTH",
"828 338 OFFCURVE",
"793 414 OFFCURVE",
"708 453 CURVE",
"765 488 OFFCURVE",
"808 547 OFFCURVE",
"828 624 CURVE SMOOTH",
"868 772 OFFCURVE",
"779 858 OFFCURVE",
"592 858 CURVE SMOOTH",
"301 858 LINE",
"63 2 LINE"
);
},
{
closed = 1;
nodes = (
"344 366 LINE",
"493 366 LINE SMOOTH",
"549 366 OFFCURVE",
"583 357 OFFCURVE",
"600 338 CURVE SMOOTH",
"619 317 OFFCURVE",
"627 295 OFFCURVE",
"624 284 CURVE SMOOTH",
"606 216 OFFCURVE",
"572 198 OFFCURVE",
"448 198 CURVE SMOOTH",
"299 198 LINE"
);
},
{
closed = 1;
nodes = (
"439 722 LINE",
"575 722 LINE SMOOTH",
"661 722 OFFCURVE",
"696 683 OFFCURVE",
"678 611 CURVE SMOOTH",
"660 547 OFFCURVE",
"614 518 OFFCURVE",
"520 518 CURVE SMOOTH",
"384 518 LINE"
);
}
);
width = 946;
}
);
unicode = 0042;
},
{
color = 6;
glyphname = C;
lastChange = "2019-10-14 02:11:10 +0000";
layers = (
{
anchors = (
{
name = bottom;
position = "{409, -64}";
},
{
name = center;
position = "{271, 454}";
},
{
name = top;
position = "{654, 906}";
},
{
name = top_hook;
position = "{871, 772}";
},
{
name = topleft;
position = "{390, 761}";
},
{
name = vcenter;
position = "{557, 414}";
}
);
layerId = "BA196CD0-EE58-4274-B8DF-4393D3617A29";
paths = (
{
closed = 1;
nodes = (
"837 860 OFFCURVE",
"729 860 OFFCURVE",
"693 859 CURVE SMOOTH",
"441 851 OFFCURVE",
"239 682 OFFCURVE",
"172 418 CURVE SMOOTH",
"101 137 OFFCURVE",
"243 -13 OFFCURVE",
"315 -13 CURVE SMOOTH",
"409 -13 OFFCURVE",
"444 -13 OFFCURVE",
"669 -13 CURVE",
"721 181 LINE",
"660 164 OFFCURVE",
"581 159 OFFCURVE",
"517 159 CURVE SMOOTH",
"373 159 OFFCURVE",
"248 187 OFFCURVE",
"307 418 CURVE SMOOTH",
"368 657 OFFCURVE",
"576 735 OFFCURVE",
"677 757 CURVE SMOOTH",
"768 776 OFFCURVE",
"813 760 OFFCURVE",
"880 738 CURVE",
"919 840 LINE"
);
}
);
width = 904;
},
{
anchors = (
{
name = bottom;
position = "{448, 5}";
},
{
name = top;
position = "{806, 924}";
},
{
name = top_hook;
position = "{913, 776}";
},
{
name = vcenter;
position = "{664, 435}";
}
);
layerId = "BBDB329E-CE83-4304-A6B1-53EA5ACC004E";
paths = (
{
closed = 1;
nodes = (
"870 875 OFFCURVE",
"847 879 OFFCURVE",
"735 879 CURVE SMOOTH",
"466 879 OFFCURVE",
"251 704 OFFCURVE",
"175 421 CURVE SMOOTH",
"99 138 OFFCURVE",
"84 0 OFFCURVE",
"339 0 CURVE SMOOTH",
"439 0 OFFCURVE",
"474 0 OFFCURVE",
"726 0 CURVE",
"797 228 LINE",
"713 201 OFFCURVE",
"672 193 OFFCURVE",
"559 193 CURVE SMOOTH",
"362 193 OFFCURVE",
"293 264 OFFCURVE",
"336 421 CURVE SMOOTH",
"388 617 OFFCURVE",
"527 734 OFFCURVE",
"703 734 CURVE SMOOTH",
"811 734 OFFCURVE",
"801 733 OFFCURVE",
"929 711 CURVE",
"996 858 LINE"
);
}
);
width = 978;
}
);
unicode = 0043;
},
{
color = 6;
glyphname = D;
lastChange = "2019-10-14 02:26:17 +0000";
layers = (
{
anchors = (
{
name = bottom;
position = "{365, -92}";
},
{
name = hook_top;
position = "{264, 785}";
},
{
name = stroke;
position = "{255, 427}";
},
{
name = top;
position = "{613, 912}";
}
);
layerId = "BA196CD0-EE58-4274-B8DF-4393D3617A29";
paths = (
{
closed = 1;
nodes = (
"291 0 LINE SMOOTH",
"613 0 OFFCURVE",
"775 23 OFFCURVE",
"881 435 CURVE SMOOTH",
"953 718 OFFCURVE",
"846 846 OFFCURVE",
"523 846 CURVE SMOOTH",
"291 846 LINE",
"60 0 LINE"
);
},
{
closed = 1;
nodes = (
"388 767 LINE",
"525 767 LINE SMOOTH",
"754 767 OFFCURVE",
"853 670 OFFCURVE",
"797 467 CURVE SMOOTH",
"760 329 OFFCURVE",
"658 215 OFFCURVE",
"371 215 CURVE SMOOTH",
"236 215 LINE"
);
}
);
width = 975;
},
{
anchors = (
{
name = bottom;
position = "{420, -72}";
},
{
name = hook_top;
position = "{290, 768}";
},
{
name = stroke;
position = "{320, 441}";
},
{
name = top;
position = "{681, 894}";
}
);
layerId = "BBDB329E-CE83-4304-A6B1-53EA5ACC004E";
paths = (
{
closed = 1;
nodes = (
"325 0 LINE SMOOTH",
"646 0 OFFCURVE",
"824 0 OFFCURVE",
"942 416 CURVE SMOOTH",
"1027 716 OFFCURVE",
"900 858 OFFCURVE",
"561 858 CURVE SMOOTH",
"299 858 LINE",
"62 0 LINE"
);
},
{
closed = 1;
nodes = (
"445 704 LINE",
"547 704 LINE SMOOTH",
"759 704 OFFCURVE",
"838 617 OFFCURVE",
"791 442 CURVE SMOOTH",
"754 302 OFFCURVE",
"655 249 OFFCURVE",
"425 249 CURVE SMOOTH",
"323 249 LINE"
);
}
);
width = 1043;
}
);
unicode = 0044;
},
{
color = 6;
glyphname = E;
lastChange = "2019-10-11 15:56:09 +0000";
layers = (
{
anchors = (
{
name = bottom;
position = "{387, -86}";
},
{
name = ogonek;
position = "{348, 13}";
},
{
name = top;
position = "{579, 956}";
},
{
name = topleft;
position = "{165, 791}";
}
);
layerId = "BA196CD0-EE58-4274-B8DF-4393D3617A29";
paths = (
{
closed = 1;
nodes = (
"613 0 LINE",
"621 171 LINE",
"240 171 LINE",
"295 397 LINE",
"579 415 LINE",
"605 508 LINE",
"321 496 LINE",
"388 729 LINE",
"724 750 LINE",
"771 863 LINE",
"305 847 LINE",
"60 0 LINE"
);
}
);
width = 823;
},
{
anchors = (
{
name = bottom;
position = "{389, -68}";
},
{
name = ogonek;
position = "{405, 14}";
},
{
name = top;
position = "{632, 962}";
},
{
name = topleft;
position = "{252, 795}";
}
);
layerId = "BBDB329E-CE83-4304-A6B1-53EA5ACC004E";
paths = (
{
closed = 1;
nodes = (
"685 0 LINE",
"695 205 LINE",
"321 205 LINE",
"360 349 LINE",
"644 367 LINE",
"685 521 LINE",
"403 509 LINE",
"452 695 LINE",
"827 715 LINE",
"908 859 LINE",
"325 841 LINE",
"62 0 LINE"
);
}
);
width = 897;
}
);
unicode = 0045;
},
{
color = 6;
glyphname = F;
lastChange = "2019-10-11 15:56:09 +0000";
layers = (
{
anchors = (
{
name = bottom;
position = "{302, 0}";
},
{
name = bottom_hook;
position = "{88, -43}";
},
{
name = top;
position = "{531, 894}";
},
{
name = topleft;
position = "{242, 781}";
}
);
layerId = "BA196CD0-EE58-4274-B8DF-4393D3617A29";
paths = (
{
closed = 1;
nodes = (
"210 0 LINE",
"296 431 LINE",
"602 451 LINE",
"632 566 LINE",
"320 546 LINE",
"407 767 LINE",
"744 786 LINE",
"763 861 LINE",
"322 847 LINE",
"60 0 LINE"
);
}
);
width = 743;
},
{
anchors = (
{
name = bottom;
position = "{346, 4}";
},
{
name = bottom_hook;
position = "{131, -39}";
},
{
name = top;
position = "{608, 899}";
},
{
name = topleft;
position = "{228, 781}";
}
);
layerId = "BBDB329E-CE83-4304-A6B1-53EA5ACC004E";
paths = (
{
closed = 1;
nodes = (
"277 0 LINE",
"364 368 LINE",
"668 389 LINE",
"715 565 LINE",
"409 545 LINE",
"470 704 LINE",
"810 724 LINE",
"846 859 LINE",
"343 843 LINE",
"62 0 LINE"
);
}
);
width = 828;
}
);
unicode = 0046;
},
{
color = 6;
glyphname = G;
lastChange = "2019-10-14 01:33:32 +0000";
layers = (
{
anchors = (
{
name = bottom;
position = "{434, -79}";
},
{
name = center;
position = "{532, 465}";
},
{
name = stroke;
position = "{245, 435}";
},
{
name = top;
position = "{689, 940}";
},
{
name = top_hook;
position = "{889, 804}";
}
);
layerId = "BA196CD0-EE58-4274-B8DF-4393D3617A29";
paths = (
{
closed = 1;
nodes = (
"582 -14 OFFCURVE",
"674 10 OFFCURVE",
"785 58 CURVE",
"836 292 LINE",
"912 279 LINE",
"922 387 LINE",
"610 423 LINE",
"596 334 LINE",
"743 308 LINE",
"717 207 LINE",
"682 179 OFFCURVE",
"611 166 OFFCURVE",
"531 166 CURVE SMOOTH",
"329 166 OFFCURVE",
"271 221 OFFCURVE",
"317 424 CURVE",
"402 718 OFFCURVE",
"486 731 OFFCURVE",
"689 731 CURVE SMOOTH",
"744 731 OFFCURVE",
"831 728 OFFCURVE",
"913 707 CURVE",
"924 818 LINE",
"898 822 OFFCURVE",
"810 833 OFFCURVE",
"701 833 CURVE SMOOTH",
"440 833 OFFCURVE",
"243 776 OFFCURVE",
"173 413 CURVE SMOOTH",
"121 144 OFFCURVE",
"202 -14 OFFCURVE",
"474 -14 CURVE SMOOTH"
);
}
);
width = 1047;
},
{
anchors = (
{
name = bottom;
position = "{501, -68}";
},
{
name = center;
position = "{524, 451}";
},
{
name = stroke;
position = "{331, 452}";
},
{
name = top;
position = "{770, 959}";
},
{
name = top_hook;
position = "{922, 796}";
}
);
layerId = "BBDB329E-CE83-4304-A6B1-53EA5ACC004E";
paths = (
{
closed = 1;
nodes = (
"696 210 OFFCURVE",
"642 200 OFFCURVE",
"576 200 CURVE SMOOTH",
"374 200 OFFCURVE",
"321 255 OFFCURVE",
"362 429 CURVE",
"439 717 OFFCURVE",
"516 726 OFFCURVE",
"716 726 CURVE SMOOTH",
"811 726 OFFCURVE",
"907 714 OFFCURVE",
"974 692 CURVE",
"994 847 LINE",
"946 856 OFFCURVE",
"856 868 OFFCURVE",
"745 868 CURVE SMOOTH",
"416 868 OFFCURVE",
"233 750 OFFCURVE",
"178 417 CURVE SMOOTH",
"130 133 OFFCURVE",
"223 -31 OFFCURVE",
"501 -31 CURVE SMOOTH",
"626 -31 OFFCURVE",
"728 -6 OFFCURVE",
"856 70 CURVE",
"896 265 LINE",
"976 252 LINE",
"991 419 LINE",
"621 462 LINE",
"598 318 LINE",
"742 292 LINE",
"726 226 LINE"
);
}
);
width = 1121;
}
);
unicode = 0047;
},
{
color = 6;
glyphname = H;
lastChange = "2019-10-14 03:08:01 +0000";
layers = (
{
anchors = (
{
name = bottom;
position = "{408, -39}";
},
{
name = caccent;
position = "{831, 173}";
},
{
name = center;
position = "{517, 516}";
},
{
name = eng;
position = "{694, 59}";
},
{
name = gram;
position = "{988, 380}";
},
{
name = greek_top;
position = "{233, 739}";
},
{
name = mark;
position = "{1059, 771}";
},
{
name = top;
position = "{660, 968}";
},
{
name = top_hook;
position = "{104, 592}";
},
{
name = topleft;
position = "{209, 804}";
},
{
name = topright;
position = "{874, 801}";
}
);
hints = (
{
horizontal = 1;
origin = "{0, 0}";
target = up;
type = BottomGhost;
},
{
horizontal = 1;
origin = "{2, 0}";
target = "{2, 3}";
type = Stem;
},
{
origin = "{0, 0}";
target = "{1, 2}";
type = Stem;
}
);
layerId = "BA196CD0-EE58-4274-B8DF-4393D3617A29";
paths = (
{
closed = 1;
nodes = (
"60 0 LINE",
"233 0 LINE",
"422 847 LINE",
"303 847 LINE"
);
},
{
closed = 1;
nodes = (
"576 0 LINE",
"757 0 LINE",
"943 847 LINE",
"824 847 LINE"
);
},
{
closed = 1;
nodes = (
"232 211 LINE",
"682 211 LINE",
"734 375 LINE",
"276 375 LINE"
);
}
);
width = 967;
},
{
anchors = (
{
name = bottom;
position = "{445, 4}";
},
{
name = caccent;
position = "{866, 176}";
},
{
name = center;
position = "{552, 579}";
},
{
name = eng;
position = "{729, 62}";
},
{
name = gram;
position = "{989, 355}";
},
{
name = greek_top;
position = "{255, 743}";
},
{
name = mark;
position = "{1094, 774}";
},
{
name = top;
position = "{695, 919}";
},
{
name = top_hook;
position = "{114, 538}";
},
{
name = topleft;
position = "{245, 795}";
},
{
name = topright;
position = "{923, 840}";
}
);
layerId = "BBDB329E-CE83-4304-A6B1-53EA5ACC004E";
paths = (
{
closed = 1;
nodes = (
"55 0 LINE",
"292 0 LINE",
"495 889 LINE",
"317 889 LINE"
);
},
{
closed = 1;
nodes = (
"571 0 LINE",
"816 0 LINE",
"1015 889 LINE",
"838 889 LINE"
);
},
{
closed = 1;
nodes = (
"228 211 LINE",
"738 211 LINE",
"808 436 LINE",
"289 436 LINE"
);
}
);
width = 1035;
}
);
unicode = 0048;
},
{
color = 6;
glyphname = I;
lastChange = "2019-10-16 01:31:05 +0000";
layers = (
{
anchors = (
{
name = J;
position = "{487, 525}";
},
{
name = bottom;
position = "{147, 5}";
},
{
name = center;
position = "{271, 465}";
},
{
name = ogonek;
position = "{118, 0}";
},
{
name = top;
position = "{395, 968}";
},
{
name = topleft;
position = "{240, 850}";
}
);
layerId = "BA196CD0-EE58-4274-B8DF-4393D3617A29";
paths = (
{
closed = 1;
nodes = (
"219 0 LINE",
"264 275 OFFCURVE",
"340 580 OFFCURVE",
"423 847 CURVE",
"299 847 LINE",
"280 738 OFFCURVE",
"183 330 OFFCURVE",
"60 0 CURVE"
);
}
);
width = 429;
},
{
anchors = (
{
name = J;
position = "{498, 449}";
},
{
name = bottom;
position = "{175, -66}";
},
{
name = center;
position = "{312, 454}";
},
{
name = ogonex;
position = "{193, 30}";
},
{
name = top;
position = "{440, 968}";
},
{
name = topleft;
position = "{254, 795}";
}
);
layerId = "BBDB329E-CE83-4304-A6B1-53EA5ACC004E";
paths = (
{
closed = 1;
nodes = (
"290 0 LINE",
"337 305 OFFCURVE",
"412 584 OFFCURVE",
"500 862 CURVE",
"309 862 LINE",
"304 715 OFFCURVE",
"192 334 OFFCURVE",
"62 0 CURVE"
);
}
);
width = 502;
}
);
unicode = 0049;
},
{
color = 6;
glyphname = J;
lastChange = "2019-10-13 20:32:21 +0000";
layers = (
{
anchors = (
{
name = _J;
position = "{301, 560}";
},
{
name = bottom;
position = "{260, 25}";
},
{
name = top;
position = "{528, 849}";
}
);
layerId = "BA196CD0-EE58-4274-B8DF-4393D3617A29";
paths = (
{
closed = 1;
nodes = (
"325 -226 OFFCURVE",
"389 -140 OFFCURVE",
"448 60 CURVE SMOOTH",
"686 873 LINE",
"528 873 LINE",
"309 89 LINE SMOOTH",
"292 30 OFFCURVE",
"232 -59 OFFCURVE",
"154 -9 CURVE SMOOTH",
"102 12 LINE",
"17 -159 LINE",
"123 -182 LINE SMOOTH"
);
}
);
width = 662;
},
{
anchors = (
{
name = _J;
position = "{301, 560}";
},
{
name = bottom;
position = "{421, 26}";
},
{
name = top;
position = "{689, 850}";
}
);
layerId = "BBDB329E-CE83-4304-A6B1-53EA5ACC004E";
paths = (
{
closed = 1;
nodes = (
"412 42 OFFCURVE",
"376 -16 OFFCURVE",
"278 10 CURVE SMOOTH",
"168 40 LINE",
"15 -175 LINE",
"321 -200 LINE SMOOTH",
"412 -207 OFFCURVE",
"535 -156 OFFCURVE",
"605 59 CURVE SMOOTH",
"901 963 LINE",
"708 963 LINE",
"450 159 LINE SMOOTH"
);
}
);
width = 855;
}
);
unicode = 004A;
},
{
color = 6;
glyphname = K;
lastChange = "2019-10-16 23:53:40 +0000";
layers = (
{
anchors = (
{
name = bottom;
position = "{325, -38}";
},
{
name = center;
position = "{365, 750}";
},
{
name = top;
position = "{612, 951}";
},
{
name = top_hook;
position = "{854, 564}";
},
{
name = topleft;
position = "{390, 814}";
}
);
layerId = "BA196CD0-EE58-4274-B8DF-4393D3617A29";
paths = (
{
closed = 1;
nodes = (
"206 1 LINE",
"319 339 LINE",
"445 1 LINE",
"711 1 LINE",
"447 393 LINE",
"836 849 LINE",
"679 849 LINE",
"351 452 LINE",
"456 849 LINE",
"351 849 LINE",
"60 1 LINE"
);
}
);
width = 921;
},
{
anchors = (
{
name = bottom;
position = "{381, 0}";
},
{
name = center;
position = "{465, 734}";
},
{
name = top;
position = "{707, 889}";
},
{
name = top_hook;
position = "{851, 582}";
},
{
name = topleft;
position = "{456, 813}";
}
);
layerId = "BBDB329E-CE83-4304-A6B1-53EA5ACC004E";
paths = (
{
closed = 1;
nodes = (
"284 0 LINE",
"366 233 LINE",
"477 0 LINE",
"835 0 LINE",
"520 374 LINE",
"1011 848 LINE",
"792 848 LINE",
"453 530 LINE",
"620 848 LINE",
"448 848 LINE",
"62 0 LINE"
);
}
);
width = 1047;
}
);
unicode = 004B;
},
{
color = 6;
glyphname = L;
lastChange = "2019-10-11 15:56:09 +0000";
layers = (
{
anchors = (
{
name = "_ circumflexbelowcomb";
position = "{348, -80}";
},
{
name = bottom;
position = "{340, -81}";
},
{
name = center;
position = "{281, 406}";
},
{
name = right;
position = "{537, 563}";
},
{
name = top;
position = "{406, 962}";
},
{
name = topright;
position = "{893, 791}";
}
);
layerId = "BA196CD0-EE58-4274-B8DF-4393D3617A29";
paths = (
{
closed = 1;
nodes = (
"617 0 LINE",
"651 172 LINE",
"255 165 LINE",
"422 847 LINE",
"310 847 LINE",
"60 0 LINE"
);
}
);
width = 827;
},
{
anchors = (
{
name = "_ circumflexbelowcomb";
position = "{390, -26}";
},
{
name = bottom;
position = "{397, 9}";
},
{
name = center;
position = "{332, 460}";
},
{
name = right;
position = "{596, 731}";
},
{
name = top;
position = "{432, 884}";
},
{
name = topright;
position = "{935, 795}";
}
);
layerId = "BBDB329E-CE83-4304-A6B1-53EA5ACC004E";
paths = (
{
closed = 1;
nodes = (
"685 0 LINE",
"730 205 LINE",
"326 198 LINE",
"503 851 LINE",
"330 851 LINE",
"62 0 LINE"
);
}
);
width = 897;
}
);
unicode = 004C;
},
{
color = 6;
glyphname = M;
lastChange = "2019-10-11 15:56:09 +0000";
layers = (
{
anchors = (
{
name = _top;
position = "{692, 910}";
},
{
name = bottom;
position = "{467, -63}";
},
{
name = hookbelow;
position = "{931, 177}";
},
{
name = top;
position = "{715, 954}";
}
);
layerId = "BA196CD0-EE58-4274-B8DF-4393D3617A29";
paths = (
{
closed = 1;
nodes = (
"223 0 LINE",
"386 702 LINE",
"439 71 LINE",
"563 71 LINE",
"963 702 LINE",
"691 0 LINE",
"875 0 LINE",
"1061 824 LINE",
"905 824 LINE",
"561 327 LINE",
"479 824 LINE",
"310 824 LINE",
"60 0 LINE"
);
}
);
width = 1085;
},
{
anchors = (
{
name = _top;
position = "{678, 753}";
},
{
name = bottom;
position = "{509, 4}";
},
{
name = hookbelow;
position = "{973, 181}";
},
{
name = top;
position = "{722, 795}";
}
);
layerId = "BBDB329E-CE83-4304-A6B1-53EA5ACC004E";
paths = (
{
closed = 1;
nodes = (
"290 0 LINE",
"447 764 LINE",
"384 752 LINE",
"439 44 LINE",
"609 44 LINE",
"1021 753 LINE",
"964 764 LINE",
"693 0 LINE",
"941 0 LINE",
"1140 858 LINE",
"934 858 LINE",
"624 408 LINE",
"549 858 LINE",
"331 858 LINE",
"62 0 LINE"
);
}
);
width = 1153;
}
);
unicode = 004D;
},
{
color = 6;
glyphname = N;
lastChange = "2019-10-11 15:56:09 +0000";
layers = (
{
anchors = (
{
name = _;
position = "{443, 0}";
},
{
name = bottom;
position = "{423, -67}";
},
{
name = center;
position = "{533, 388}";
},
{
name = eng;
position = "{617, 14}";
},
{
name = top;
position = "{685, 920}";
}
);
layerId = "BA196CD0-EE58-4274-B8DF-4393D3617A29";
paths = (
{
closed = 1;
nodes = (
"244 0 LINE",
"408 696 LINE",
"513 0 LINE",
"696 0 LINE",
"963 822 LINE",
"859 822 LINE",
"625 157 LINE",
"479 791 LINE",
"339 791 LINE",
"60 0 LINE"
);
}
);
width = 953;
},
{
anchors = (
{
name = _;
position = "{486, 4}";
},
{
name = bottom;
position = "{445, 4}";
},
{
name = eng;
position = "{660, 17}";
},
{
name = top;
position = "{723, 880}";
}
);
layerId = "BBDB329E-CE83-4304-A6B1-53EA5ACC004E";
paths = (
{
closed = 1;
nodes = (
"311 0 LINE",
"483 701 LINE",
"419 688 LINE",
"527 0 LINE",
"761 0 LINE",
"1047 856 LINE",
"882 856 LINE",
"676 272 LINE",
"551 825 LINE",
"362 825 LINE",
"62 0 LINE"
);
}
);
width = 1030;
}
);
unicode = 004E;
},
{
color = 6;
glyphname = O;
lastChange = "2019-10-14 03:43:14 +0000";
layers = (
{
anchors = (
{
name = abovecomb;
position = "{744, 998}";
},
{
name = bottom;
position = "{386, -277}";
},
{
name = center;
position = "{565, 439}";
},
{
name = horn;
position = "{896, 724}";
},
{
name = ogonek;
position = "{488, 13}";
},
{
name = polyomicron;
position = "{304, 761}";
},
{
name = top;
position = "{722, 956}";
},
{
name = topleft;
position = "{211, 793}";
},
{
name = topright;
position = "{1107, 793}";
}
);
layerId = "BA196CD0-EE58-4274-B8DF-4393D3617A29";
paths = (
{
closed = 1;
nodes = (
"732 -16 OFFCURVE",
"840 63 OFFCURVE",
"942 413 CURVE SMOOTH",
"1018 673 OFFCURVE",
"906 840 OFFCURVE",
"672 840 CURVE SMOOTH",
"438 840 OFFCURVE",
"241 673 OFFCURVE",
"171 413 CURVE SMOOTH",
"77 63 OFFCURVE",
"178 -12 OFFCURVE",
"442 -14 CURVE SMOOTH"
);
},
{
closed = 1;
nodes = (
"336 197 OFFCURVE",
"245 243 OFFCURVE",
"290 413 CURVE SMOOTH",
"346 621 OFFCURVE",
"488 761 OFFCURVE",
"650 761 CURVE SMOOTH",
"814 761 OFFCURVE",
"879 621 OFFCURVE",
"823 413 CURVE SMOOTH",
"778 243 OFFCURVE",
"663 197 OFFCURVE",
"500 197 CURVE SMOOTH"
);
}
);
width = 1042;
},
{
anchors = (
{
name = abovecomb;
position = "{887, 915}";
},
{
name = bottom;
position = "{464, -56}";
},
{
name = center;
position = "{598, 443}";
},
{
name = horn;
position = "{978, 745}";
},
{
name = ogonek;
position = "{860, 17}";
},
{
name = polyomicron;
position = "{337, 765}";
},
{
name = top;
position = "{793, 949}";
},
{
name = topleft;
position = "{326, 757}";
},
{
name = topright;
position = "{978, 806}";
}
);
layerId = "BBDB329E-CE83-4304-A6B1-53EA5ACC004E";
paths = (
{
closed = 1;
nodes = (
"783 -34 OFFCURVE",
"902 58 OFFCURVE",
"1006 416 CURVE SMOOTH",
"1085 690 OFFCURVE",
"966 874 OFFCURVE",
"713 874 CURVE SMOOTH",
"461 874 OFFCURVE",
"247 692 OFFCURVE",
"174 417 CURVE SMOOTH",
"83 78 OFFCURVE",
"158 -30 OFFCURVE",
"468 -32 CURVE SMOOTH"
);
},
{
closed = 1;
nodes = (
"369 231 OFFCURVE",
"318 283 OFFCURVE",
"355 417 CURVE SMOOTH",
"407 611 OFFCURVE",
"533 734 OFFCURVE",
"676 734 CURVE SMOOTH",
"818 734 OFFCURVE",
"878 611 OFFCURVE",
"826 417 CURVE SMOOTH",
"790 282 OFFCURVE",
"712 231 OFFCURVE",
"541 231 CURVE SMOOTH"
);
}
);
width = 1107;
}
);
unicode = 004F;
},
{
color = 6;
glyphname = P;
lastChange = "2019-10-12 19:16:03 +0000";
layers = (
{
anchors = (
{
name = bottom;
position = "{337, 0}";
},
{
name = center;
position = "{493, 597}";
},
{
name = midstroke;
position = "{232, 410}";
},
{
name = stroke;
position = "{194, 164}";
},
{
name = top;
position = "{602, 971}";
},
{
name = top_hook;
position = "{114, 591}";
},
{
name = topleft;
position = "{205, 841}";
}
);
layerId = "BA196CD0-EE58-4274-B8DF-4393D3617A29";
paths = (
{
closed = 1;
nodes = (
"228 0 LINE",
"288 310 LINE",
"426 316 LINE SMOOTH",
"616 325 OFFCURVE",
"690 413 OFFCURVE",
"734 576 CURVE SMOOTH",
"764 688 OFFCURVE",
"746 850 OFFCURVE",
"536 850 CURVE SMOOTH",
"323 850 LINE",
"60 0 LINE"
);
},
{
closed = 1;
nodes = (
"397 740 LINE",
"521 740 LINE SMOOTH",
"636 740 OFFCURVE",
"657 664 OFFCURVE",
"647 629 CURVE SMOOTH",
"612 506 OFFCURVE",
"593 478 OFFCURVE",
"480 473 CURVE SMOOTH",
"325 467 LINE"
);
}
);
width = 790;
},
{
anchors = (
{
name = bottom;
position = "{380, 4}";
},
{
name = center;
position = "{560, 598}";
},
{
name = midstroke;
position = "{267, 408}";
},
{
name = stroke;
position = "{267, 148}";
},
{
name = top;
position = "{615, 840}";
},
{
name = top_hook;
position = "{126, 560}";
},
{
name = topleft;
position = "{205, 841}";
}
);
layerId = "BBDB329E-CE83-4304-A6B1-53EA5ACC004E";
paths = (
{
closed = 1;
nodes = (
"297 0 LINE",
"358 284 LINE",
"463 289 LINE SMOOTH",
"667 300 OFFCURVE",
"793 393 OFFCURVE",
"841 574 CURVE SMOOTH",
"883 731 OFFCURVE",
"779 843 OFFCURVE",
"587 843 CURVE SMOOTH",
"346 843 LINE",
"62 0 LINE"
);
},
{
closed = 1;
nodes = (
"464 709 LINE",
"555 709 LINE SMOOTH",
"648 709 OFFCURVE",
"708 670 OFFCURVE",
"696 624 CURVE SMOOTH",
"671 531 OFFCURVE",
"642 512 OFFCURVE",
"531 507 CURVE SMOOTH",
"407 502 LINE"
);
}
);
width = 899;
}
);
unicode = 0050;
},
{
glyphname = Thorn;
lastChange = "2019-09-05 22:37:16 +0000";
layers = (
{
layerId = "BA196CD0-EE58-4274-B8DF-4393D3617A29";
paths = (
{
closed = 1;
nodes = (
"81 0 LINE",
"170 0 LINE",
"357 700 LINE",
"268 700 LINE"
);
},
{
closed = 1;
nodes = (
"343 144 OFFCURVE",
"550 245 OFFCURVE",
"584 371 CURVE SMOOTH",
"618 496 OFFCURVE",
"463 597 OFFCURVE",
"318 597 CURVE",
"216 459 OFFCURVE",
"166 282 OFFCURVE",
"196 144 CURVE"
);
},
{
closed = 1;
nodes = (
"218 231 OFFCURVE",
"196 329 OFFCURVE",
"209 375 CURVE SMOOTH",
"221 421 OFFCURVE",
"291 520 OFFCURVE",
"344 520 CURVE SMOOTH",
"397 520 OFFCURVE",
"526 421 OFFCURVE",
"514 375 CURVE SMOOTH",
"501 329 OFFCURVE",
"324 231 OFFCURVE",
"272 231 CURVE SMOOTH"
);
}
);
width = 566;
},
{
layerId = "BBDB329E-CE83-4304-A6B1-53EA5ACC004E";
paths = (
{
closed = 1;
nodes = (
"46 -27 LINE",
"190 -27 LINE",
"392 727 LINE",
"248 727 LINE"
);
},
{
closed = 1;
nodes = (
"189 117 LINE",
"369 117 OFFCURVE",
"576 240 OFFCURVE",
"611 371 CURVE SMOOTH",
"646 501 OFFCURVE",
"504 624 OFFCURVE",
"325 624 CURVE",
"296 608 LINE",
"187 461 OFFCURVE",
"137 275 OFFCURVE",
"169 132 CURVE"
);
},
{
closed = 1;
nodes = (
"251 258 OFFCURVE",
"224 331 OFFCURVE",
"236 375 CURVE SMOOTH",
"248 421 OFFCURVE",
"310 493 OFFCURVE",
"337 493 CURVE SMOOTH",
"379 493 OFFCURVE",
"493 400 OFFCURVE",
"486 375 CURVE SMOOTH",
"480 350 OFFCURVE",
"321 258 OFFCURVE",
"279 258 CURVE SMOOTH"
);
}
);
width = 566;
}
);
unicode = 00DE;
},
{
color = 6;
glyphname = Q;
lastChange = "2019-10-11 15:56:09 +0000";
layers = (
{
anchors = (
{
name = bottom;
position = "{470, 17}";
},
{
name = top;
position = "{749, 989}";
}
);
layerId = "BA196CD0-EE58-4274-B8DF-4393D3617A29";
paths = (
{
closed = 1;
nodes = (
"835 -129 LINE",
"711 64 LINE",
"796 137 OFFCURVE",
"892 236 OFFCURVE",
"943 428 CURVE SMOOTH",
"1013 688 OFFCURVE",
"910 855 OFFCURVE",
"676 855 CURVE SMOOTH",
"442 855 OFFCURVE",
"236 655 OFFCURVE",
"175 428 CURVE SMOOTH",
"78 62 OFFCURVE",
"215 1 OFFCURVE",
"441 1 CURVE SMOOTH",
"453 1 OFFCURVE",
"465 1 OFFCURVE",
"488 3 CURVE",
"571 -129 LINE"
);
},
{
closed = 1;
nodes = (
"362 191 OFFCURVE",
"234 190 OFFCURVE",
"297 428 CURVE SMOOTH",
"345 603 OFFCURVE",
"488 765 OFFCURVE",
"652 765 CURVE SMOOTH",
"815 765 OFFCURVE",
"879 636 OFFCURVE",
"824 428 CURVE SMOOTH",
"801 342 OFFCURVE",
"737 226 OFFCURVE",
"702 226 CURVE SMOOTH",
"657 226 OFFCURVE",
"600 250 OFFCURVE",
"548 281 CURVE",
"487 195 LINE",
"426 193 LINE SMOOTH"
);
}
);
width = 1080;
},
{
anchors = (
{
name = bottom;
position = "{503, 20}";
},
{
name = top;
position = "{716, 811}";
}
);
layerId = "BBDB329E-CE83-4304-A6B1-53EA5ACC004E";
paths = (
{
closed = 1;
nodes = (
"931 -156 LINE",
"785 68 LINE",
"899 172 OFFCURVE",
"967 282 OFFCURVE",
"1006 432 CURVE SMOOTH",
"1081 710 OFFCURVE",
"967 889 OFFCURVE",
"717 889 CURVE SMOOTH",
"480 889 OFFCURVE",
"247 690 OFFCURVE",
"178 432 CURVE SMOOTH",
"90 102 OFFCURVE",
"171 -26 OFFCURVE",
"466 -26 CURVE SMOOTH",
"475 -26 OFFCURVE",
"484 -26 OFFCURVE",
"501 -25 CURVE",
"583 -156 LINE"
);
},
{
closed = 1;
nodes = (
"402 225 OFFCURVE",
"306 224 OFFCURVE",
"362 432 CURVE SMOOTH",
"409 607 OFFCURVE",
"543 738 OFFCURVE",
"676 738 CURVE SMOOTH",
"821 738 OFFCURVE",
"879 625 OFFCURVE",
"827 432 CURVE SMOOTH",
"811 375 OFFCURVE",
"750 260 OFFCURVE",
"744 260 CURVE SMOOTH",
"702 260 OFFCURVE",
"644 284 OFFCURVE",
"578 328 CURVE",
"508 228 LINE",
"467 227 LINE SMOOTH"
);
}
);
width = 1185;
}
);
unicode = 0051;
},
{
color = 6;
glyphname = R;
lastChange = "2019-10-16 22:09:12 +0000";
layers = (
{
anchors = (
{
name = bottom;
position = "{335, -110}";
},
{
name = bottom_hook;
position = "{107, -23}";
},
{
name = top;
position = "{596, 918}";
}
);
layerId = "BA196CD0-EE58-4274-B8DF-4393D3617A29";
paths = (
{
closed = 1;
nodes = (
"647 421 OFFCURVE",
"710 478 OFFCURVE",
"738 586 CURVE SMOOTH",
"781 746 OFFCURVE",
"704 824 OFFCURVE",
"536 824 CURVE SMOOTH",
"334 824 LINE",
"60 0 LINE",
"240 0 LINE",
"307 319 LINE",
"369 329 LINE SMOOTH",
"440 340 OFFCURVE",
"560 332 OFFCURVE",
"521 211 CURVE SMOOTH",
"455 0 LINE",
"660 0 LINE",
"656 225 LINE SMOOTH",
"654 313 OFFCURVE",
"607 384 OFFCURVE",
"565 409 CURVE"
);
},
{
closed = 1;
nodes = (
"617 765 OFFCURVE",
"696 728 OFFCURVE",
"659 586 CURVE SMOOTH",
"640 515 OFFCURVE",
"535 458 OFFCURVE",
"450 458 CURVE SMOOTH",
"308 458 LINE",
"390 765 LINE",
"533 765 LINE SMOOTH"
);
}
);
width = 870;
},
{
anchors = (
{
name = bottom;
position = "{349, -75}";
},
{
name = bottom_hook;
position = "{142, -19}";
},
{
name = top;
position = "{618, 875}";
}
);
layerId = "BBDB329E-CE83-4304-A6B1-53EA5ACC004E";
paths = (
{
closed = 1;
nodes = (
"732 435 OFFCURVE",
"781 500 OFFCURVE",
"805 590 CURVE SMOOTH",
"851 762 OFFCURVE",
"769 858 OFFCURVE",
"581 858 CURVE SMOOTH",
"349 858 LINE",
"55 -27 LINE",
"300 -27 LINE",
"367 297 LINE",
"402 302 LINE SMOOTH",
"500 318 OFFCURVE",
"549 286 OFFCURVE",
"526 216 CURVE SMOOTH",
"451 -27 LINE",
"729 -27 LINE",
"723 236 LINE SMOOTH",
"722 297 OFFCURVE",
"699 361 OFFCURVE",
"663 402 CURVE"
);
},
{
closed = 1;
nodes = (
"655 738 OFFCURVE",
"690 689 OFFCURVE",
"663 590 CURVE SMOOTH",
"651 541 OFFCURVE",
"568 492 OFFCURVE",
"494 492 CURVE SMOOTH",
"383 492 LINE",
"448 738 LINE",
"559 738 LINE SMOOTH"
);
}
);
width = 948;
}
);
unicode = 0052;
},
{
color = 6;
glyphname = S;
lastChange = "2019-10-12 19:21:16 +0000";
layers = (
{
anchors = (
{
name = bottom;
position = "{400, -66}";
},
{
name = center;
position = "{521, 433}";
},
{
name = top;
position = "{675, 963}";
}
);
layerId = "BA196CD0-EE58-4274-B8DF-4393D3617A29";
paths = (
{
closed = 1;
nodes = (
"569 -14 OFFCURVE",
"790 16 OFFCURVE",
"806 259 CURVE SMOOTH",
"815 397 OFFCURVE",
"741 439 OFFCURVE",
"580 473 CURVE SMOOTH",
"516 487 LINE SMOOTH",
"423 507 OFFCURVE",
"356 540 OFFCURVE",
"374 622 CURVE SMOOTH",
"389 692 OFFCURVE",
"452 746 OFFCURVE",
"618 750 CURVE SMOOTH",
"698 752 OFFCURVE",
"712 746 OFFCURVE",
"764 732 CURVE",
"824 825 LINE",
"744 845 OFFCURVE",
"697 850 OFFCURVE",
"621 850 CURVE SMOOTH",
"438 850 OFFCURVE",
"304 782 OFFCURVE",
"265 635 CURVE SMOOTH",
"232 510 OFFCURVE",
"288 437 OFFCURVE",
"443 390 CURVE SMOOTH",
"519 367 LINE SMOOTH",
"624 335 OFFCURVE",
"650 308 OFFCURVE",
"642 257 CURVE SMOOTH",
"629 176 OFFCURVE",
"542 122 OFFCURVE",
"448 124 CURVE SMOOTH",
"384 125 OFFCURVE",
"284 158 OFFCURVE",
"250 191 CURVE",
"86 98 LINE",
"153 31 OFFCURVE",
"294 -14 OFFCURVE",
"446 -14 CURVE SMOOTH"
);
}
);
width = 954;
},
{
anchors = (
{
name = bottom;
position = "{463, -68}";
},
{
name = center;
position = "{549, 453}";
},
{
name = top;
position = "{784, 939}";
}
);
layerId = "BBDB329E-CE83-4304-A6B1-53EA5ACC004E";
paths = (
{
closed = 1;
nodes = (
"579 -41 OFFCURVE",
"857 15 OFFCURVE",
"900 232 CURVE SMOOTH",
"928 371 OFFCURVE",
"851 466 OFFCURVE",
"657 506 CURVE SMOOTH",
"593 519 LINE SMOOTH",
"494 542 OFFCURVE",
"451 580 OFFCURVE",
"458 626 CURVE SMOOTH",
"467 685 OFFCURVE",
"554 715 OFFCURVE",
"674 723 CURVE SMOOTH",
"759 729 OFFCURVE",
"762 719 OFFCURVE",
"833 700 CURVE",
"949 839 LINE",
"843 866 OFFCURVE",
"793 874 OFFCURVE",
"702 874 CURVE SMOOTH",
"503 874 OFFCURVE",
"342 783 OFFCURVE",
"297 619 CURVE SMOOTH",
"260 477 OFFCURVE",
"331 390 OFFCURVE",
"503 354 CURVE SMOOTH",
"567 341 LINE SMOOTH",
"675 318 OFFCURVE",
"704 284 OFFCURVE",
"695 241 CURVE SMOOTH",
"679 167 OFFCURVE",
"565 139 OFFCURVE",
"519 140 CURVE SMOOTH",
"438 142 OFFCURVE",
"284 237 OFFCURVE",
"267 272 CURVE",
"90 106 LINE",
"195 16 OFFCURVE",
"301 -41 OFFCURVE",
"432 -41 CURVE SMOOTH"
);
}
);
width = 1050;
}
);
unicode = 0053;
},
{
glyphname = Saltillo;
lastChange = "2019-09-05 22:37:16 +0000";
layers = (
{
layerId = "BA196CD0-EE58-4274-B8DF-4393D3617A29";
paths = (
{
closed = 1;
nodes = (
"192 120 LINE",
"296 120 LINE",
"520 763 LINE",
"285 763 LINE"
);
}
);
width = 396;
},
{
layerId = "BBDB329E-CE83-4304-A6B1-53EA5ACC004E";
paths = (
{
closed = 1;
nodes = (
"265 93 LINE",
"419 93 LINE",
"661 790 LINE",
"367 790 LINE"
);
}
);
width = 606;
}
);
unicode = A78B;
},
{
color = 6;
glyphname = T;
lastChange = "2019-10-12 18:57:52 +0000";
layers = (
{
anchors = (
{
name = bottom;
position = "{399, -85}";
},
{
name = bottom_hook;
position = "{446, -19}";
},
{
name = center;
position = "{523, 412}";
},
{
name = hook_top;
position = "{300, 781}";
},
{
name = top;
position = "{680, 949}";
}
);
layerId = "BA196CD0-EE58-4274-B8DF-4393D3617A29";
paths = (
{
closed = 1;
nodes = (
"554 741 LINE",
"334 0 LINE",
"492 0 LINE",
"667 741 LINE",
"960 730 LINE",
"985 824 LINE",
"281 824 LINE",
"256 730 LINE"
);
}
);
width = 974;
},
{
anchors = (
{
name = bottom;
position = "{396, -123}";
},
{
name = bottom_hook;
position = "{467, -13}";
},
{
name = center;
position = "{557, 416}";
},
{
name = hook_top;
position = "{364, 784}";
},
{
name = top;
position = "{677, 866}";
}
);
layerId = "BBDB329E-CE83-4304-A6B1-53EA5ACC004E";
paths = (
{
closed = 1;
nodes = (
"550 0 LINE",
"725 713 LINE",
"1017 702 LINE",
"1058 858 LINE",
"292 858 LINE",
"251 702 LINE",
"548 713 LINE",
"328 0 LINE"
);
}
);
width = 1041;
}
);
unicode = 0054;
},
{
color = 6;
glyphname = U;
lastChange = "2019-10-11 15:56:09 +0000";
layers = (
{
anchors = (
{
name = bottom;
position = "{376, -118}";
},
{
name = horn;
position = "{968, 809}";
},
{
name = ogonek;
position = "{581, 13}";
},
{
name = top;
position = "{657, 998}";
},
{
name = top_hook;
position = "{879, 751}";
},
{
name = topright;
position = "{1016, 793}";
}
);
layerId = "BA196CD0-EE58-4274-B8DF-4393D3617A29";
paths = (
{
closed = 1;
nodes = (
"86 -14 OFFCURVE",
"183 -14 OFFCURVE",
"394 -14 CURVE SMOOTH",
"603 -14 OFFCURVE",
"696 -14 OFFCURVE",
"799 311 CURVE SMOOTH",
"961 826 LINE",
"813 826 LINE",
"715 402 LINE SMOOTH",
"661 162 OFFCURVE",
"585 162 OFFCURVE",
"442 162 CURVE SMOOTH",
"297 162 OFFCURVE",
"220 162 OFFCURVE",
"294 402 CURVE SMOOTH",
"422 826 LINE",
"281 826 LINE",
"161 311 LINE SMOOTH"
);
}
);
width = 950;
},
{
anchors = (
{
name = bottom;
position = "{421, -51}";
},
{
name = horn;
position = "{1021, 829}";
},
{
name = ogonek;
position = "{615, 45}";
},
{
name = top;
position = "{698, 975}";
},
{
name = top_hook;
position = "{898, 779}";
},
{
name = topright;
position = "{1050, 796}";
}
);
layerId = "BBDB329E-CE83-4304-A6B1-53EA5ACC004E";
paths = (
{
closed = 1;
nodes = (
"89 -12 OFFCURVE",
"209 -24 OFFCURVE",
"421 -24 CURVE SMOOTH",
"630 -24 OFFCURVE",
"760 -14 OFFCURVE",
"864 314 CURVE SMOOTH",
"1037 860 LINE",
"824 860 LINE",
"719 404 LINE SMOOTH",
"672 196 OFFCURVE",
"628 196 OFFCURVE",
"484 196 CURVE SMOOTH",
"339 196 OFFCURVE",
"294 196 OFFCURVE",
"359 404 CURVE SMOOTH",
"498 860 LINE",
"292 860 LINE",
"165 314 LINE SMOOTH"
);
}
);
width = 1019;
}
);
unicode = 0055;
},
{
color = 6;
glyphname = V;
lastChange = "2019-10-11 15:56:09 +0000";
layers = (
{
anchors = (
{
name = bottom;
position = "{442, 0}";
},
{
name = top;
position = "{654, 903}";
},
{
name = top_hook;
position = "{930, 703}";
}
);
layerId = "BA196CD0-EE58-4274-B8DF-4393D3617A29";
paths = (
{
closed = 1;
nodes = (
"1044 824 LINE",
"927 824 LINE",
"523 242 LINE",
"469 242 LINE",
"399 824 LINE",
"281 824 LINE",
"320 0 LINE",
"552 0 LINE"
);
}
);
width = 1033;
},
{
anchors = (
{
name = bottom;
position = "{487, 4}";
},
{
name = top;
position = "{715, 853}";
},
{
name = top_hook;
position = "{975, 706}";
}
);
layerId = "BBDB329E-CE83-4304-A6B1-53EA5ACC004E";
paths = (
{
closed = 1;
nodes = (
"1139 858 LINE",
"960 858 LINE",
"566 286 LINE",
"514 276 LINE",
"464 858 LINE",
"292 858 LINE",
"334 0 LINE",
"612 0 LINE"
);
}
);
width = 1121;
}
);
unicode = 0056;
},
{
glyphname = Gammaafrican;
lastChange = "2019-09-05 22:37:16 +0000";
layers = (
{
layerId = "BA196CD0-EE58-4274-B8DF-4393D3617A29";
paths = (
{
closed = 1;
nodes = (
"475 749 CURVE SMOOTH",
"469 771 OFFCURVE",
"466 775 OFFCURVE",
"456 800 CURVE",
"295 800 LINE",
"303 780 OFFCURVE",
"317 738 OFFCURVE",
"322 726 CURVE SMOOTH",
"564 16 OFFCURVE",
"616 -78 OFFCURVE",
"449 -73 CURVE SMOOTH",
"237 -67 OFFCURVE",
"387 98 OFFCURVE",
"1012 713 CURVE SMOOTH",
"1022 723 OFFCURVE",
"1087 783 OFFCURVE",
"1105 800 CURVE",
"919 800 LINE",
"903 783 OFFCURVE",
"906 789 OFFCURVE",
"892 772 CURVE SMOOTH",
"291 93 OFFCURVE",
"-113 -194 OFFCURVE",
"419 -200 CURVE SMOOTH",
"859 -205 OFFCURVE",
"664 27 OFFCURVE"
);
}
);
width = 972;
},
{
layerId = "BBDB329E-CE83-4304-A6B1-53EA5ACC004E";
paths = (
{
closed = 1;
nodes = (
"896 -233 OFFCURVE",
"678 62 OFFCURVE",
"496 762 CURVE SMOOTH",
"488 791 OFFCURVE",
"483 794 OFFCURVE",
"470 827 CURVE",
"245 827 LINE",
"269 767 OFFCURVE",
"282 725 OFFCURVE",
"288 712 CURVE",
"533 -6 OFFCURVE",
"565 -49 OFFCURVE",
"450 -46 CURVE SMOOTH",
"297 -42 OFFCURVE",
"365 49 OFFCURVE",
"1023 697 CURVE",
"1016 690 OFFCURVE",
"1046 716 OFFCURVE",
"1170 827 CURVE",
"905 827 LINE",
"877 797 OFFCURVE",
"883 806 OFFCURVE",
"865 786 CURVE SMOOTH",
"281 127 OFFCURVE",
"-179 -220 OFFCURVE",
"405 -227 CURVE SMOOTH"
);
}
);
width = 957;
}
);
unicode = 0194;
},
{
color = 6;
glyphname = W;
lastChange = "2019-10-11 15:56:09 +0000";
layers = (
{
anchors = (
{
name = bottom;
position = "{588, 0}";
},
{
name = center;
position = "{690, 395}";
},
{
name = top;
position = "{851, 992}";
},
{
name = top_hook;
position = "{1441, 564}";
}
);
layerId = "BA196CD0-EE58-4274-B8DF-4393D3617A29";
paths = (
{
closed = 1;
nodes = (
"423 0 LINE",
"707 445 LINE",
"741 0 LINE",
"905 0 LINE",
"1335 824 LINE",
"1226 824 LINE",
"874 221 LINE",
"798 614 LINE",
"700 614 LINE",
"400 233 LINE",
"390 824 LINE",
"281 824 LINE",
"246 0 LINE"
);
}
);
width = 1324;
},
{
anchors = (
{
name = bottom;
position = "{629, 4}";
},
{
name = center;
position = "{725, 374}";
},
{
name = top;
position = "{847, 827}";
},
{
name = top_hook;
position = "{1379, 569}";
}
);
layerId = "BBDB329E-CE83-4304-A6B1-53EA5ACC004E";
paths = (
{
closed = 1;
nodes = (
"477 0 LINE",
"723 357 LINE",
"752 0 LINE",
"962 0 LINE",
"1424 858 LINE",
"1253 858 LINE",
"932 310 LINE",
"867 648 LINE",
"732 648 LINE",
"472 319 LINE",
"463 858 LINE",
"292 858 LINE",
"255 0 LINE"
);
}
);
width = 1406;
}
);
unicode = 0057;
},
{
color = 6;
glyphname = X;
lastChange = "2019-10-11 15:56:09 +0000";
layers = (
{
anchors = (
{
name = bottom;
position = "{419, 0}";
},
{
name = bottom_hook;
position = "{680, 24}";
},
{
name = top;
position = "{651, 921}";
}
);
layerId = "BA196CD0-EE58-4274-B8DF-4393D3617A29";
paths = (
{
closed = 1;
nodes = (
"596 0 LINE",
"777 0 LINE",
"425 824 LINE",
"324 824 LINE"
);
},
{
closed = 1;
nodes = (
"60 0 LINE",
"243 0 LINE",
"970 825 LINE",
"871 825 LINE"
);
}
);
width = 987;
},
{
anchors = (
{
name = bottom;
position = "{488, 4}";
},
{
name = bottom_hook;
position = "{749, 27}";
},
{
name = top;
position = "{701, 795}";
}
);
layerId = "BBDB329E-CE83-4304-A6B1-53EA5ACC004E";
paths = (
{
closed = 1;
nodes = (
"640 0 LINE",
"896 0 LINE",
"519 858 LINE",
"347 858 LINE"
);
},
{
closed = 1;
nodes = (
"62 0 LINE",
"321 0 LINE",
"1103 859 LINE",
"932 859 LINE"
);
}
);
width = 1108;
}
);
unicode = 0058;
},
{
color = 6;
glyphname = Y;
lastChange = "2019-10-17 00:14:13 +0000";
layers = (
{
anchors = (
{
name = bottom;
position = "{393, -88}";
},
{
name = center;
position = "{482, 290}";
},
{
name = top;
position = "{664, 994}";
},
{
name = top_hook;
position = "{959, 565}";
},
{
name = topleft;
position = "{213, 824}";
}
);
layerId = "BA196CD0-EE58-4274-B8DF-4393D3617A29";
paths = (
{
closed = 1;
nodes = (
"328 0 LINE",
"479 0 LINE",
"555 282 LINE",
"971 824 LINE",
"850 824 LINE",
"514 402 LINE",
"402 824 LINE",
"281 824 LINE",
"403 282 LINE"
);
}
);
width = 960;
},
{
anchors = (
{
name = bottom;
position = "{396, -194}";
},
{
name = center;
position = "{532, 267}";
},
{
name = top;
position = "{700, 940}";
},
{
name = top_hook;
position = "{1010, 569}";
},
{
name = topleft;
position = "{197, 795}";
}
);
layerId = "BBDB329E-CE83-4304-A6B1-53EA5ACC004E";
paths = (
{
closed = 1;
nodes = (
"340 0 LINE",
"554 0 LINE",
"635 279 LINE",
"1079 858 LINE",
"891 858 LINE",
"583 471 LINE",
"480 858 LINE",
"292 858 LINE",
"422 279 LINE"
);
}
);
width = 1061;
}
);
unicode = 0059;
},
{
color = 6;
glyphname = Z;
lastChange = "2019-10-14 03:31:28 +0000";
layers = (
{
anchors = (
{
name = bottom;
position = "{426, -94}";
},
{
name = center;
position = "{543, 395}";
},
{
name = top;
position = "{695, 948}";
}
);
hints = (
{
origin = "{0, 3}";
type = Delta;
settings = {
deltaH = {
"{100, 400, 0, 0, 0, 0}" = {
"55" = 0;
};
};
};
},
{
origin = "{0, 2}";
type = Delta;
settings = {
deltaH = {
"{100, 400, 0, 0, 0, 0}" = {
"55" = 0;
};
};
};
}
);
layerId = "BA196CD0-EE58-4274-B8DF-4393D3617A29";
paths = (
{
closed = 1;
nodes = (
"782 7 LINE",
"771 185 LINE",
"318 185 LINE",
"1011 649 LINE",
"1011 770 LINE",
"357 770 LINE",
"325 663 LINE",
"785 656 LINE",
"110 185 LINE",
"68 0 LINE"
);
}
);
width = 1047;
},
{
anchors = (
{
name = bottom;
position = "{470, -89}";
},
{
name = center;
position = "{576, 399}";
},
{
name = top;
position = "{827, 884}";
}
);
layerId = "BBDB329E-CE83-4304-A6B1-53EA5ACC004E";
paths = (
{
closed = 1;
nodes = (
"790 656 LINE",
"117 204 LINE",
"62 0 LINE",
"850 0 LINE",
"834 199 LINE",
"376 199 LINE",
"1049 675 LINE",
"1083 804 LINE",
"343 804 LINE",
"392 656 LINE"
);
}
);
width = 1080;
}
);
unicode = 005A;
},
{
glyphname = Gsmallhook;
lastChange = "2019-10-11 23:43:20 +0000";
layers = (
{
anchors = (
{
name = _top_hook;
position = "{739, 66}";
},
{
name = center;
position = "{805, 299}";
}
);
components = (
{
name = Gsmall;
transform = "{1, 0, 0, 1, 26, 0}";
}
);
layerId = "BA196CD0-EE58-4274-B8DF-4393D3617A29";
paths = (
{
closed = 1;
nodes = (
"583 683 OFFCURVE",
"557 677 OFFCURVE",
"523 565 CURVE SMOOTH",
"508 515 OFFCURVE",
"512 576 OFFCURVE",
"493 506 CURVE",
"579 506 LINE",
"587 537 OFFCURVE",
"594 517 OFFCURVE",
"602 546 CURVE SMOOTH",
"615 594 OFFCURVE",
"619 597 OFFCURVE",
"687 597 CURVE",
"710 682 LINE"
);
}
);
width = 625;
},
{
anchors = (
{
name = _top_hook;
position = "{872, 66}";
},
{
name = center;
position = "{939, 299}";
}
);
components = (
{
name = Gsmall;
transform = "{1, 0, 0, 1, 160, 0}";
}
);
layerId = "BBDB329E-CE83-4304-A6B1-53EA5ACC004E";
paths = (
{
closed = 1;
nodes = (
"746 772 OFFCURVE",
"709 756 OFFCURVE",
"669 626 CURVE SMOOTH",
"652 571 OFFCURVE",
"659 596 OFFCURVE",
"632 494 CURVE",
"772 494 LINE",
"784 539 OFFCURVE",
"791 568 OFFCURVE",
"802 606 CURVE SMOOTH",
"812 642 OFFCURVE",
"796 627 OFFCURVE",
"881 631 CURVE",
"918 769 LINE"
);
}
);
width = 892;
}
);
unicode = 029B;
},
{
color = 7;
glyphname = a;
lastChange = "2019-10-11 15:56:55 +0000";
layers = (
{
anchors = (
{
name = bottom;
position = "{208, -113}";
},
{
name = ogonek;
position = "{509, 48}";
},
{
name = top;
position = "{478, 668}";
}
);
background = {
components = (
{
alignment = -1;
name = "";
transform = "{1, 0, 0, 1, 69, 150}";
},
{
alignment = -1;
name = "";
transform = "{1, 0, 0, 1, 69, 200}";
},
{
alignment = -1;
name = "";
transform = "{1, 0, 0, 1, 119, 50}";
},
{
alignment = -1;
name = "";
transform = "{1, 0, 0, 1, 119, 100}";
},
{
alignment = -1;
name = "";
transform = "{1, 0, 0, 1, 119, 150}";
},
{
alignment = -1;
name = "";
transform = "{1, 0, 0, 1, 119, 200}";
},
{
alignment = -1;
name = "";
transform = "{1, 0, 0, 1, 119, 250}";
},
{
alignment = -1;
name = "";
transform = "{1, 0, 0, 1, 119, 300}";
},
{
alignment = -1;
name = "";
transform = "{1, 0, 0, 1, 119, 350}";
},
{
alignment = -1;
name = "";
transform = "{1, 0, 0, 1, 169, 0}";
},
{
alignment = -1;
name = "";
transform = "{1, 0, 0, 1, 169, 50}";
},
{
alignment = -1;
name = "";
transform = "{1, 0, 0, 1, 169, 100}";
},
{
alignment = -1;
name = "";
transform = "{1, 0, 0, 1, 169, 400}";
},
{
alignment = -1;
name = "";
transform = "{1, 0, 0, 1, 219, 0}";
},
{
alignment = -1;
name = "";
transform = "{1, 0, 0, 1, 219, 50}";
},
{
alignment = -1;
name = "";
transform = "{1, 0, 0, 1, 219, 100}";
},
{
alignment = -1;
name = "";
transform = "{1, 0, 0, 1, 219, 450}";
},
{
alignment = -1;
name = "";
transform = "{1, 0, 0, 1, 269, 0}";
},
{
alignment = -1;
name = "";
transform = "{1, 0, 0, 1, 269, 50}";
},
{
alignment = -1;
name = "";
transform = "{1, 0, 0, 1, 269, 100}";
},
{
alignment = -1;
name = "";
transform = "{1, 0, 0, 1, 269, 450}";
},
{
alignment = -1;
name = "";
transform = "{1, 0, 0, 1, 319, 0}";
},
{
alignment = -1;
name = "";
transform = "{1, 0, 0, 1, 319, 50}";
},
{
alignment = -1;
name = "";
transform = "{1, 0, 0, 1, 319, 100}";
},
{
alignment = -1;
name = "";
transform = "{1, 0, 0, 1, 319, 450}";
},
{
alignment = -1;
name = "";
transform = "{1, 0, 0, 1, 369, 0}";
},
{
alignment = -1;
name = "";
transform = "{1, 0, 0, 1, 369, 50}";
},
{
alignment = -1;
name = "";
transform = "{1, 0, 0, 1, 369, 100}";
},
{
alignment = -1;
name = "";
transform = "{1, 0, 0, 1, 369, 450}";
},
{
alignment = -1;
name = "";
transform = "{1, 0, 0, 1, 419, 0}";
},
{
alignment = -1;
name = "";
transform = "{1, 0, 0, 1, 419, 50}";
},
{
alignment = -1;
name = "";
transform = "{1, 0, 0, 1, 419, 100}";
},
{
alignment = -1;
name = "";
transform = "{1, 0, 0, 1, 419, 450}";
},
{
alignment = -1;
name = "";
transform = "{1, 0, 0, 1, 469, 50}";
},
{
alignment = -1;
name = "";
transform = "{1, 0, 0, 1, 469, 100}";
},
{
alignment = -1;
name = "";
transform = "{1, 0, 0, 1, 469, 150}";
},
{
alignment = -1;
name = "";
transform = "{1, 0, 0, 1, 469, 200}";
},
{
alignment = -1;
name = "";
transform = "{1, 0, 0, 1, 469, 250}";
},
{
alignment = -1;
name = "";
transform = "{1, 0, 0, 1, 469, 300}";
},
{
alignment = -1;
name = "";
transform = "{1, 0, 0, 1, 469, 350}";
},
{
alignment = -1;
name = "";
transform = "{1, 0, 0, 1, 469, 400}";
},
{
alignment = -1;
name = "";
transform = "{1, 0, 0, 1, 469, 450}";
},
{
alignment = -1;
name = "";
transform = "{1, 0, 0, 1, 469, 500}";
},
{
alignment = -1;
name = "";
transform = "{1, 0, 0, 1, 519, 0}";
},
{
alignment = -1;
name = "";
transform = "{1, 0, 0, 1, 519, 50}";
},
{
alignment = -1;
name = "";
transform = "{1, 0, 0, 1, 519, 100}";
},
{
alignment = -1;
name = "";
transform = "{1, 0, 0, 1, 519, 150}";
},
{
alignment = -1;
name = "";
transform = "{1, 0, 0, 1, 519, 200}";
},
{
alignment = -1;
name = "";
transform = "{1, 0, 0, 1, 519, 250}";
},
{
alignment = -1;
name = "";
transform = "{1, 0, 0, 1, 519, 300}";
},
{
alignment = -1;
name = "";
transform = "{1, 0, 0, 1, 519, 350}";
}
);
paths = (
{
closed = 1;
nodes = (
"478 525 LINE",
"529 525 LINE",
"596 0 LINE",
"506 0 LINE",
"506 82 LINE",
"468 17 OFFCURVE",
"396 -14 OFFCURVE",
"316 -14 CURVE SMOOTH",
"154 -14 OFFCURVE",
"54 105 OFFCURVE",
"99 273 CURVE SMOOTH",
"138 419 OFFCURVE",
"225 525 OFFCURVE",
"316 525 CURVE SMOOTH",
"387 525 OFFCURVE",
"454 504 OFFCURVE",
"490 446 CURVE"
);
},
{
closed = 1;
nodes = (
"131 175 OFFCURVE",
"154 136 OFFCURVE",
"304 138 CURVE SMOOTH",
"485 140 OFFCURVE",
"489 170 OFFCURVE",
"489 299 CURVE SMOOTH",
"489 448 OFFCURVE",
"382 476 OFFCURVE",
"315 476 CURVE",
"254 476 OFFCURVE",
"195 434 OFFCURVE",
"161 296 CURVE SMOOTH"
);
}
);
};
hints = (
{
horizontal = 1;
origin = "{0, 8}";
target = "{1, 8}";
type = Stem;
},
{
horizontal = 1;
origin = "{1, 2}";
target = "{0, 2}";
type = Stem;
},
{
horizontal = 1;
origin = "{0, 12}";
target = "{1, 8}";
type = Stem;
},
{
place = "{59, 7}";
type = Stem;
}
);
layerId = "BA196CD0-EE58-4274-B8DF-4393D3617A29";
paths = (
{
closed = 1;
nodes = (
"538 504 OFFCURVE",
"445 525 OFFCURVE",
"374 525 CURVE SMOOTH",
"282 525 OFFCURVE",
"170 404 OFFCURVE",
"99 251 CURVE SMOOTH",
"29 101 OFFCURVE",
"102 -14 OFFCURVE",
"260 -14 CURVE SMOOTH",
"341 -14 OFFCURVE",
"422 17 OFFCURVE",
"478 82 CURVE",
"456 0 LINE",
"547 0 LINE",
"620 525 LINE",
"568 525 LINE",
"559 446 LINE"
);
},
{
closed = 1;
nodes = (
"250 374 OFFCURVE",
"321 450 OFFCURVE",
"382 450 CURVE SMOOTH",
"450 450 OFFCURVE",
"521 442 OFFCURVE",
"481 293 CURVE SMOOTH",
"446 164 OFFCURVE",
"434 132 OFFCURVE",
"251 132 CURVE SMOOTH",
"141 132 OFFCURVE",
"160 193 OFFCURVE",
"213 300 CURVE SMOOTH"
);
}
);
width = 724;
},
{
anchors = (
{
name = abovecomb;
position = "{502, 677}";
},
{
name = bottom;
position = "{314, -40}";
},
{
name = dotbelow;
position = "{273, -126}";
},
{
name = ogonek;
position = "{572, 0}";
},
{
name = top;
position = "{522, 668}";
}
);
background = {
components = (
{
alignment = -1;
name = "";
transform = "{1, 0, 0, 1, 58, 150}";
},
{
alignment = -1;
name = "";
transform = "{1, 0, 0, 1, 58, 200}";
},
{
alignment = -1;
name = "";
transform = "{1, 0, 0, 1, 108, 50}";
},
{
alignment = -1;
name = "";
transform = "{1, 0, 0, 1, 108, 100}";
},
{
alignment = -1;
name = "";
transform = "{1, 0, 0, 1, 108, 150}";
},
{
alignment = -1;
name = "";
transform = "{1, 0, 0, 1, 108, 200}";
},
{
alignment = -1;
name = "";
transform = "{1, 0, 0, 1, 108, 250}";
},
{
alignment = -1;
name = "";
transform = "{1, 0, 0, 1, 108, 300}";
},
{
alignment = -1;
name = "";
transform = "{1, 0, 0, 1, 108, 350}";
},
{
alignment = -1;
name = "";
transform = "{1, 0, 0, 1, 158, 0}";
},
{
alignment = -1;
name = "";
transform = "{1, 0, 0, 1, 158, 50}";
},
{
alignment = -1;
name = "";
transform = "{1, 0, 0, 1, 158, 100}";
},
{
alignment = -1;
name = "";
transform = "{1, 0, 0, 1, 158, 400}";
},
{
alignment = -1;
name = "";
transform = "{1, 0, 0, 1, 208, 0}";
},
{
alignment = -1;
name = "";
transform = "{1, 0, 0, 1, 208, 50}";
},
{
alignment = -1;
name = "";
transform = "{1, 0, 0, 1, 208, 100}";
},
{
alignment = -1;
name = "";
transform = "{1, 0, 0, 1, 208, 450}";
},
{
alignment = -1;
name = "";
transform = "{1, 0, 0, 1, 258, 0}";
},
{
alignment = -1;
name = "";
transform = "{1, 0, 0, 1, 258, 50}";
},
{
alignment = -1;
name = "";
transform = "{1, 0, 0, 1, 258, 100}";
},
{
alignment = -1;
name = "";
transform = "{1, 0, 0, 1, 258, 450}";
},
{
alignment = -1;
name = "";
transform = "{1, 0, 0, 1, 308, 0}";
},
{
alignment = -1;
name = "";
transform = "{1, 0, 0, 1, 308, 50}";
},
{
alignment = -1;
name = "";
transform = "{1, 0, 0, 1, 308, 100}";
},
{
alignment = -1;
name = "";
transform = "{1, 0, 0, 1, 308, 450}";
},
{
alignment = -1;
name = "";
transform = "{1, 0, 0, 1, 358, 0}";
},
{
alignment = -1;
name = "";
transform = "{1, 0, 0, 1, 358, 50}";
},
{
alignment = -1;
name = "";
transform = "{1, 0, 0, 1, 358, 100}";
},
{
alignment = -1;
name = "";
transform = "{1, 0, 0, 1, 358, 450}";
},
{
alignment = -1;
name = "";
transform = "{1, 0, 0, 1, 408, 0}";
},
{
alignment = -1;
name = "";
transform = "{1, 0, 0, 1, 408, 50}";
},
{
alignment = -1;
name = "";
transform = "{1, 0, 0, 1, 408, 100}";
},
{
alignment = -1;
name = "";
transform = "{1, 0, 0, 1, 408, 450}";
},
{
alignment = -1;
name = "";
transform = "{1, 0, 0, 1, 458, 50}";
},
{
alignment = -1;
name = "";
transform = "{1, 0, 0, 1, 458, 100}";
},
{
alignment = -1;
name = "";
transform = "{1, 0, 0, 1, 458, 150}";
},
{
alignment = -1;
name = "";
transform = "{1, 0, 0, 1, 458, 200}";
},
{
alignment = -1;
name = "";
transform = "{1, 0, 0, 1, 458, 250}";
},
{
alignment = -1;
name = "";
transform = "{1, 0, 0, 1, 458, 300}";
},
{
alignment = -1;
name = "";
transform = "{1, 0, 0, 1, 458, 350}";
},
{
alignment = -1;
name = "";
transform = "{1, 0, 0, 1, 458, 400}";
},
{
alignment = -1;
name = "";
transform = "{1, 0, 0, 1, 458, 450}";
},
{
alignment = -1;
name = "";
transform = "{1, 0, 0, 1, 458, 500}";
},
{
alignment = -1;
name = "";
transform = "{1, 0, 0, 1, 508, 0}";
},
{
alignment = -1;
name = "";
transform = "{1, 0, 0, 1, 508, 50}";
},
{
alignment = -1;
name = "";
transform = "{1, 0, 0, 1, 508, 100}";
},
{
alignment = -1;
name = "";
transform = "{1, 0, 0, 1, 508, 150}";
},
{
alignment = -1;
name = "";
transform = "{1, 0, 0, 1, 508, 200}";
},
{
alignment = -1;
name = "";
transform = "{1, 0, 0, 1, 508, 250}";
},
{
alignment = -1;
name = "";
transform = "{1, 0, 0, 1, 508, 300}";
},
{
alignment = -1;
name = "";
transform = "{1, 0, 0, 1, 508, 350}";
}
);
paths = (
{
closed = 1;
nodes = (
"467 525 LINE",
"518 525 LINE",
"585 0 LINE",
"495 0 LINE",
"495 82 LINE",
"457 17 OFFCURVE",
"385 -14 OFFCURVE",
"305 -14 CURVE SMOOTH",
"143 -14 OFFCURVE",
"43 105 OFFCURVE",
"88 273 CURVE SMOOTH",
"127 419 OFFCURVE",
"214 525 OFFCURVE",
"305 525 CURVE SMOOTH",
"376 525 OFFCURVE",
"443 504 OFFCURVE",
"479 446 CURVE"
);
},
{
closed = 1;
nodes = (
"120 175 OFFCURVE",
"143 136 OFFCURVE",
"293 138 CURVE SMOOTH",
"474 140 OFFCURVE",
"478 170 OFFCURVE",
"478 299 CURVE SMOOTH",
"478 448 OFFCURVE",
"371 476 OFFCURVE",
"304 476 CURVE",
"243 476 OFFCURVE",
"184 434 OFFCURVE",
"150 296 CURVE SMOOTH"
);
}
);
};
layerId = "BBDB329E-CE83-4304-A6B1-53EA5ACC004E";
paths = (
{
closed = 1;
nodes = (
"322 -21 OFFCURVE",
"384 -3 OFFCURVE",
"436 31 CURVE",
"425 -7 LINE",
"575 -7 LINE",
"655 552 LINE",
"544 552 LINE",
"544 520 LINE",
"513 541 OFFCURVE",
"469 552 OFFCURVE",
"416 552 CURVE SMOOTH",
"311 552 OFFCURVE",
"164 434 OFFCURVE",
"97 256 CURVE SMOOTH",
"48 125 OFFCURVE",
"85 -21 OFFCURVE",
"257 -21 CURVE SMOOTH"
);
},
{
closed = 1;
nodes = (
"178 165 OFFCURVE",
"172 178 OFFCURVE",
"230 290 CURVE SMOOTH",
"290 405 OFFCURVE",
"335 449 OFFCURVE",
"387 449 CURVE SMOOTH",
"483 449 OFFCURVE",
"522 396 OFFCURVE",
"496 299 CURVE SMOOTH",
"462 173 OFFCURVE",
"453 165 OFFCURVE",
"300 165 CURVE SMOOTH"
);
}
);
width = 754;
}
);
leftKerningGroup = Round;
unicode = 0061;
},
{
color = 7;
glyphname = b;
lastChange = "2019-10-11 15:56:55 +0000";
layers = (
{
anchors = (
{
name = _hook_top;
position = "{282, 778}";
},
{
name = bottom;
position = "{247, -131}";
},
{
name = center;
position = "{286, 650}";
},
{
name = top;
position = "{308, 874}";
},
{
name = top_hook;
position = "{267, 714}";
}
);
hints = (
{
place = "{28, -6}";
type = Stem;
}
);
layerId = "BA196CD0-EE58-4274-B8DF-4393D3617A29";
paths = (
{
closed = 1;
nodes = (
"424 -15 OFFCURVE",
"544 109 OFFCURVE",
"584 273 CURVE SMOOTH",
"627 447 OFFCURVE",
"559 557 OFFCURVE",
"426 552 CURVE SMOOTH",
"317 548 OFFCURVE",
"270 453 OFFCURVE",
"285 514 CURVE SMOOTH",
"370 852 LINE",
"255 852 LINE",
"188 489 OFFCURVE",
"97 144 OFFCURVE",
"106 99 CURVE",
"113 27 OFFCURVE",
"212 -15 OFFCURVE",
"290 -15 CURVE SMOOTH"
);
},
{
closed = 1;
nodes = (
"223 146 OFFCURVE",
"213 207 OFFCURVE",
"239 289 CURVE SMOOTH",
"272 394 OFFCURVE",
"344 468 OFFCURVE",
"440 468 CURVE SMOOTH",
"527 468 OFFCURVE",
"561 412 OFFCURVE",
"521 293 CURVE SMOOTH",
"487 191 OFFCURVE",
"436 152 OFFCURVE",
"354 146 CURVE"
);
}
);
width = 688;
},
{
anchors = (
{
name = _hook_top;
position = "{316, 778}";
},
{
name = bottom;
position = "{231, -189}";
},
{
name = center;
position = "{300, 619}";
},
{
name = top;
position = "{337, 862}";
},
{
name = top_hook;
position = "{297, 717}";
}
);
hints = (
{
place = "{100, 66}";
type = Stem;
}
);
layerId = "BBDB329E-CE83-4304-A6B1-53EA5ACC004E";
paths = (
{
closed = 1;
nodes = (
"467 -22 OFFCURVE",
"606 107 OFFCURVE",
"655 273 CURVE SMOOTH",
"703 435 OFFCURVE",
"623 559 OFFCURVE",
"477 559 CURVE SMOOTH",
"404 559 OFFCURVE",
"315 509 OFFCURVE",
"306 474 CURVE",
"399 820 LINE",
"247 820 LINE",
"180 447 OFFCURVE",
"103 145 OFFCURVE",
"112 89 CURVE",
"121 13 OFFCURVE",
"178 -22 OFFCURVE",
"316 -22 CURVE SMOOTH"
);
},
{
closed = 1;
nodes = (
"289 173 OFFCURVE",
"274 193 OFFCURVE",
"300 289 CURVE SMOOTH",
"325 383 OFFCURVE",
"389 441 OFFCURVE",
"467 441 CURVE SMOOTH",
"541 441 OFFCURVE",
"571 386 OFFCURVE",
"548 295 CURVE",
"516 216 OFFCURVE",
"469 179 OFFCURVE",
"394 173 CURVE"
);
}
);
width = 759;
}
);
rightKerningGroup = RoundRight;
unicode = 0062;
},
{
color = 7;
glyphname = c;
lastChange = "2019-10-14 03:33:14 +0000";
layers = (
{
anchors = (
{
name = bottom;
position = "{249, -53}";
},
{
name = top;
position = "{413, 602}";
},
{
name = top_hook;
position = "{491, 533}";
}
);
layerId = "BA196CD0-EE58-4274-B8DF-4393D3617A29";
paths = (
{
closed = 1;
nodes = (
"522 555 OFFCURVE",
"486 560 OFFCURVE",
"459 560 CURVE SMOOTH",
"287 560 OFFCURVE",
"148 451 OFFCURVE",
"100 273 CURVE SMOOTH",
"53 97 OFFCURVE",
"89 0 OFFCURVE",
"295 -14 CURVE SMOOTH",
"355 -18 OFFCURVE",
"413 -2 OFFCURVE",
"470 21 CURVE",
"396 135 LINE",
"274 73 OFFCURVE",
"176 143 OFFCURVE",
"201 273 CURVE",
"237 406 OFFCURVE",
"301 489 OFFCURVE",
"419 489 CURVE SMOOTH",
"448 489 OFFCURVE",
"493 487 OFFCURVE",
"522 477 CURVE",
"541 548 LINE"
);
}
);
width = 641;
},
{
anchors = (
{
name = bottom;
position = "{293, 0}";
},
{
name = top;
position = "{449, 606}";
},
{
name = top_hook;
position = "{518, 533}";
}
);
layerId = "BBDB329E-CE83-4304-A6B1-53EA5ACC004E";
paths = (
{
closed = 1;
nodes = (
"379 -26 OFFCURVE",
"451 -8 OFFCURVE",
"539 33 CURVE",
"437 191 LINE",
"325 119 OFFCURVE",
"234 177 OFFCURVE",
"255 274 CURVE",
"291 405 OFFCURVE",
"347 462 OFFCURVE",
"439 462 CURVE SMOOTH",
"479 462 OFFCURVE",
"513 458 OFFCURVE",
"567 440 CURVE",
"600 563 LINE",
"596 576 OFFCURVE",
"536 587 OFFCURVE",
"493 587 CURVE SMOOTH",
"305 587 OFFCURVE",
"145 466 OFFCURVE",
"100 273 CURVE SMOOTH",
"64 117 OFFCURVE",
"108 -6 OFFCURVE",
"312 -21 CURVE SMOOTH"
);
}
);
width = 707;
}
);
leftKerningGroup = Round;
unicode = 0063;
},
{
glyphname = ccurl;
lastChange = "2019-10-04 23:37:49 +0000";
layers = (
{
anchors = (
{
name = _curl;
position = "{178, 336}";
},
{
name = bottom;
position = "{320, 0}";
},
{
name = top;
position = "{465, 540}";
}
);
layerId = "BA196CD0-EE58-4274-B8DF-4393D3617A29";
paths = (
{
closed = 1;
nodes = (
"536 555 OFFCURVE",
"500 560 OFFCURVE",
"473 560 CURVE SMOOTH",
"301 560 OFFCURVE",
"162 451 OFFCURVE",
"114 273 CURVE SMOOTH",
"67 97 OFFCURVE",
"101 -14 OFFCURVE",
"309 -14 CURVE SMOOTH",
"435 -14 OFFCURVE",
"594 83 OFFCURVE",
"621 183 CURVE SMOOTH",
"632 223 OFFCURVE",
"621 263 OFFCURVE",
"580 298 CURVE SMOOTH",
"551 323 OFFCURVE",
"518 334 OFFCURVE",
"487 334 CURVE SMOOTH",
"411 334 OFFCURVE",
"341 269 OFFCURVE",
"316 176 CURVE SMOOTH",
"279 40 OFFCURVE",
"248 -79 OFFCURVE",
"215 -200 CURVE",
"327 -200 LINE",
"343 -137 OFFCURVE",
"356 -75 OFFCURVE",
"369 -10 CURVE SMOOTH",
"379 42 OFFCURVE",
"389 95 OFFCURVE",
"405 152 CURVE SMOOTH",
"422 213 OFFCURVE",
"449 239 OFFCURVE",
"477 239 CURVE SMOOTH",
"491 239 OFFCURVE",
"505 233 OFFCURVE",
"518 220 CURVE SMOOTH",
"524 214 OFFCURVE",
"525 206 OFFCURVE",
"523 197 CURVE SMOOTH",
"514 157 OFFCURVE",
"426 97 OFFCURVE",
"313 97 CURVE SMOOTH",
"201 97 OFFCURVE",
"197 203 OFFCURVE",
"215 273 CURVE",
"251 406 OFFCURVE",
"315 489 OFFCURVE",
"433 489 CURVE SMOOTH",
"462 489 OFFCURVE",
"507 487 OFFCURVE",
"536 477 CURVE",
"555 548 LINE"
);
}
);
width = 693;
},
{
anchors = (
{
name = _curl;
position = "{117, 269}";
},
{
name = bottom;
position = "{320, 0}";
},
{
name = top;
position = "{465, 540}";
}
);
layerId = "BBDB329E-CE83-4304-A6B1-53EA5ACC004E";
paths = (
{
closed = 1;
nodes = (
"573 576 OFFCURVE",
"513 587 OFFCURVE",
"470 587 CURVE SMOOTH",
"282 587 OFFCURVE",
"128 464 OFFCURVE",
"77 273 CURVE SMOOTH",
"20 60 OFFCURVE",
"87 -41 OFFCURVE",
"292 -41 CURVE SMOOTH",
"435 -41 OFFCURVE",
"607 69 OFFCURVE",
"638 183 CURVE SMOOTH",
"652 235 OFFCURVE",
"636 283 OFFCURVE",
"591 320 CURVE SMOOTH",
"560 345 OFFCURVE",
"522 361 OFFCURVE",
"484 361 CURVE SMOOTH",
"393 361 OFFCURVE",
"308 284 OFFCURVE",
"279 176 CURVE SMOOTH",
"240 30 OFFCURVE",
"206 -97 OFFCURVE",
"171 -227 CURVE",
"337 -227 LINE",
"357 -154 OFFCURVE",
"372 -82 OFFCURVE",
"387 -8 CURVE SMOOTH",
"397 43 OFFCURVE",
"407 96 OFFCURVE",
"422 152 CURVE SMOOTH",
"433 192 OFFCURVE",
"448 212 OFFCURVE",
"459 212 CURVE SMOOTH",
"467 212 OFFCURVE",
"475 208 OFFCURVE",
"486 198 CURVE",
"488 197 OFFCURVE",
"487 202 OFFCURVE",
"486 197 CURVE SMOOTH",
"479 164 OFFCURVE",
"386 124 OFFCURVE",
"310 124 CURVE SMOOTH",
"239 124 OFFCURVE",
"209 182 OFFCURVE",
"232 273 CURVE",
"268 405 OFFCURVE",
"324 462 OFFCURVE",
"416 462 CURVE SMOOTH",
"456 462 OFFCURVE",
"490 458 OFFCURVE",
"544 440 CURVE",
"577 563 LINE"
);
}
);
width = 693;
}
);
unicode = 0255;
},
{
color = 7;
glyphname = d;
lastChange = "2019-10-11 15:56:55 +0000";
layers = (
{
anchors = (
{
name = bottom;
position = "{207, -115}";
},
{
name = bottom_hook;
position = "{476, 27}";
},
{
name = center;
position = "{398, 273}";
},
{
name = circumflexbelow;
position = "{202, -105}";
},
{
name = croat;
position = "{678, 678}";
},
{
name = dotbelow;
position = "{200, -104}";
},
{
name = ezh;
position = "{652, 604}";
},
{
name = right;
position = "{764, 670}";
},
{
name = right_el;
position = "{773, 526}";
},
{
name = top;
position = "{403, 560}";
},
{
name = top_hook;
position = "{705, 753}";
},
{
name = topright;
position = "{727, 500}";
}
);
layerId = "BA196CD0-EE58-4274-B8DF-4393D3617A29";
paths = (
{
closed = 1;
nodes = (
"528 505 OFFCURVE",
"477 536 OFFCURVE",
"397 536 CURVE SMOOTH",
"263 536 OFFCURVE",
"140 421 OFFCURVE",
"100 273 CURVE SMOOTH",
"54 101 OFFCURVE",
"89 -19 OFFCURVE",
"249 -14 CURVE SMOOTH",
"331 -11 OFFCURVE",
"397 17 OFFCURVE",
"452 82 CURVE",
"430 0 LINE",
"525 -2 LINE",
"577 235 LINE",
"772 852 LINE",
"681 852 LINE",
"548 440 LINE"
);
},
{
closed = 1;
nodes = (
"197 391 OFFCURVE",
"276 471 OFFCURVE",
"373 471 CURVE SMOOTH",
"469 471 OFFCURVE",
"496 398 OFFCURVE",
"467 290 CURVE SMOOTH",
"435 169 OFFCURVE",
"380 149 OFFCURVE",
"284 149 CURVE SMOOTH",
"188 149 OFFCURVE",
"143 188 OFFCURVE",
"168 283 CURVE SMOOTH"
);
}
);
width = 721;
},
{
anchors = (
{
name = bottom;
position = "{263, -42}";
},
{
name = bottom_hook;
position = "{503, 27}";
},
{
name = center;
position = "{425, 273}";
},
{
name = circumflexbelow;
position = "{273, -74}";
},
{
name = croat;
position = "{680, 624}";
},
{
name = dotbelow;
position = "{255, -71}";
},
{
name = ezh;
position = "{679, 601}";
},
{
name = right;
position = "{791, 674}";
},
{
name = right_el;
position = "{800, 526}";
},
{
name = top;
position = "{430, 560}";
},
{
name = top_hook;
position = "{702, 700}";
},
{
name = topright;
position = "{754, 500}";
}
);
layerId = "BBDB329E-CE83-4304-A6B1-53EA5ACC004E";
paths = (
{
closed = 1;
nodes = (
"539 546 OFFCURVE",
"493 563 OFFCURVE",
"431 563 CURVE SMOOTH",
"285 563 OFFCURVE",
"148 437 OFFCURVE",
"100 273 CURVE SMOOTH",
"44 87 OFFCURVE",
"106 -28 OFFCURVE",
"270 -23 CURVE SMOOTH",
"332 -21 OFFCURVE",
"385 3 OFFCURVE",
"432 44 CURVE",
"432 0 LINE",
"573 0 LINE",
"631 235 LINE",
"815 827 LINE",
"669 827 LINE",
"570 512 LINE"
);
},
{
closed = 1;
nodes = (
"249 382 OFFCURVE",
"316 444 OFFCURVE",
"393 444 CURVE SMOOTH",
"468 444 OFFCURVE",
"494 391 OFFCURVE",
"467 290 CURVE SMOOTH",
"442 197 OFFCURVE",
"413 176 OFFCURVE",
"318 176 CURVE SMOOTH",
"231 176 OFFCURVE",
"203 209 OFFCURVE",
"223 283 CURVE SMOOTH"
);
}
);
width = 770;
}
);
leftKerningGroup = Round;
unicode = 0064;
},
{
glyphname = dzaltone;
lastChange = "2019-09-05 22:37:16 +0000";
layers = (
{
components = (
{
name = d;
},
{
name = z;
transform = "{1, 0, 0, 1, 497, -13}";
}
);
layerId = "BA196CD0-EE58-4274-B8DF-4393D3617A29";
paths = (
{
closed = 1;
nodes = (
"650 469 LINE",
"856 469 LINE",
"874 536 LINE",
"668 536 LINE"
);
}
);
width = 1179;
},
{
components = (
{
name = d;
},
{
name = z;
transform = "{1, 0, 0, 1, 497, -13}";
}
);
layerId = "BBDB329E-CE83-4304-A6B1-53EA5ACC004E";
paths = (
{
closed = 1;
nodes = (
"615 442 LINE",
"876 442 LINE",
"908 563 LINE",
"648 563 LINE"
);
}
);
width = 1179;
}
);
unicode = 02A3;
},
{
glyphname = dzcurl;
lastChange = "2019-09-05 22:37:16 +0000";
layers = (
{
components = (
{
name = d;
},
{
name = zcurl;
transform = "{1, 0, 0, 1, 508, -1}";
}
);
layerId = "BA196CD0-EE58-4274-B8DF-4393D3617A29";
paths = (
{
closed = 1;
nodes = (
"655 481 LINE",
"866 481 LINE",
"884 548 LINE",
"673 548 LINE"
);
}
);
width = 1241;
},
{
components = (
{
name = d;
},
{
name = zcurl;
transform = "{1, 0, 0, 1, 508, -1}";
}
);
layerId = "BBDB329E-CE83-4304-A6B1-53EA5ACC004E";
paths = (
{
closed = 1;
nodes = (
"621 454 LINE",
"886 454 LINE",
"919 575 LINE",
"653 575 LINE"
);
}
);
width = 1241;
}
);
unicode = 02A5;
},
{
color = 7;
glyphname = e;
lastChange = "2019-10-17 20:21:57 +0000";
layers = (
{
anchors = (
{
name = _hook;
position = "{447, 539}";
},
{
name = bottom;
position = "{274, -97}";
},
{
name = center;
position = "{136, 315}";
},
{
name = dotbelow;
position = "{287, -86}";
},
{
name = ogonek;
position = "{434, 56}";
},
{
name = righthook;
position = "{600, 274}";
},
{
name = top;
position = "{466, 688}";
}
);
layerId = "BA196CD0-EE58-4274-B8DF-4393D3617A29";
paths = (
{
closed = 1;
nodes = (
"559 554 OFFCURVE",
"449 563 CURVE",
"282 563 OFFCURVE",
"154 447 OFFCURVE",
"99 268 CURVE",
"52 95 OFFCURVE",
"134 -14 OFFCURVE",
"310 -14 CURVE SMOOTH",
"382 -14 OFFCURVE",
"451 0 OFFCURVE",
"524 28 CURVE",
"557 178 LINE",
"471 145 OFFCURVE",
"425 116 OFFCURVE",
"349 112 CURVE SMOOTH",
"208 105 OFFCURVE",
"160 192 OFFCURVE",
"186 287 CURVE",
"610 315 LINE",
"626 496 OFFCURVE"
);
},
{
closed = 1;
nodes = (
"250 431 OFFCURVE",
"335 498 OFFCURVE",
"436 498 CURVE SMOOTH",
"526 498 OFFCURVE",
"555 446 OFFCURVE",
"549 385 CURVE",
"232 365 LINE"
);
}
);
width = 703;
},
{
anchors = (
{
name = _hook;
position = "{472, 529}";
},
{
name = bottom;
position = "{313, -75}";
},
{
name = center;
position = "{164, 267}";
},
{
name = dotbelow;
position = "{322, -22}";
},
{
name = ogonek;
position = "{410, -7}";
},
{
name = righthook;
position = "{628, 274}";
},
{
name = top;
position = "{511, 758}";
}
);
layerId = "BBDB329E-CE83-4304-A6B1-53EA5ACC004E";
paths = (
{
closed = 1;
nodes = (
"687 483 OFFCURVE",
"634 575 OFFCURVE",
"486 587 CURVE",
"484 587 LINE SMOOTH",
"306 587 OFFCURVE",
"160 466 OFFCURVE",
"100 269 CURVE",
"99 268 LINE SMOOTH",
"49 80 OFFCURVE",
"140 -41 OFFCURVE",
"331 -41 CURVE SMOOTH",
"410 -41 OFFCURVE",
"490 -24 OFFCURVE",
"575 11 CURVE",
"624 195 LINE",
"514 145 OFFCURVE",
"473 150 OFFCURVE",
"383 146 CURVE SMOOTH",
"280 142 OFFCURVE",
"227 186 OFFCURVE",
"236 262 CURVE",
"663 290 LINE"
);
},
{
closed = 1;
nodes = (
"309 429 OFFCURVE",
"363 496 OFFCURVE",
"457 496 CURVE SMOOTH",
"530 496 OFFCURVE",
"548 455 OFFCURVE",
"557 411 CURVE",
"280 382 LINE"
);
}
);
width = 762;
}
);
leftKerningGroup = Round;
unicode = 0065;
},
{
glyphname = eopen;
lastChange = "2019-10-03 23:06:15 +0000";
layers = (
{
anchors = (
{
name = top;
position = "{336, 582}";
}
);
layerId = "BA196CD0-EE58-4274-B8DF-4393D3617A29";
paths = (
{
closed = 1;
nodes = (
"225 -12 OFFCURVE",
"397 17 OFFCURVE",
"385 189 CURVE",
"302 182 LINE",
"301 79 OFFCURVE",
"249 78 OFFCURVE",
"200 79 CURVE SMOOTH",
"131 80 OFFCURVE",
"116 120 OFFCURVE",
"128 165 CURVE",
"140 210 OFFCURVE",
"188 242 OFFCURVE",
"262 242 CURVE SMOOTH",
"285 242 LINE",
"287 295 LINE",
"264 295 LINE",
"197 295 OFFCURVE",
"155 314 OFFCURVE",
"171 377 CURVE SMOOTH",
"185 431 OFFCURVE",
"249 456 OFFCURVE",
"318 456 CURVE SMOOTH",
"354 456 OFFCURVE",
"390 438 OFFCURVE",
"373 379 CURVE",
"421 388 LINE",
"444 476 OFFCURVE",
"363 500 OFFCURVE",
"323 500 CURVE SMOOTH",
"220 500 OFFCURVE",
"143 451 OFFCURVE",
"122 372 CURVE SMOOTH",
"108 318 OFFCURVE",
"126 286 OFFCURVE",
"184 263 CURVE",
"102 252 OFFCURVE",
"67 210 OFFCURVE",
"50 147 CURVE SMOOTH",
"21 40 OFFCURVE",
"89 -12 OFFCURVE",
"182 -12 CURVE SMOOTH"
);
}
);
width = 497;
},
{
anchors = (
{
name = top;
position = "{395, 520}";
}
);
layerId = "BBDB329E-CE83-4304-A6B1-53EA5ACC004E";
paths = (
{
closed = 1;
nodes = (
"293 -26 OFFCURVE",
"491 7 OFFCURVE",
"469 204 CURVE",
"357 195 LINE",
"359 93 OFFCURVE",
"326 92 OFFCURVE",
"273 93 CURVE SMOOTH",
"222 94 OFFCURVE",
"200 120 OFFCURVE",
"212 165 CURVE SMOOTH",
"222 204 OFFCURVE",
"266 228 OFFCURVE",
"329 228 CURVE SMOOTH",
"369 228 LINE",
"373 309 LINE",
"337 309 LINE SMOOTH",
"268 309 OFFCURVE",
"243 330 OFFCURVE",
"256 377 CURVE SMOOTH",
"266 417 OFFCURVE",
"314 442 OFFCURVE",
"384 442 CURVE SMOOTH",
"430 442 OFFCURVE",
"444 413 OFFCURVE",
"422 361 CURVE",
"502 376 LINE",
"539 485 OFFCURVE",
"441 514 OFFCURVE",
"396 514 CURVE SMOOTH",
"285 514 OFFCURVE",
"201 459 OFFCURVE",
"177 372 CURVE SMOOTH",
"165 325 OFFCURVE",
"175 291 OFFCURVE",
"211 267 CURVE",
"157 249 OFFCURVE",
"123 210 OFFCURVE",
"106 147 CURVE SMOOTH",
"78 43 OFFCURVE",
"134 -26 OFFCURVE",
"249 -26 CURVE SMOOTH"
);
}
);
width = 497;
}
);
unicode = 025B;
},
{
glyphname = eopenreversedclosed;
lastChange = "2019-09-05 22:37:16 +0000";
layers = (
{
layerId = "BA196CD0-EE58-4274-B8DF-4393D3617A29";
paths = (
{
closed = 1;
nodes = (
"113 119 OFFCURVE",
"149 -4 OFFCURVE",
"327 -12 CURVE SMOOTH",
"419 -16 OFFCURVE",
"516 40 OFFCURVE",
"544 147 CURVE SMOOTH",
"561 210 OFFCURVE",
"549 252 OFFCURVE",
"472 263 CURVE",
"568 290 OFFCURVE",
"579 318 OFFCURVE",
"594 372 CURVE SMOOTH",
"615 451 OFFCURVE",
"564 500 OFFCURVE",
"461 500 CURVE SMOOTH",
"261 500 OFFCURVE",
"180 369 OFFCURVE",
"148 249 CURVE SMOOTH"
);
},
{
closed = 1;
nodes = (
"236 346 OFFCURVE",
"315 456 OFFCURVE",
"442 456 CURVE SMOOTH",
"511 456 OFFCURVE",
"561 431 OFFCURVE",
"546 377 CURVE SMOOTH",
"530 314 OFFCURVE",
"477 295 OFFCURVE",
"410 295 CURVE SMOOTH",
"387 295 LINE",
"361 242 LINE",
"383 242 LINE SMOOTH",
"458 243 OFFCURVE",
"489 210 OFFCURVE",
"476 165 CURVE SMOOTH",
"464 120 OFFCURVE",
"427 79 OFFCURVE",
"359 79 CURVE SMOOTH",
"207 79 OFFCURVE",
"195 194 OFFCURVE",
"211 252 CURVE SMOOTH"
);
}
);
width = 586;
},
{
layerId = "BBDB329E-CE83-4304-A6B1-53EA5ACC004E";
paths = (
{
closed = 1;
nodes = (
"75 79 OFFCURVE",
"150 -31 OFFCURVE",
"319 -39 CURVE SMOOTH",
"436 -44 OFFCURVE",
"541 33 OFFCURVE",
"572 147 CURVE SMOOTH",
"587 203 OFFCURVE",
"579 243 OFFCURVE",
"548 266 CURVE",
"587 289 OFFCURVE",
"607 319 OFFCURVE",
"621 372 CURVE SMOOTH",
"646 467 OFFCURVE",
"586 527 OFFCURVE",
"468 527 CURVE SMOOTH",
"292 527 OFFCURVE",
"168 428 OFFCURVE",
"120 249 CURVE SMOOTH"
);
},
{
closed = 1;
nodes = (
"267 358 OFFCURVE",
"344 429 OFFCURVE",
"435 429 CURVE SMOOTH",
"498 429 OFFCURVE",
"527 408 OFFCURVE",
"519 377 CURVE SMOOTH",
"509 338 OFFCURVE",
"480 322 OFFCURVE",
"418 322 CURVE SMOOTH",
"372 322 LINE",
"319 215 LINE",
"376 215 LINE SMOOTH",
"432 216 OFFCURVE",
"458 196 OFFCURVE",
"449 165 CURVE SMOOTH",
"439 127 OFFCURVE",
"411 106 OFFCURVE",
"366 106 CURVE SMOOTH",
"269 106 OFFCURVE",
"216 168 OFFCURVE",
"238 252 CURVE SMOOTH"
);
}
);
width = 586;
}
);
unicode = 025E;
},
{
glyphname = esh;
lastChange = "2019-09-18 20:30:11 +0000";
layers = (
{
layerId = "BA196CD0-EE58-4274-B8DF-4393D3617A29";
paths = (
{
closed = 1;
nodes = (
"1016 879 OFFCURVE",
"981 886 OFFCURVE",
"940 886 CURVE SMOOTH",
"828 886 OFFCURVE",
"729 811 OFFCURVE",
"670 677 CURVE SMOOTH",
"556 416 LINE",
"433 121 LINE",
"375 -1 OFFCURVE",
"327 -46 OFFCURVE",
"256 -46 CURVE SMOOTH",
"219 -46 OFFCURVE",
"188 -34 OFFCURVE",
"156 -10 CURVE",
"-6 -84 LINE",
"25 -176 OFFCURVE",
"141 -208 OFFCURVE",
"183 -208 CURVE SMOOTH",
"313 -208 OFFCURVE",
"406 -217 OFFCURVE",
"554 148 CURVE SMOOTH",
"662 416 LINE",
"774 678 LINE SMOOTH",
"816 775 OFFCURVE",
"871 818 OFFCURVE",
"944 818 CURVE SMOOTH",
"976 818 OFFCURVE",
"1002 808 OFFCURVE",
"1025 786 CURVE",
"1047 866 LINE"
);
}
);
width = 868;
},
{
layerId = "BBDB329E-CE83-4304-A6B1-53EA5ACC004E";
paths = (
{
closed = 1;
nodes = (
"984 778 OFFCURVE",
"945 787 OFFCURVE",
"900 787 CURVE SMOOTH",
"786 787 OFFCURVE",
"684 710 OFFCURVE",
"627 579 CURVE SMOOTH",
"526 348 LINE",
"417 88 LINE",
"373 -8 OFFCURVE",
"340 -38 OFFCURVE",
"293 -38 CURVE SMOOTH",
"264 -38 OFFCURVE",
"238 -27 OFFCURVE",
"209 -2 CURVE",
"21 -86 LINE",
"37 -198 OFFCURVE",
"170 -235 OFFCURVE",
"215 -235 CURVE SMOOTH",
"329 -235 OFFCURVE",
"434 -245 OFFCURVE",
"576 103 CURVE SMOOTH",
"672 340 LINE",
"771 572 LINE SMOOTH",
"802 643 OFFCURVE",
"837 673 OFFCURVE",
"887 673 CURVE SMOOTH",
"926 673 OFFCURVE",
"945 657 OFFCURVE",
"978 611 CURVE",
"1018 760 LINE"
);
}
);
width = 868;
}
);
unicode = 0283;
},
{
glyphname = ezh;
lastChange = "2019-09-05 22:37:16 +0000";
layers = (
{
anchors = (
{
name = _ezh;
position = "{263, 623}";
},
{
name = bottom;
position = "{351, 0}";
},
{
name = top;
position = "{526, 693}";
}
);
layerId = "BA196CD0-EE58-4274-B8DF-4393D3617A29";
paths = (
{
closed = 1;
nodes = (
"574 406 OFFCURVE",
"605 427 OFFCURVE",
"723 527 CURVE",
"734 598 OFFCURVE",
"736 598 OFFCURVE",
"742 667 CURVE",
"663 671 OFFCURVE",
"362 667 OFFCURVE",
"263 667 CURVE",
"237 573 LINE",
"386 572 OFFCURVE",
"522 572 OFFCURVE",
"636 573 CURVE",
"513 468 OFFCURVE",
"448 430 OFFCURVE",
"306 325 CURVE",
"281 232 LINE",
"426 245 OFFCURVE",
"531 205 OFFCURVE",
"517 126 CURVE",
"480 -23 OFFCURVE",
"322 -111 OFFCURVE",
"216 27 CURVE",
"60 -77 LINE",
"155 -202 OFFCURVE",
"282 -200 OFFCURVE",
"315 -200 CURVE SMOOTH",
"531 -200 OFFCURVE",
"608 -57 OFFCURVE",
"638 107 CURVE SMOOTH",
"655 203 OFFCURVE",
"576 305 OFFCURVE",
"457 314 CURVE"
);
}
);
width = 693;
},
{
anchors = (
{
name = _ezh;
position = "{263, 623}";
},
{
name = bottom;
position = "{351, 0}";
},
{
name = top;
position = "{526, 693}";
}
);
layerId = "BBDB329E-CE83-4304-A6B1-53EA5ACC004E";
paths = (
{
closed = 1;
nodes = (
"600 395 OFFCURVE",
"638 423 OFFCURVE",
"738 509 CURVE",
"751 530 LINE",
"757 572 OFFCURVE",
"764 602 OFFCURVE",
"771 672 CURVE",
"751 694 LINE",
"660 699 OFFCURVE",
"287 693 OFFCURVE",
"243 694 CURVE",
"203 546 LINE",
"334 545 OFFCURVE",
"458 545 OFFCURVE",
"566 546 CURVE",
"474 472 OFFCURVE",
"408 431 OFFCURVE",
"282 337 CURVE",
"246 202 LINE",
"397 222 OFFCURVE",
"499 186 OFFCURVE",
"489 124 CURVE",
"451 -26 OFFCURVE",
"309 -65 OFFCURVE",
"228 64 CURVE",
"20 -75 LINE",
"122 -229 OFFCURVE",
"273 -227 OFFCURVE",
"308 -227 CURVE SMOOTH",
"506 -227 OFFCURVE",
"625 -114 OFFCURVE",
"666 109 CURVE SMOOTH",
"684 207 OFFCURVE",
"617 301 OFFCURVE",
"518 331 CURVE"
);
}
);
width = 693;
}
);
unicode = 0292;
},
{
color = 7;
glyphname = f;
lastChange = "2019-10-16 22:21:53 +0000";
layers = (
{
anchors = (
{
name = _right;
position = "{150, 498}";
},
{
name = bottom;
position = "{194, 0}";
},
{
name = center;
position = "{229, 263}";
},
{
name = right;
position = "{616, 498}";
},
{
name = top;
position = "{409, 800}";
}
);
layerId = "BA196CD0-EE58-4274-B8DF-4393D3617A29";
paths = (
{
closed = 1;
nodes = (
"386 785 OFFCURVE",
"317 773 OFFCURVE",
"259 559 CURVE",
"177 558 LINE",
"154 469 LINE",
"235 470 LINE",
"97 -3 LINE",
"229 -3 LINE",
"336 470 LINE",
"481 470 LINE",
"505 559 LINE",
"348 557 LINE",
"349 596 OFFCURVE",
"408 718 OFFCURVE",
"472 718 CURVE SMOOTH",
"542 718 LINE",
"562 800 LINE",
"481 793 LINE SMOOTH"
);
}
);
width = 532;
},
{
anchors = (
{
name = _right;
position = "{135, 500}";
},
{
name = bottom;
position = "{218, 0}";
},
{
name = center;
position = "{284, 265}";
},
{
name = right;
position = "{656, 499}";
},
{
name = top;
position = "{433, 800}";
}
);
hints = (
{
horizontal = 1;
origin = "{0, 6}";
target = up;
type = BottomGhost;
},
{
horizontal = 1;
origin = "{0, 3}";
target = "{0, 4}";
type = Stem;
},
{
horizontal = 1;
origin = "{0, 14}";
target = "{0, 17}";
type = Stem;
}
);
layerId = "BBDB329E-CE83-4304-A6B1-53EA5ACC004E";
paths = (
{
closed = 1;
nodes = (
"381 820 OFFCURVE",
"316 758 OFFCURVE",
"263 574 CURVE",
"181 574 LINE",
"143 431 LINE",
"224 431 LINE",
"86 0 LINE",
"274 0 LINE",
"381 431 LINE",
"525 431 LINE",
"563 574 LINE",
"401 574 LINE",
"407 618 OFFCURVE",
"426 693 OFFCURVE",
"477 693 CURVE SMOOTH",
"586 693 LINE",
"620 824 LINE",
"512 824 LINE SMOOTH"
);
}
);
width = 587;
}
);
unicode = 0066;
},
{
color = 7;
glyphname = g;
lastChange = "2019-10-14 01:29:41 +0000";
layers = (
{
anchors = (
{
name = bottom;
position = "{193, -261}";
},
{
name = comma;
position = "{199, -262}";
},
{
name = stroke;
position = "{569, 247}";
},
{
name = top;
position = "{472, 606}";
},
{
name = top_hook;
position = "{559, 353}";
}
);
layerId = "BA196CD0-EE58-4274-B8DF-4393D3617A29";
paths = (
{
closed = 1;
nodes = (
"386 -261 OFFCURVE",
"501 -154 OFFCURVE",
"561 69 CURVE SMOOTH",
"690 547 LINE",
"599 547 LINE",
"559 487 LINE",
"515 528 OFFCURVE",
"482 560 OFFCURVE",
"416 564 CURVE SMOOTH",
"281 572 OFFCURVE",
"150 459 OFFCURVE",
"105 290 CURVE SMOOTH",
"60 121 OFFCURVE",
"131 0 OFFCURVE",
"266 0 CURVE SMOOTH",
"347 0 OFFCURVE",
"428 45 OFFCURVE",
"454 72 CURVE",
"428 15 LINE",
"397 -50 OFFCURVE",
"290 -110 OFFCURVE",
"255 -115 CURVE SMOOTH",
"195 -124 OFFCURVE",
"120 -111 OFFCURVE",
"74 -82 CURVE",
"2 -214 LINE",
"56 -245 OFFCURVE",
"149 -261 OFFCURVE",
"213 -261 CURVE SMOOTH"
);
},
{
closed = 1;
nodes = (
"194 147 OFFCURVE",
"152 160 OFFCURVE",
"191 285 CURVE SMOOTH",
"226 396 OFFCURVE",
"286 480 OFFCURVE",
"380 480 CURVE SMOOTH",
"464 480 OFFCURVE",
"515 416 OFFCURVE",
"480 285 CURVE SMOOTH",
"445 156 OFFCURVE",
"379 145 OFFCURVE",
"281 146 CURVE SMOOTH"
);
}
);
width = 720;
},
{
anchors = (
{
name = bottom;
position = "{207, -261}";
},
{
name = comma;
position = "{213, -262}";
},
{
name = stroke;
position = "{611, 267}";
},
{
name = top;
position = "{476, 596}";
},
{
name = top_hook;
position = "{601, 353}";
}
);
layerId = "BBDB329E-CE83-4304-A6B1-53EA5ACC004E";
paths = (
{
closed = 1;
nodes = (
"384 -278 OFFCURVE",
"510 -163 OFFCURVE",
"582 68 CURVE SMOOTH",
"740 574 LINE",
"600 574 LINE",
"572 523 LINE",
"552 556 OFFCURVE",
"503 597 OFFCURVE",
"437 597 CURVE SMOOTH",
"286 597 OFFCURVE",
"151 463 OFFCURVE",
"102 280 CURVE SMOOTH",
"53 97 OFFCURVE",
"121 -26 OFFCURVE",
"273 -26 CURVE SMOOTH",
"354 -26 OFFCURVE",
"408 29 OFFCURVE",
"393 13 CURVE SMOOTH",
"439 55 LINE",
"395 -37 OFFCURVE",
"306 -130 OFFCURVE",
"231 -130 CURVE SMOOTH",
"175 -130 OFFCURVE",
"133 -99 OFFCURVE",
"83 -61 CURVE",
"-20 -217 LINE",
"34 -255 OFFCURVE",
"120 -278 OFFCURVE",
"200 -278 CURVE SMOOTH"
);
},
{
closed = 1;
nodes = (
"207 173 OFFCURVE",
"195 185 OFFCURVE",
"212 286 CURVE",
"243 401 OFFCURVE",
"306 463 OFFCURVE",
"387 463 CURVE SMOOTH",
"469 463 OFFCURVE",
"497 400 OFFCURVE",
"466 285 CURVE SMOOTH",
"442 192 OFFCURVE",
"412 173 OFFCURVE",
"302 173 CURVE SMOOTH"
);
}
);
width = 763;
}
);
unicode = 0067;
},
{
glyphname = "gamma-latin";
lastChange = "2019-09-05 22:37:16 +0000";
layers = (
{
layerId = "BA196CD0-EE58-4274-B8DF-4393D3617A29";
paths = (
{
closed = 1;
nodes = (
"313 481 CURVE SMOOTH",
"304 493 OFFCURVE",
"301 500 OFFCURVE",
"293 515 CURVE",
"203 455 LINE",
"210 443 OFFCURVE",
"208 442 OFFCURVE",
"215 435 CURVE SMOOTH",
"526 41 OFFCURVE",
"449 -103 OFFCURVE",
"325 -100 CURVE SMOOTH",
"167 -96 OFFCURVE",
"246 74 OFFCURVE",
"727 427 CURVE SMOOTH",
"736 433 OFFCURVE",
"741 439 OFFCURVE",
"750 448 CURVE",
"692 515 LINE",
"681 505 OFFCURVE",
"672 495 OFFCURVE",
"660 485 CURVE SMOOTH",
"199 94 OFFCURVE",
"-93 -193 OFFCURVE",
"302 -197 CURVE SMOOTH",
"629 -200 OFFCURVE",
"602 88 OFFCURVE"
);
}
);
width = 711;
},
{
layerId = "BBDB329E-CE83-4304-A6B1-53EA5ACC004E";
paths = (
{
closed = 1;
nodes = (
"640 -227 OFFCURVE",
"656 67 OFFCURVE",
"337 500 CURVE SMOOTH",
"327 514 OFFCURVE",
"325 520 OFFCURVE",
"307 553 CURVE",
"165 459 LINE",
"174 444 OFFCURVE",
"184 423 OFFCURVE",
"191 415 CURVE",
"415 131 OFFCURVE",
"467 -76 OFFCURVE",
"333 -73 CURVE SMOOTH",
"193 -69 OFFCURVE",
"344 117 OFFCURVE",
"740 407 CURVE",
"749 413 OFFCURVE",
"760 424 OFFCURVE",
"788 451 CURVE",
"702 552 LINE",
"672 532 OFFCURVE",
"660 516 OFFCURVE",
"645 503 CURVE SMOOTH",
"182 111 OFFCURVE",
"-154 -219 OFFCURVE",
"294 -224 CURVE SMOOTH"
);
}
);
width = 711;
}
);
unicode = 0263;
},
{
glyphname = glottalstop;
lastChange = "2019-10-05 00:59:54 +0000";
layers = (
{
anchors = (
{
name = center;
position = "{193, 236}";
}
);
layerId = "BA196CD0-EE58-4274-B8DF-4393D3617A29";
paths = (
{
closed = 1;
nodes = (
"139 44 OFFCURVE",
"193 57 OFFCURVE",
"195 65 CURVE",
"204 99 OFFCURVE",
"264 318 OFFCURVE",
"277 363 CURVE SMOOTH",
"290 408 OFFCURVE",
"455 417 OFFCURVE",
"496 592 CURVE SMOOTH",
"515 674 OFFCURVE",
"502 742 OFFCURVE",
"412 763 CURVE SMOOTH",
"343 779 OFFCURVE",
"176 752 OFFCURVE",
"141 621 CURVE",
"182 621 OFFCURVE",
"197 621 OFFCURVE",
"235 621 CURVE",
"255 696 OFFCURVE",
"307 707 OFFCURVE",
"380 692 CURVE SMOOTH",
"428 682 OFFCURVE",
"440 640 OFFCURVE",
"424 580 CURVE SMOOTH",
"403 500 OFFCURVE",
"276 481 OFFCURVE",
"229 430 CURVE SMOOTH",
"187 384 OFFCURVE",
"180 368 OFFCURVE",
"163 303 CURVE SMOOTH",
"150 252 OFFCURVE",
"98 70 OFFCURVE",
"88 32 CURVE"
);
}
);
width = 483;
},
{
anchors = (
{
name = center;
position = "{215, 209}";
}
);
layerId = "BBDB329E-CE83-4304-A6B1-53EA5ACC004E";
paths = (
{
closed = 1;
nodes = (
"122 6 LINE",
"175 19 OFFCURVE",
"235 28 OFFCURVE",
"244 61 CURVE SMOOTH",
"252 91 OFFCURVE",
"305 285 OFFCURVE",
"316 325 CURVE SMOOTH",
"318 332 OFFCURVE",
"474 369 OFFCURVE",
"511 529 CURVE SMOOTH",
"533 625 OFFCURVE",
"503 686 OFFCURVE",
"422 705 CURVE SMOOTH",
"357 720 OFFCURVE",
"179 692 OFFCURVE",
"142 553 CURVE",
"162 526 LINE",
"208 526 OFFCURVE",
"216 526 OFFCURVE",
"274 526 CURVE",
"283 588 OFFCURVE",
"297 606 OFFCURVE",
"368 590 CURVE SMOOTH",
"394 584 OFFCURVE",
"403 561 OFFCURVE",
"392 517 CURVE SMOOTH",
"379 464 OFFCURVE",
"281 458 OFFCURVE",
"228 399 CURVE SMOOTH",
"187 354 OFFCURVE",
"177 334 OFFCURVE",
"160 272 CURVE SMOOTH",
"148 227 OFFCURVE",
"104 66 OFFCURVE",
"95 32 CURVE"
);
}
);
width = 483;
}
);
unicode = 0294;
},
{
glyphname = glottalstopsmall;
lastChange = "2019-09-18 20:31:46 +0000";
layers = (
{
layerId = "BA196CD0-EE58-4274-B8DF-4393D3617A29";
paths = (
{
closed = 1;
nodes = (
"201 220 OFFCURVE",
"257 220 CURVE",
"271 263 OFFCURVE",
"276 310 OFFCURVE",
"288 356 CURVE SMOOTH",
"300 401 OFFCURVE",
"468 410 OFFCURVE",
"507 585 CURVE SMOOTH",
"525 666 OFFCURVE",
"513 734 OFFCURVE",
"424 756 CURVE SMOOTH",
"355 773 OFFCURVE",
"188 744 OFFCURVE",
"153 613 CURVE",
"193 613 OFFCURVE",
"208 613 OFFCURVE",
"246 613 CURVE",
"267 689 OFFCURVE",
"319 699 OFFCURVE",
"391 684 CURVE SMOOTH",
"440 674 OFFCURVE",
"451 632 OFFCURVE",
"435 573 CURVE SMOOTH",
"413 492 OFFCURVE",
"287 473 OFFCURVE",
"241 422 CURVE SMOOTH",
"199 376 OFFCURVE",
"163 284 OFFCURVE",
"146 220 CURVE",
"179 220 OFFCURVE"
);
}
);
width = 483;
},
{
layerId = "BBDB329E-CE83-4304-A6B1-53EA5ACC004E";
paths = (
{
closed = 1;
nodes = (
"309 193 OFFCURVE",
"319 193 OFFCURVE",
"402 193 CURVE",
"425 240 OFFCURVE",
"429 294 OFFCURVE",
"442 340 CURVE SMOOTH",
"443 347 OFFCURVE",
"600 384 OFFCURVE",
"637 544 CURVE SMOOTH",
"658 640 OFFCURVE",
"628 701 OFFCURVE",
"547 720 CURVE SMOOTH",
"482 737 OFFCURVE",
"305 707 OFFCURVE",
"267 568 CURVE",
"287 541 LINE",
"334 541 OFFCURVE",
"342 541 OFFCURVE",
"399 541 CURVE",
"410 603 OFFCURVE",
"421 619 OFFCURVE",
"493 605 CURVE SMOOTH",
"520 599 OFFCURVE",
"529 576 OFFCURVE",
"517 532 CURVE SMOOTH",
"503 479 OFFCURVE",
"407 472 OFFCURVE",
"353 414 CURVE SMOOTH",
"315 371 OFFCURVE",
"273 279 OFFCURVE",
"255 193 CURVE"
);
}
);
width = 606;
}
);
unicode = 0242;
},
{
color = 7;
glyphname = h;
lastChange = "2019-10-14 16:48:27 +0000";
layers = (
{
anchors = (
{
name = bottom;
position = "{290, -165}";
},
{
name = bottom_hook;
position = "{519, 0}";
},
{
name = center;
position = "{374, 273}";
},
{
name = top;
position = "{362, 862}";
},
{
name = top_hook;
position = "{225, 437}";
}
);
layerId = "BA196CD0-EE58-4274-B8DF-4393D3617A29";
paths = (
{
closed = 1;
nodes = (
"654 522 OFFCURVE",
"608 548 OFFCURVE",
"481 548 CURVE SMOOTH",
"394 548 OFFCURVE",
"367 532 OFFCURVE",
"282 469 CURVE",
"392 850 LINE",
"301 850 LINE",
"27 0 LINE",
"176 0 LINE",
"225 385 OFFCURVE",
"386 474 OFFCURVE",
"487 435 CURVE SMOOTH",
"534 417 OFFCURVE",
"581 365 OFFCURVE",
"409 0 CURVE",
"548 0 LINE",
"615 330 LINE SMOOTH"
);
}
);
width = 725;
},
{
anchors = (
{
name = bottom;
position = "{325, 0}";
},
{
name = bottom_hook;
position = "{507, 0}";
},
{
name = center;
position = "{362, 273}";
},
{
name = top;
position = "{414, 867}";
},
{
name = top_hook;
position = "{296, 482}";
}
);
layerId = "BBDB329E-CE83-4304-A6B1-53EA5ACC004E";
paths = (
{
closed = 1;
nodes = (
"722 520 OFFCURVE",
"684 575 OFFCURVE",
"526 575 CURVE SMOOTH",
"464 575 OFFCURVE",
"423 565 OFFCURVE",
"367 530 CURVE",
"465 827 LINE",
"320 827 LINE",
"27 0 LINE",
"238 0 LINE",
"286 393 OFFCURVE",
"330 449 OFFCURVE",
"472 449 CURVE SMOOTH",
"602 449 OFFCURVE",
"592 390 OFFCURVE",
"406 0 CURVE",
"608 0 LINE",
"681 332 LINE SMOOTH"
);
}
);
width = 785;
}
);
unicode = 0068;
},
{
color = 7;
glyphname = i;
lastChange = "2019-10-16 22:10:12 +0000";
layers = (
{
anchors = (
{
name = _right;
position = "{136, 501}";
},
{
name = bottom;
position = "{74, -75}";
},
{
name = center;
position = "{196, 285}";
}
);
layerId = "BA196CD0-EE58-4274-B8DF-4393D3617A29";
paths = (
{
closed = 1;
nodes = (
"167 0 LINE",
"138 192 OFFCURVE",
"318 341 OFFCURVE",
"279 506 CURVE",
"189 506 LINE",
"219 341 OFFCURVE",
"48 192 OFFCURVE",
"34 0 CURVE"
);
},
{
closed = 1;
nodes = (
"322 646 LINE",
"347 760 LINE",
"267 760 LINE",
"231 646 LINE"
);
}
);
width = 348;
},
{
anchors = (
{
name = _right;
position = "{157, 497}";
},
{
name = bottom;
position = "{133, 0}";
},
{
name = center;
position = "{224, 285}";
}
);
hints = (
{
horizontal = 1;
origin = "{1, 0}";
type = Delta;
settings = {
deltaV = {
"{100, 400, 0, 0, 0, 0}" = {
"22" = -8;
};
};
};
},
{
horizontal = 1;
origin = "{1, 3}";
type = Delta;
settings = {
deltaV = {
"{100, 400, 0, 0, 0, 0}" = {
"22" = -8;
};
};
};
},
{
horizontal = 1;
origin = "{1, 1}";
type = Delta;
settings = {
deltaV = {
"{100, 400, 0, 0, 0, 0}" = {
"22" = 4;
};
};
};
},
{
horizontal = 1;
origin = "{1, 2}";
type = Delta;
settings = {
deltaV = {
"{100, 400, 0, 0, 0, 0}" = {
"22" = 4;
};
};
};
},
{
horizontal = 1;
origin = "{0, 3}";
type = Delta;
settings = {
deltaV = {
"{100, 400, 0, 0, 0, 0}" = {
"22" = 4;
};
};
};
},
{
horizontal = 1;
origin = "{0, 4}";
type = Delta;
settings = {
deltaV = {
"{100, 400, 0, 0, 0, 0}" = {
"22" = 4;
};
};
};
},
{
horizontal = 1;
origin = "{0, 0}";
type = Delta;
settings = {
deltaV = {
"{100, 400, 0, 0, 0, 0}" = {
"22" = 0;
};
};
};
},
{
horizontal = 1;
origin = "{0, 7}";
type = Delta;
settings = {
deltaV = {
"{100, 400, 0, 0, 0, 0}" = {
"22" = 0;
};
};
};
}
);
layerId = "BBDB329E-CE83-4304-A6B1-53EA5ACC004E";
paths = (
{
closed = 1;
nodes = (
"220 0 LINE",
"200 206 OFFCURVE",
"346 300 OFFCURVE",
"343 533 CURVE",
"207 533 LINE",
"207 300 OFFCURVE",
"49 206 OFFCURVE",
"35 0 CURVE"
);
},
{
closed = 1;
nodes = (
"371 619 LINE",
"409 787 LINE",
"276 787 LINE",
"224 619 LINE"
);
}
);
width = 397;
}
);
unicode = 0069;
},
{
glyphname = idotless;
lastChange = "2019-10-03 23:23:56 +0000";
layers = (
{
anchors = (
{
name = bottom;
position = "{83, -83}";
},
{
name = ogonek;
position = "{84, 7}";
},
{
name = top;
position = "{229, 595}";
}
);
layerId = "BA196CD0-EE58-4274-B8DF-4393D3617A29";
paths = (
{
closed = 1;
nodes = (
"129 0 LINE",
"150 192 OFFCURVE",
"190 341 OFFCURVE",
"241 506 CURVE",
"161 506 LINE",
"101 285 OFFCURVE",
"70 192 OFFCURVE",
"6 0 CURVE"
);
}
);
width = 285;
},
{
anchors = (
{
name = bottom;
position = "{142, 0}";
},
{
name = top;
position = "{313, 651}";
}
);
layerId = "BBDB329E-CE83-4304-A6B1-53EA5ACC004E";
paths = (
{
closed = 1;
nodes = (
"229 -27 LINE",
"250 189 OFFCURVE",
"294 348 OFFCURVE",
"352 533 CURVE",
"216 533 LINE",
"148 282 OFFCURVE",
"118 193 OFFCURVE",
"44 -27 CURVE"
);
}
);
width = 285;
}
);
unicode = 0131;
},
{
glyphname = "iota-latin";
lastChange = "2019-09-18 20:36:18 +0000";
layers = (
{
anchors = (
{
name = bottom;
position = "{78, 0}";
},
{
name = ogonek;
position = "{78, 0}";
},
{
name = top;
position = "{213, 517}";
}
);
layerId = "BA196CD0-EE58-4274-B8DF-4393D3617A29";
paths = (
{
closed = 1;
nodes = (
"224 67 LINE",
"188 67 OFFCURVE",
"179 56 OFFCURVE",
"137 79 CURVE",
"164 172 OFFCURVE",
"223 412 OFFCURVE",
"252 506 CURVE",
"171 506 LINE",
"140 389 OFFCURVE",
"123 263 OFFCURVE",
"43 44 CURVE",
"55 0 OFFCURVE",
"45 0 OFFCURVE",
"199 0 CURVE"
);
}
);
width = 337;
},
{
anchors = (
{
name = bottom;
position = "{102, 0}";
},
{
name = ogonek;
position = "{102, 0}";
},
{
name = top;
position = "{236, 517}";
}
);
layerId = "BBDB329E-CE83-4304-A6B1-53EA5ACC004E";
paths = (
{
closed = 1;
nodes = (
"286 94 LINE",
"193 96 OFFCURVE",
"207 87 OFFCURVE",
"192 96 CURVE",
"226 213 OFFCURVE",
"291 479 OFFCURVE",
"312 533 CURVE",
"175 533 LINE",
"138 406 OFFCURVE",
"127 280 OFFCURVE",
"40 47 CURVE",
"39 31 LINE",
"60 -43 OFFCURVE",
"102 -25 OFFCURVE",
"240 -27 CURVE"
);
}
);
width = 285;
}
);
unicode = 0269;
},
{
glyphname = jdotless;
lastChange = "2019-10-16 17:28:13 +0000";
layers = (
{
anchors = (
{
name = bottom;
position = "{19, -320}";
},
{
name = center;
position = "{346, 302}";
},
{
name = top;
position = "{463, 623}";
}
);
layerId = "BA196CD0-EE58-4274-B8DF-4393D3617A29";
paths = (
{
closed = 1;
nodes = (
"139 -95 OFFCURVE",
"98 -127 OFFCURVE",
"12 -98 CURVE",
"-30 -213 LINE",
"13 -245 OFFCURVE",
"139 -225 OFFCURVE",
"179 -200 CURVE SMOOTH",
"198 -188 OFFCURVE",
"256 -120 OFFCURVE",
"290 -14 CURVE SMOOTH",
"469 537 LINE",
"374 537 LINE",
"255 135 OFFCURVE",
"195 -10 OFFCURVE",
"161 -74 CURVE"
);
}
);
width = 502;
},
{
anchors = (
{
name = _topright;
position = "{514, 742}";
},
{
name = center;
position = "{403, 304}";
},
{
name = top;
position = "{497, 661}";
}
);
layerId = "BBDB329E-CE83-4304-A6B1-53EA5ACC004E";
paths = (
{
closed = 1;
nodes = (
"93 -256 OFFCURVE",
"227 -219 OFFCURVE",
"268 -184 CURVE SMOOTH",
"302 -155 OFFCURVE",
"329 -77 OFFCURVE",
"376 54 CURVE SMOOTH",
"554 547 LINE",
"403 547 LINE",
"297 131 OFFCURVE",
"241 22 OFFCURVE",
"192 -32 CURVE SMOOTH",
"149 -80 OFFCURVE",
"92 -103 OFFCURVE",
"22 -74 CURVE",
"-39 -248 LINE"
);
}
);
width = 584;
}
);
unicode = 0237;
},
{
color = 7;
glyphname = k;
lastChange = "2019-10-14 03:07:25 +0000";
layers = (
{
anchors = (
{
name = bottom;
position = "{210, -41}";
},
{
name = center;
position = "{330, 685}";
},
{
name = top;
position = "{438, 864}";
},
{
name = top_hook;
position = "{227, 415}";
}
);
layerId = "BA196CD0-EE58-4274-B8DF-4393D3617A29";
paths = (
{
closed = 1;
nodes = (
"168 0 LINE",
"237 245 LINE",
"345 0 LINE",
"552 0 LINE",
"338 289 LINE",
"556 500 LINE",
"428 482 LINE",
"272 361 LINE",
"423 853 LINE",
"302 853 LINE",
"262 623 OFFCURVE",
"57 35 OFFCURVE",
"27 0 CURVE"
);
}
);
width = 729;
},
{
anchors = (
{
name = bottom;
position = "{237, -68}";
},
{
name = center;
position = "{331, 678}";
},
{
name = top;
position = "{380, 891}";
},
{
name = top_hook;
position = "{244, 378}";
}
);
layerId = "BBDB329E-CE83-4304-A6B1-53EA5ACC004E";
paths = (
{
closed = 1;
nodes = (
"205 0 LINE",
"250 167 LINE",
"339 0 LINE",
"628 0 LINE",
"372 301 LINE",
"626 536 LINE",
"449 516 LINE",
"310 408 LINE",
"445 830 LINE",
"289 830 LINE",
"288 732 OFFCURVE",
"144 209 OFFCURVE",
"27 0 CURVE"
);
}
);
width = 805;
}
);
unicode = 006B;
},
{
color = 7;
glyphname = l;
lastChange = "2019-10-14 02:46:43 +0000";
layers = (
{
anchors = (
{
name = _right;
position = "{141, 501}";
},
{
name = bottom;
position = "{119, -77}";
},
{
name = center;
position = "{219, 400}";
},
{
name = dot;
position = "{305, 406}";
},
{
name = ezh;
position = "{261, 547}";
},
{
name = right;
position = "{375, 487}";
},
{
name = right_el;
position = "{486, 538}";
},
{
name = top;
position = "{387, 893}";
},
{
name = topright;
position = "{406, 641}";
}
);
layerId = "BA196CD0-EE58-4274-B8DF-4393D3617A29";
paths = (
{
closed = 1;
nodes = (
"281 0 LINE",
"305 111 LINE",
"174 111 LINE SMOOTH",
"147 111 OFFCURVE",
"296 544 OFFCURVE",
"387 784 CURVE",
"281 784 LINE",
"194 564 OFFCURVE",
"56 105 OFFCURVE",
"27 0 CURVE"
);
}
);
width = 458;
},
{
anchors = (
{
name = _right;
position = "{141, 499}";
},
{
name = bottom;
position = "{149, -38}";
},
{
name = center;
position = "{244, 400}";
},
{
name = dot;
position = "{330, 406}";
},
{
name = ezh;
position = "{286, 547}";
},
{
name = right;
position = "{400, 487}";
},
{
name = right_el;
position = "{511, 538}";
},
{
name = top;
position = "{392, 822}";
},
{
name = topright;
position = "{431, 641}";
}
);
layerId = "BBDB329E-CE83-4304-A6B1-53EA5ACC004E";
paths = (
{
closed = 1;
nodes = (
"330 0 LINE",
"350 138 LINE",
"234 138 LINE SMOOTH",
"185 138 OFFCURVE",
"370 610 OFFCURVE",
"450 811 CURVE",
"299 811 LINE",
"196 481 OFFCURVE",
"47 129 OFFCURVE",
"30 0 CURVE"
);
}
);
width = 507;
}
);
unicode = 006C;
},
{
glyphname = lbelt;
lastChange = "2019-09-05 22:37:16 +0000";
layers = (
{
anchors = (
{
name = _curl;
position = "{855, 459}";
},
{
name = bottom;
position = "{899, 0}";
},
{
name = top;
position = "{1044, 540}";
}
);
components = (
{
name = l;
transform = "{1, 0, 0, 1, 200, 0}";
}
);
layerId = "BA196CD0-EE58-4274-B8DF-4393D3617A29";
paths = (
{
closed = 1;
nodes = (
"705 398 LINE",
"634 398 OFFCURVE",
"574 401 OFFCURVE",
"462 401 CURVE SMOOTH",
"365 401 OFFCURVE",
"295 462 OFFCURVE",
"306 501 CURVE SMOOTH",
"308 510 OFFCURVE",
"314 518 OFFCURVE",
"323 524 CURVE SMOOTH",
"343 536 OFFCURVE",
"361 543 OFFCURVE",
"375 543 CURVE SMOOTH",
"402 543 OFFCURVE",
"432 517 OFFCURVE",
"416 456 CURVE SMOOTH",
"401 399 OFFCURVE",
"382 346 OFFCURVE",
"365 294 CURVE SMOOTH",
"343 229 OFFCURVE",
"322 167 OFFCURVE",
"306 104 CURVE",
"401 104 LINE",
"433 225 OFFCURVE",
"465 344 OFFCURVE",
"501 480 CURVE SMOOTH",
"526 573 OFFCURVE",
"491 638 OFFCURVE",
"415 638 CURVE SMOOTH",
"384 638 OFFCURVE",
"339 633 OFFCURVE",
"296 608 CURVE SMOOTH",
"236 573 OFFCURVE",
"208 524 OFFCURVE",
"215 456 CURVE SMOOTH",
"230 313 OFFCURVE",
"384 292 OFFCURVE",
"676 290 CURVE"
);
}
);
width = 679;
},
{
anchors = (
{
name = _curl;
position = "{855, 459}";
},
{
name = bottom;
position = "{899, 0}";
},
{
name = top;
position = "{1044, 540}";
}
);
components = (
{
name = l;
transform = "{1, 0, 0, 1, 200, 0}";
}
);
layerId = "BBDB329E-CE83-4304-A6B1-53EA5ACC004E";
paths = (
{
closed = 1;
nodes = (
"739 425 LINE",
"656 424 OFFCURVE",
"595 428 OFFCURVE",
"469 428 CURVE SMOOTH",
"403 428 OFFCURVE",
"326 473 OFFCURVE",
"333 501 CURVE SMOOTH",
"335 506 OFFCURVE",
"331 501 OFFCURVE",
"333 502 CURVE",
"349 512 OFFCURVE",
"359 516 OFFCURVE",
"368 516 CURVE SMOOTH",
"388 516 OFFCURVE",
"398 492 OFFCURVE",
"389 456 CURVE SMOOTH",
"374 400 OFFCURVE",
"355 347 OFFCURVE",
"338 296 CURVE SMOOTH",
"313 222 OFFCURVE",
"290 150 OFFCURVE",
"271 77 CURVE",
"421 77 LINE",
"456 208 OFFCURVE",
"489 333 OFFCURVE",
"529 480 CURVE SMOOTH",
"558 588 OFFCURVE",
"514 665 OFFCURVE",
"423 665 CURVE SMOOTH",
"374 665 OFFCURVE",
"325 653 OFFCURVE",
"287 630 CURVE SMOOTH",
"213 587 OFFCURVE",
"179 524 OFFCURVE",
"187 447 CURVE SMOOTH",
"204 284 OFFCURVE",
"386 264 OFFCURVE",
"696 263 CURVE"
);
}
);
width = 679;
}
);
unicode = 026C;
},
{
glyphname = lhookretroflex;
lastChange = "2019-09-05 23:20:21 +0000";
layers = (
{
anchors = (
{
name = bottom;
position = "{140, 0}";
},
{
name = center;
position = "{321, 400}";
},
{
name = dot;
position = "{354, 406}";
},
{
name = top;
position = "{350, 685}";
},
{
name = topright;
position = "{456, 641}";
}
);
layerId = "BA196CD0-EE58-4274-B8DF-4393D3617A29";
paths = (
{
closed = 1;
nodes = (
"310 -245 OFFCURVE",
"400 -258 OFFCURVE",
"485 20 CURVE",
"366 0 LINE",
"321 -168 OFFCURVE",
"167 -163 OFFCURVE",
"197 -55 CURVE SMOOTH",
"253 150 OFFCURVE",
"380 637 OFFCURVE",
"436 784 CURVE",
"350 784 LINE",
"285 608 OFFCURVE",
"158 226 OFFCURVE",
"68 -55 CURVE SMOOTH",
"47 -122 OFFCURVE",
"8 -245 OFFCURVE",
"75 -245 CURVE SMOOTH"
);
}
);
width = 561;
},
{
anchors = (
{
name = bottom;
position = "{140, 0}";
},
{
name = center;
position = "{321, 400}";
},
{
name = dot;
position = "{354, 406}";
},
{
name = top;
position = "{350, 685}";
},
{
name = topright;
position = "{456, 641}";
}
);
layerId = "BBDB329E-CE83-4304-A6B1-53EA5ACC004E";
paths = (
{
closed = 1;
nodes = (
"343 22 LINE",
"315 -130 OFFCURVE",
"203 -132 OFFCURVE",
"225 -55 CURVE SMOOTH",
"285 168 OFFCURVE",
"429 723 OFFCURVE",
"476 811 CURVE",
"333 811 LINE",
"272 648 OFFCURVE",
"135 241 OFFCURVE",
"41 -54 CURVE SMOOTH",
"-1 -188 OFFCURVE",
"-8 -272 OFFCURVE",
"68 -272 CURVE SMOOTH",
"309 -272 OFFCURVE",
"425 -290 OFFCURVE",
"522 52 CURVE"
);
}
);
width = 561;
}
);
unicode = 026D;
},
{
glyphname = lsdigraph;
lastChange = "2019-09-25 14:48:22 +0000";
layers = (
{
components = (
{
name = l;
},
{
name = s;
transform = "{1, 0, 0, 1, 234, 9}";
}
);
layerId = "BA196CD0-EE58-4274-B8DF-4393D3617A29";
paths = (
{
closed = 1;
nodes = (
"129 0 LINE",
"481 0 LINE",
"511 112 LINE",
"159 112 LINE"
);
}
);
width = 867;
},
{
components = (
{
name = l;
},
{
name = s;
transform = "{1, 0, 0, 1, 234, 9}";
}
);
layerId = "BBDB329E-CE83-4304-A6B1-53EA5ACC004E";
paths = (
{
closed = 1;
nodes = (
"95 -2 LINE",
"541 -2 LINE",
"585 164 LINE",
"139 164 LINE"
);
}
);
width = 867;
}
);
unicode = 02AA;
},
{
glyphname = lzdigraph;
lastChange = "2019-10-16 22:11:02 +0000";
layers = (
{
anchors = (
{
name = _stroke;
position = "{580, 275.621}";
}
);
components = (
{
name = l;
transform = "{1, 0, 0, 1, 17, 0}";
},
{
name = z;
transform = "{1, 0, 0, 1, 206, 0}";
}
);
layerId = "BA196CD0-EE58-4274-B8DF-4393D3617A29";
paths = (
{
closed = 1;
nodes = (
"186 451 LINE",
"561 451 LINE",
"585 548 LINE",
"211 548 LINE"
);
}
);
width = 840;
},
{
components = (
{
name = l;
},
{
name = z;
transform = "{1, 0, 0, 1, 189, -1}";
}
);
layerId = "BBDB329E-CE83-4304-A6B1-53EA5ACC004E";
paths = (
{
closed = 1;
nodes = (
"275 84 LINE",
"249 27 LINE",
"261 27 LINE",
"270 84 LINE"
);
},
{
closed = 1;
nodes = (
"235 455 LINE",
"523 455 LINE",
"555 576 LINE",
"267 576 LINE"
);
}
);
width = 867;
}
);
unicode = 02AB;
},
{
color = 7;
glyphname = m;
lastChange = "2019-10-17 20:29:45 +0000";
layers = (
{
anchors = (
{
name = bottom;
position = "{463, 0}";
},
{
name = center;
position = "{592, 279}";
},
{
name = eng;
position = "{840, 11}";
},
{
name = top;
position = "{704, 643}";
}
);
layerId = "BA196CD0-EE58-4274-B8DF-4393D3617A29";
paths = (
{
closed = 1;
nodes = (
"638 519 OFFCURVE",
"582 554 OFFCURVE",
"501 560 CURVE SMOOTH",
"421 566 OFFCURVE",
"356 539 OFFCURVE",
"297 472 CURVE",
"330 547 LINE",
"239 547 LINE",
"27 0 LINE",
"153 0 LINE",
"274 333 LINE SMOOTH",
"302 409 OFFCURVE",
"396 487 OFFCURVE",
"474 481 CURVE SMOOTH",
"552 475 OFFCURVE",
"578 386 OFFCURVE",
"548 327 CURVE SMOOTH",
"383 0 LINE",
"509 0 LINE",
"629 293 LINE SMOOTH",
"676 408 OFFCURVE",
"742 477 OFFCURVE",
"827 481 CURVE SMOOTH",
"903 485 OFFCURVE",
"912 431 OFFCURVE",
"884 326 CURVE",
"763 0 LINE",
"899 0 LINE",
"977 330 LINE SMOOTH",
"998 421 OFFCURVE",
"974 538 OFFCURVE",
"859 560 CURVE SMOOTH",
"774 576 OFFCURVE",
"711 522 OFFCURVE",
"644 442 CURVE"
);
}
);
width = 1076;
},
{
anchors = (
{
name = bottom;
position = "{502, 0}";
},
{
name = center;
position = "{609, 279}";
},
{
name = eng;
position = "{879, 11}";
},
{
name = top;
position = "{728, 652}";
}
);
layerId = "BBDB329E-CE83-4304-A6B1-53EA5ACC004E";
paths = (
{
closed = 1;
nodes = (
"679 554 OFFCURVE",
"624 586 OFFCURVE",
"547 587 CURVE SMOOTH",
"492 588 OFFCURVE",
"442 573 OFFCURVE",
"395 544 CURVE",
"406 574 LINE",
"261 574 LINE",
"28 3 LINE",
"210 3 LINE",
"339 328 LINE SMOOTH",
"377 424 OFFCURVE",
"469 451 OFFCURVE",
"499 442 CURVE SMOOTH",
"549 426 OFFCURVE",
"578 420 OFFCURVE",
"561 350 CURVE",
"382 3 LINE",
"565 3 LINE",
"699 285 LINE SMOOTH",
"754 400 OFFCURVE",
"794 450 OFFCURVE",
"863 450 CURVE SMOOTH",
"917 450 OFFCURVE",
"928 421 OFFCURVE",
"901 323 CURVE",
"765 3 LINE",
"959 3 LINE",
"1043 331 LINE SMOOTH",
"1078 469 OFFCURVE",
"1014 574 OFFCURVE",
"905 587 CURVE SMOOTH",
"828 596 OFFCURVE",
"764 559 OFFCURVE",
"701 497 CURVE"
);
}
);
width = 1135;
}
);
unicode = 006D;
},
{
glyphname = mlonglegturned;
lastChange = "2019-10-11 17:10:58 +0000";
layers = (
{
components = (
{
name = mturned;
}
);
layerId = "BA196CD0-EE58-4274-B8DF-4393D3617A29";
paths = (
{
closed = 1;
nodes = (
"676 -136 LINE",
"786 -136 LINE",
"1028 560 LINE",
"903 560 LINE"
);
}
);
width = 1034;
},
{
components = (
{
name = mturned;
transform = "{1, 0, 0, 1, 2, 0}";
}
);
layerId = "BBDB329E-CE83-4304-A6B1-53EA5ACC004E";
paths = (
{
closed = 1;
nodes = (
"691 -193 LINE",
"855 -193 LINE",
"1116 557 LINE",
"936 557 LINE"
);
}
);
width = 1038;
}
);
unicode = 0270;
},
{
color = 7;
glyphname = n;
lastChange = "2019-10-12 01:47:13 +0000";
layers = (
{
anchors = (
{
name = bottom;
position = "{270, -117}";
},
{
name = center;
position = "{373, 276}";
},
{
name = eng;
position = "{481, 19}";
},
{
name = top;
position = "{512, 642}";
},
{
name = topleft;
position = "{75, 652}";
},
{
name = topright;
position = "{769, 710}";
}
);
layerId = "BA196CD0-EE58-4274-B8DF-4393D3617A29";
paths = (
{
closed = 1;
nodes = (
"166 0 LINE",
"226 314 LINE SMOOTH",
"246 419 OFFCURVE",
"332 482 OFFCURVE",
"433 482 CURVE SMOOTH",
"513 482 OFFCURVE",
"559 439 OFFCURVE",
"523 339 CURVE SMOOTH",
"401 0 LINE",
"541 0 LINE",
"605 323 LINE SMOOTH",
"640 497 OFFCURVE",
"589 555 OFFCURVE",
"462 555 CURVE SMOOTH",
"376 555 OFFCURVE",
"335 524 OFFCURVE",
"284 495 CURVE",
"303 556 LINE",
"216 556 LINE",
"27 0 LINE"
);
}
);
width = 718;
},
{
anchors = (
{
name = bottom;
position = "{339, 0}";
},
{
name = center;
position = "{417, 272}";
},
{
name = eng;
position = "{512, 21}";
},
{
name = top;
position = "{493, 653}";
},
{
name = topleft;
position = "{180, 629}";
},
{
name = topright;
position = "{807, 734}";
}
);
layerId = "BBDB329E-CE83-4304-A6B1-53EA5ACC004E";
paths = (
{
closed = 1;
nodes = (
"708 503 OFFCURVE",
"656 582 OFFCURVE",
"507 582 CURVE SMOOTH",
"431 582 OFFCURVE",
"391 561 OFFCURVE",
"348 538 CURVE",
"348 583 LINE",
"235 583 LINE",
"27 0 LINE",
"225 0 LINE",
"291 316 LINE SMOOTH",
"310 406 OFFCURVE",
"369 455 OFFCURVE",
"462 455 CURVE SMOOTH",
"536 455 OFFCURVE",
"563 417 OFFCURVE",
"533 341 CURVE SMOOTH",
"400 0 LINE",
"600 0 LINE",
"670 325 LINE SMOOTH"
);
}
);
width = 777;
}
);
unicode = 006E;
},
{
glyphname = nhookleft;
lastChange = "2019-09-25 14:48:46 +0000";
layers = (
{
components = (
{
name = n;
transform = "{1, 0, 0, 1, 83, 0}";
}
);
layerId = "BA196CD0-EE58-4274-B8DF-4393D3617A29";
paths = (
{
closed = 1;
nodes = (
"62 -194 OFFCURVE",
"89 -194 OFFCURVE",
"128 -194 CURVE SMOOTH",
"176 -194 OFFCURVE",
"190 -141 OFFCURVE",
"229 4 CURVE",
"91 4 LINE",
"69 -75 OFFCURVE",
"65 -86 OFFCURVE",
"-11 -86 CURVE",
"-40 -194 LINE"
);
}
);
width = 759;
},
{
components = (
{
name = n;
transform = "{1, 0, 0, 1, 83, 0}";
}
);
layerId = "BBDB329E-CE83-4304-A6B1-53EA5ACC004E";
paths = (
{
closed = 1;
nodes = (
"117 -225 OFFCURVE",
"146 -225 OFFCURVE",
"188 -225 CURVE SMOOTH",
"263 -225 OFFCURVE",
"281 -157 OFFCURVE",
"330 27 CURVE",
"138 27 LINE",
"105 -92 OFFCURVE",
"122 -57 OFFCURVE",
"35 -64 CURVE",
"-8 -225 LINE"
);
}
);
width = 759;
}
);
unicode = 0272;
},
{
glyphname = nhookretroflex;
lastChange = "2019-09-25 14:49:02 +0000";
layers = (
{
anchors = (
{
name = _bottom_hook;
position = "{1079, 380}";
}
);
components = (
{
name = n;
}
);
layerId = "BA196CD0-EE58-4274-B8DF-4393D3617A29";
paths = (
{
closed = 1;
nodes = (
"573 -87 LINE",
"497 -87 OFFCURVE",
"498 -76 OFFCURVE",
"520 3 CURVE",
"381 3 LINE",
"342 -142 OFFCURVE",
"328 -195 OFFCURVE",
"376 -195 CURVE SMOOTH",
"415 -195 OFFCURVE",
"442 -195 OFFCURVE",
"544 -195 CURVE"
);
}
);
width = 748;
},
{
anchors = (
{
name = _bottom_hook;
position = "{1080, 380}";
}
);
components = (
{
name = n;
}
);
layerId = "BBDB329E-CE83-4304-A6B1-53EA5ACC004E";
paths = (
{
closed = 1;
nodes = (
"679 -61 LINE",
"596 -54 OFFCURVE",
"594 -89 OFFCURVE",
"625 30 CURVE",
"432 30 LINE",
"383 -154 OFFCURVE",
"365 -222 OFFCURVE",
"439 -222 CURVE SMOOTH",
"482 -222 OFFCURVE",
"510 -222 OFFCURVE",
"635 -222 CURVE"
);
}
);
width = 748;
}
);
unicode = 0273;
},
{
color = 7;
glyphname = o;
lastChange = "2019-10-17 20:32:01 +0000";
layers = (
{
anchors = (
{
name = bottom;
position = "{291, -77}";
},
{
name = center;
position = "{353, 277}";
},
{
name = horn;
position = "{617, 435}";
},
{
name = ogonek;
position = "{547, 10}";
},
{
name = top;
position = "{458, 653}";
},
{
name = topright;
position = "{723, 500}";
}
);
guideLines = (
{
position = "{195, 556}";
}
);
layerId = "BA196CD0-EE58-4274-B8DF-4393D3617A29";
paths = (
{
closed = 1;
nodes = (
"434 -5 OFFCURVE",
"562 109 OFFCURVE",
"607 288 CURVE SMOOTH",
"650 457 OFFCURVE",
"585 564 OFFCURVE",
"427 564 CURVE SMOOTH",
"269 564 OFFCURVE",
"147 442 OFFCURVE",
"100 273 CURVE SMOOTH",
"47 84 OFFCURVE",
"118 -17 OFFCURVE",
"277 -11 CURVE SMOOTH"
);
},
{
closed = 1;
nodes = (
"192 133 OFFCURVE",
"156 182 OFFCURVE",
"200 289 CURVE SMOOTH",
"245 400 OFFCURVE",
"333 469 OFFCURVE",
"410 471 CURVE SMOOTH",
"507 473 OFFCURVE",
"529 366 OFFCURVE",
"515 289 CURVE SMOOTH",
"491 160 OFFCURVE",
"367 144 OFFCURVE",
"318 141 CURVE SMOOTH"
);
}
);
width = 707;
},
{
anchors = (
{
name = bottom;
position = "{278, -83}";
},
{
name = center;
position = "{396, 317}";
},
{
name = horn;
position = "{646, 435}";
},
{
name = ogonek;
position = "{576, 10}";
},
{
name = rob;
position = "{468, 958}";
},
{
name = top;
position = "{487, 692}";
},
{
name = topright;
position = "{684, 509}";
}
);
layerId = "BBDB329E-CE83-4304-A6B1-53EA5ACC004E";
paths = (
{
closed = 1;
nodes = (
"472 -13 OFFCURVE",
"612 88 OFFCURVE",
"663 281 CURVE SMOOTH",
"712 466 OFFCURVE",
"635 584 OFFCURVE",
"464 584 CURVE SMOOTH",
"292 584 OFFCURVE",
"151 466 OFFCURVE",
"102 281 CURVE SMOOTH",
"51 87 OFFCURVE",
"125 -13 OFFCURVE",
"298 -13 CURVE SMOOTH"
);
},
{
closed = 1;
nodes = (
"254 176 OFFCURVE",
"225 199 OFFCURVE",
"256 297 CURVE SMOOTH",
"288 398 OFFCURVE",
"352 464 OFFCURVE",
"431 464 CURVE SMOOTH",
"510 464 OFFCURVE",
"545 400 OFFCURVE",
"517 297 CURVE SMOOTH",
"487 187 OFFCURVE",
"425 176 OFFCURVE",
"354 176 CURVE SMOOTH"
);
}
);
width = 765;
}
);
leftKerningGroup = Round;
rightKerningGroup = RoundRight;
unicode = 006F;
},
{
color = 7;
glyphname = p;
lastChange = "2019-10-11 15:56:55 +0000";
layers = (
{
anchors = (
{
name = bottom;
position = "{313, 0}";
},
{
name = center;
position = "{134, -126}";
},
{
name = top;
position = "{561, 545}";
},
{
name = top_hook;
position = "{187, 202}";
}
);
hints = (
{
place = "{65, 39}";
type = Stem;
},
{
horizontal = 1;
place = "{425, -13}";
type = Stem;
},
{
horizontal = 1;
place = "{-80, 64}";
type = Stem;
},
{
place = "{491, -13}";
type = Stem;
}
);
layerId = "BA196CD0-EE58-4274-B8DF-4393D3617A29";
paths = (
{
closed = 1;
nodes = (
"239 17 OFFCURVE",
"300 -14 OFFCURVE",
"371 -14 CURVE SMOOTH",
"505 -14 OFFCURVE",
"628 101 OFFCURVE",
"674 273 CURVE SMOOTH",
"718 438 OFFCURVE",
"657 564 OFFCURVE",
"522 564 CURVE SMOOTH",
"442 564 OFFCURVE",
"375 522 OFFCURVE",
"320 457 CURVE",
"320 532 LINE",
"231 532 LINE",
"216 359 OFFCURVE",
"108 45 OFFCURVE",
"-33 -222 CURVE",
"99 -204 LINE",
"219 82 LINE"
);
},
{
closed = 1;
nodes = (
"568 156 OFFCURVE",
"514 134 OFFCURVE",
"428 134 CURVE SMOOTH",
"332 134 OFFCURVE",
"276 156 OFFCURVE",
"311 289 CURVE SMOOTH",
"345 414 OFFCURVE",
"424 487 OFFCURVE",
"519 473 CURVE SMOOTH",
"586 463 OFFCURVE",
"617 416 OFFCURVE",
"593 289 CURVE SMOOTH"
);
}
);
width = 778;
},
{
anchors = (
{
name = bottom;
position = "{354, 0}";
},
{
name = center;
position = "{154, -140}";
},
{
name = top;
position = "{528, 587}";
},
{
name = top_hook;
position = "{228, 202}";
}
);
hints = (
{
place = "{142, 116}";
type = Stem;
},
{
horizontal = 1;
place = "{502, 64}";
type = Stem;
},
{
horizontal = 1;
place = "{-3, 141}";
type = Stem;
},
{
place = "{568, 64}";
type = Stem;
}
);
layerId = "BBDB329E-CE83-4304-A6B1-53EA5ACC004E";
paths = (
{
closed = 1;
nodes = (
"290 -22 OFFCURVE",
"349 -41 OFFCURVE",
"404 -41 CURVE SMOOTH",
"555 -41 OFFCURVE",
"692 87 OFFCURVE",
"742 273 CURVE SMOOTH",
"790 453 OFFCURVE",
"720 581 OFFCURVE",
"571 581 CURVE SMOOTH",
"503 581 OFFCURVE",
"442 560 OFFCURVE",
"391 520 CURVE",
"391 559 LINE",
"250 559 LINE",
"250 377 OFFCURVE",
"72 -94 OFFCURVE",
"-43 -261 CURVE",
"157 -230 LINE",
"260 16 LINE"
);
},
{
closed = 1;
nodes = (
"595 176 OFFCURVE",
"554 171 OFFCURVE",
"477 171 CURVE SMOOTH",
"376 171 OFFCURVE",
"353 189 OFFCURVE",
"380 289 CURVE SMOOTH",
"410 401 OFFCURVE",
"474 466 OFFCURVE",
"553 466 CURVE SMOOTH",
"633 466 OFFCURVE",
"651 402 OFFCURVE",
"623 289 CURVE SMOOTH"
);
}
);
width = 846;
}
);
rightKerningGroup = RoundRight;
unicode = 0070;
},
{
glyphname = thorn;
lastChange = "2019-09-05 22:37:17 +0000";
layers = (
{
layerId = "BA196CD0-EE58-4274-B8DF-4393D3617A29";
paths = (
{
closed = 1;
nodes = (
"49 -180 LINE",
"138 -180 LINE",
"384 800 LINE",
"295 800 LINE"
);
},
{
closed = 1;
nodes = (
"312 50 OFFCURVE",
"521 151 OFFCURVE",
"584 371 CURVE SMOOTH",
"631 535 OFFCURVE",
"473 636 OFFCURVE",
"328 636 CURVE",
"226 498 OFFCURVE",
"136 188 OFFCURVE",
"166 50 CURVE"
);
},
{
closed = 1;
nodes = (
"188 137 OFFCURVE",
"168 235 OFFCURVE",
"209 375 CURVE SMOOTH",
"233 460 OFFCURVE",
"301 559 OFFCURVE",
"355 559 CURVE SMOOTH",
"407 559 OFFCURVE",
"538 460 OFFCURVE",
"514 375 CURVE SMOOTH",
"473 235 OFFCURVE",
"294 137 OFFCURVE",
"242 137 CURVE SMOOTH"
);
}
);
width = 566;
},
{
layerId = "BBDB329E-CE83-4304-A6B1-53EA5ACC004E";
paths = (
{
closed = 1;
nodes = (
"14 -207 LINE",
"158 -207 LINE",
"419 827 LINE",
"275 827 LINE"
);
},
{
closed = 1;
nodes = (
"159 23 LINE",
"360 23 OFFCURVE",
"554 171 OFFCURVE",
"611 371 CURVE SMOOTH",
"657 528 OFFCURVE",
"526 663 OFFCURVE",
"335 663 CURVE",
"307 647 LINE",
"196 497 OFFCURVE",
"108 179 OFFCURVE",
"138 38 CURVE"
);
},
{
closed = 1;
nodes = (
"213 164 OFFCURVE",
"203 261 OFFCURVE",
"236 374 CURVE SMOOTH",
"259 453 OFFCURVE",
"317 532 OFFCURVE",
"348 532 CURVE SMOOTH",
"407 532 OFFCURVE",
"501 427 OFFCURVE",
"487 376 CURVE SMOOTH",
"450 250 OFFCURVE",
"293 164 OFFCURVE",
"249 164 CURVE SMOOTH"
);
}
);
width = 566;
}
);
unicode = 00FE;
},
{
color = 7;
glyphname = q;
lastChange = "2019-10-11 15:56:55 +0000";
layers = (
{
associatedMasterId = "BA196CD0-EE58-4274-B8DF-4393D3617A29";
layerId = "550EFC85-22CC-4D43-B167-1DAEAAA2FB65";
name = "Regular May 31 12, 16:28";
paths = (
{
closed = 1;
nodes = (
"157 153 OFFCURVE",
"212 136 OFFCURVE",
"308 136 CURVE SMOOTH",
"403 136 OFFCURVE",
"463 153 OFFCURVE",
"463 286 CURVE SMOOTH",
"463 418 OFFCURVE",
"405 498 OFFCURVE",
"310 498 CURVE SMOOTH",
"215 498 OFFCURVE",
"157 418 OFFCURVE",
"157 286 CURVE SMOOTH"
);
},
{
closed = 1;
nodes = (
"497 82 LINE",
"459 17 OFFCURVE",
"402 -14 OFFCURVE",
"321 -14 CURVE SMOOTH",
"189 -14 OFFCURVE",
"98 101 OFFCURVE",
"98 273 CURVE SMOOTH",
"98 445 OFFCURVE",
"189 560 OFFCURVE",
"321 560 CURVE SMOOTH",
"402 560 OFFCURVE",
"459 529 OFFCURVE",
"497 464 CURVE",
"511 547 LINE",
"598 547 LINE",
"561 -118 LINE SMOOTH",
"557 -208 LINE",
"474 -208 LINE"
);
}
);
width = 718;
},
{
anchors = (
{
name = bottom;
position = "{344, 0}";
},
{
name = tail;
position = "{506, -110}";
},
{
name = top;
position = "{478, 500}";
},
{
name = top_hook;
position = "{549, 218}";
}
);
layerId = "BA196CD0-EE58-4274-B8DF-4393D3617A29";
paths = (
{
closed = 1;
nodes = (
"598 -200 LINE",
"637 -80 LINE",
"542 -110 LINE",
"506 -130 LINE",
"728 547 LINE",
"601 547 LINE",
"568 447 LINE",
"550 517 OFFCURVE",
"511 574 OFFCURVE",
"407 571 CURVE SMOOTH",
"288 567 OFFCURVE",
"163 485 OFFCURVE",
"104 286 CURVE SMOOTH",
"53 115 OFFCURVE",
"85 -3 OFFCURVE",
"218 -14 CURVE SMOOTH",
"299 -21 OFFCURVE",
"405 17 OFFCURVE",
"461 82 CURVE",
"346 -268 LINE"
);
},
{
closed = 1;
nodes = (
"201 137 OFFCURVE",
"158 153 OFFCURVE",
"195 273 CURVE SMOOTH",
"227 377 OFFCURVE",
"287 457 OFFCURVE",
"375 462 CURVE SMOOTH",
"460 466 OFFCURVE",
"501 394 OFFCURVE",
"469 273 CURVE SMOOTH",
"436 152 OFFCURVE",
"376 137 OFFCURVE",
"288 137 CURVE SMOOTH"
);
}
);
width = 835;
},
{
associatedMasterId = "BBDB329E-CE83-4304-A6B1-53EA5ACC004E";
layerId = "5892CAD6-04FA-4732-8FAB-EB7591270E8A";
name = "Regular May 31 12, 16:28";
paths = (
{
closed = 1;
nodes = (
"157 153 OFFCURVE",
"212 136 OFFCURVE",
"308 136 CURVE SMOOTH",
"403 136 OFFCURVE",
"463 153 OFFCURVE",
"463 286 CURVE SMOOTH",
"463 418 OFFCURVE",
"405 498 OFFCURVE",
"310 498 CURVE SMOOTH",
"215 498 OFFCURVE",
"157 418 OFFCURVE",
"157 286 CURVE SMOOTH"
);
},
{
closed = 1;
nodes = (
"497 82 LINE",
"459 17 OFFCURVE",
"402 -14 OFFCURVE",
"321 -14 CURVE SMOOTH",
"189 -14 OFFCURVE",
"98 101 OFFCURVE",
"98 273 CURVE SMOOTH",
"98 445 OFFCURVE",
"189 560 OFFCURVE",
"321 560 CURVE SMOOTH",
"402 560 OFFCURVE",
"459 529 OFFCURVE",
"497 464 CURVE",
"511 547 LINE",
"598 547 LINE",
"561 -118 LINE SMOOTH",
"557 -208 LINE",
"474 -208 LINE"
);
}
);
width = 718;
},
{
anchors = (
{
name = bottom;
position = "{362, 0}";
},
{
name = tail;
position = "{500, -127}";
},
{
name = top;
position = "{496, 500}";
},
{
name = top_hook;
position = "{567, 218}";
}
);
layerId = "BBDB329E-CE83-4304-A6B1-53EA5ACC004E";
paths = (
{
closed = 1;
nodes = (
"647 -201 LINE",
"704 -21 LINE",
"629 -45 LINE",
"553 -74 LINE",
"764 574 LINE",
"598 574 LINE",
"581 509 LINE",
"548 562 OFFCURVE",
"504 584 OFFCURVE",
"433 581 CURVE SMOOTH",
"282 574 OFFCURVE",
"149 457 OFFCURVE",
"100 273 CURVE SMOOTH",
"50 88 OFFCURVE",
"119 -35 OFFCURVE",
"269 -41 CURVE SMOOTH",
"326 -43 OFFCURVE",
"377 -27 OFFCURVE",
"422 2 CURVE",
"333 -285 LINE"
);
},
{
closed = 1;
nodes = (
"210 164 OFFCURVE",
"189 186 OFFCURVE",
"218 286 CURVE SMOOTH",
"252 404 OFFCURVE",
"310 465 OFFCURVE",
"390 465 CURVE SMOOTH",
"472 465 OFFCURVE",
"509 400 OFFCURVE",
"483 286 CURVE SMOOTH",
"460 186 OFFCURVE",
"413 164 OFFCURVE",
"310 164 CURVE SMOOTH"
);
}
);
width = 887;
}
);
leftKerningGroup = Round;
unicode = 0071;
},
{
color = 7;
glyphname = r;
lastChange = "2019-10-14 02:11:20 +0000";
layers = (
{
anchors = (
{
name = _vcenter;
position = "{182, 480}";
},
{
name = bottom;
position = "{113, -100}";
},
{
name = bottom_wide;
position = "{151, 0}";
},
{
name = center;
position = "{184, 236}";
},
{
name = top;
position = "{316, 547}";
}
);
layerId = "BA196CD0-EE58-4274-B8DF-4393D3617A29";
paths = (
{
closed = 1;
nodes = (
"397 543 OFFCURVE",
"364 528 OFFCURVE",
"297 486 CURVE",
"312 542 LINE",
"219 545 LINE",
"158 317 OFFCURVE",
"121 196 OFFCURVE",
"27 0 CURVE",
"230 0 LINE",
"244 154 OFFCURVE",
"246 277 OFFCURVE",
"261 314 CURVE SMOOTH",
"312 442 OFFCURVE",
"348 443 OFFCURVE",
"515 459 CURVE",
"515 549 LINE"
);
}
);
width = 569;
},
{
anchors = (
{
name = _vcenter;
position = "{396, 521}";
},
{
name = bottom;
position = "{151, -66}";
},
{
name = bottom_wide;
position = "{193, 0}";
},
{
name = center;
position = "{228, 274}";
},
{
name = top;
position = "{368, 585}";
}
);
layerId = "BBDB329E-CE83-4304-A6B1-53EA5ACC004E";
paths = (
{
closed = 1;
nodes = (
"456 571 OFFCURVE",
"438 566 OFFCURVE",
"380 537 CURVE",
"389 573 LINE",
"242 573 LINE",
"172 314 OFFCURVE",
"135 222 OFFCURVE",
"27 0 CURVE",
"266 0 LINE",
"280 122 OFFCURVE",
"301 204 OFFCURVE",
"321 274 CURVE",
"345 357 OFFCURVE",
"338 435 OFFCURVE",
"582 435 CURVE",
"558 577 LINE"
);
}
);
width = 642;
}
);
unicode = 0072;
},
{
glyphname = ramshorn;
lastChange = "2019-09-05 22:37:17 +0000";
layers = (
{
anchors = (
{
name = _curl;
position = "{334, 459}";
},
{
name = bottom;
position = "{378, 0}";
},
{
name = top;
position = "{522, 540}";
}
);
layerId = "BA196CD0-EE58-4274-B8DF-4393D3617A29";
paths = (
{
closed = 1;
nodes = (
"729 397 OFFCURVE",
"755 515 OFFCURVE",
"631 513 CURVE SMOOTH",
"503 511 OFFCURVE",
"461 427 OFFCURVE",
"370 295 CURVE SMOOTH",
"289 178 OFFCURVE",
"222 96 OFFCURVE",
"240 51 CURVE SMOOTH",
"261 0 OFFCURVE",
"283 -8 OFFCURVE",
"343 -8 CURVE SMOOTH",
"387 -8 OFFCURVE",
"442 1 OFFCURVE",
"490 51 CURVE SMOOTH",
"539 102 OFFCURVE",
"519 172 OFFCURVE",
"497 268 CURVE SMOOTH",
"469 391 OFFCURVE",
"450 511 OFFCURVE",
"362 511 CURVE SMOOTH",
"218 511 OFFCURVE",
"194 422 OFFCURVE",
"172 339 CURVE",
"234 339 LINE",
"256 422 OFFCURVE",
"272 448 OFFCURVE",
"348 448 CURVE SMOOTH",
"409 448 OFFCURVE",
"411 345 OFFCURVE",
"415 224 CURVE SMOOTH",
"418 117 OFFCURVE",
"425 57 OFFCURVE",
"361 57 CURVE SMOOTH",
"308 57 OFFCURVE",
"340 115 OFFCURVE",
"415 224 CURVE SMOOTH",
"504 354 OFFCURVE",
"556 453 OFFCURVE",
"615 453 CURVE SMOOTH",
"659 453 OFFCURVE",
"659 397 OFFCURVE",
"647 339 CURVE",
"713 339 LINE"
);
}
);
width = 703;
},
{
anchors = (
{
name = _curl;
position = "{334, 459}";
},
{
name = bottom;
position = "{378, 0}";
},
{
name = top;
position = "{522, 540}";
}
);
layerId = "BBDB329E-CE83-4304-A6B1-53EA5ACC004E";
paths = (
{
closed = 1;
nodes = (
"756 398 OFFCURVE",
"789 542 OFFCURVE",
"639 540 CURVE SMOOTH",
"488 538 OFFCURVE",
"437 435 OFFCURVE",
"347 305 CURVE SMOOTH",
"268 190 OFFCURVE",
"189 95 OFFCURVE",
"214 36 CURVE SMOOTH",
"236 -20 OFFCURVE",
"262 -35 OFFCURVE",
"336 -35 CURVE SMOOTH",
"405 -35 OFFCURVE",
"462 -12 OFFCURVE",
"509 36 CURVE SMOOTH",
"571 101 OFFCURVE",
"546 185 OFFCURVE",
"524 280 CURVE SMOOTH",
"498 402 OFFCURVE",
"475 538 OFFCURVE",
"369 538 CURVE SMOOTH",
"178 538 OFFCURVE",
"161 394 OFFCURVE",
"137 312 CURVE",
"254 312 LINE",
"282 414 OFFCURVE",
"281 421 OFFCURVE",
"341 421 CURVE SMOOTH",
"369 421 OFFCURVE",
"381 379 OFFCURVE",
"386 216 CURVE SMOOTH",
"390 89 OFFCURVE",
"390 84 OFFCURVE",
"368 84 CURVE SMOOTH",
"355 84 OFFCURVE",
"364 108 OFFCURVE",
"437 214 CURVE SMOOTH",
"526 343 OFFCURVE",
"572 426 OFFCURVE",
"608 426 CURVE SMOOTH",
"627 426 OFFCURVE",
"633 388 OFFCURVE",
"614 312 CURVE",
"733 312 LINE"
);
}
);
width = 703;
}
);
unicode = 0264;
},
{
glyphname = rfishhook;
lastChange = "2019-09-27 22:29:37 +0000";
layers = (
{
anchors = (
{
name = _top_hook;
position = "{65, 58}";
},
{
name = center;
position = "{131, 306}";
}
);
layerId = "BA196CD0-EE58-4274-B8DF-4393D3617A29";
paths = (
{
closed = 1;
nodes = (
"7 4 LINE",
"93 4 LINE",
"199 399 LINE",
"113 399 LINE"
);
},
{
closed = 1;
nodes = (
"188 567 OFFCURVE",
"162 561 OFFCURVE",
"128 449 CURVE SMOOTH",
"113 399 OFFCURVE",
"117 415 OFFCURVE",
"98 345 CURVE",
"184 345 LINE",
"192 376 OFFCURVE",
"199 401 OFFCURVE",
"207 430 CURVE SMOOTH",
"220 478 OFFCURVE",
"224 481 OFFCURVE",
"292 481 CURVE",
"315 566 LINE"
);
}
);
width = 319;
},
{
anchors = (
{
name = _top_hook;
position = "{140, 66}";
},
{
name = center;
position = "{206, 299}";
}
);
layerId = "BBDB329E-CE83-4304-A6B1-53EA5ACC004E";
paths = (
{
closed = 1;
nodes = (
"47 -23 LINE",
"188 -23 LINE",
"308 426 LINE",
"168 426 LINE"
);
},
{
closed = 1;
nodes = (
"253 596 OFFCURVE",
"216 580 OFFCURVE",
"176 450 CURVE SMOOTH",
"159 395 OFFCURVE",
"166 420 OFFCURVE",
"139 318 CURVE",
"279 318 LINE",
"292 365 OFFCURVE",
"299 393 OFFCURVE",
"309 430 CURVE SMOOTH",
"319 466 OFFCURVE",
"303 451 OFFCURVE",
"388 455 CURVE",
"425 593 LINE"
);
}
);
width = 319;
}
);
unicode = 027E;
},
{
glyphname = rlonglegturned;
lastChange = "2019-10-11 17:13:42 +0000";
layers = (
{
components = (
{
name = rturned;
}
);
layerId = "BA196CD0-EE58-4274-B8DF-4393D3617A29";
paths = (
{
closed = 1;
nodes = (
"327 512 LINE",
"531 550 LINE",
"619 800 LINE",
"352 800 LINE"
);
}
);
width = 534;
},
{
components = (
{
name = rturned;
transform = "{1, 0, 0, 1, 5, 0}";
}
);
layerId = "BBDB329E-CE83-4304-A6B1-53EA5ACC004E";
paths = (
{
closed = 1;
nodes = (
"366 468 LINE",
"585 468 LINE",
"709 822 LINE",
"423 822 LINE"
);
}
);
width = 544;
}
);
unicode = 027A;
},
{
color = 7;
glyphname = s;
lastChange = "2019-10-16 22:39:14 +0000";
layers = (
{
anchors = (
{
name = _right_el;
position = "{230, 529}";
},
{
name = bottom;
position = "{235, -96}";
},
{
name = bottom_hook;
position = "{51, -98}";
},
{
name = center;
position = "{358, 269}";
},
{
name = t;
position = "{612, 333}";
},
{
name = top;
position = "{484, 619}";
}
);
layerId = "BA196CD0-EE58-4274-B8DF-4393D3617A29";
paths = (
{
closed = 1;
nodes = (
"530 553 OFFCURVE",
"500 564 OFFCURVE",
"432 564 CURVE SMOOTH",
"258 564 OFFCURVE",
"171 477 OFFCURVE",
"168 381 CURVE SMOOTH",
"165 287 OFFCURVE",
"246 247 OFFCURVE",
"296 232 CURVE SMOOTH",
"334 220 OFFCURVE",
"400 209 OFFCURVE",
"400 177 CURVE SMOOTH",
"400 136 OFFCURVE",
"350 130 OFFCURVE",
"304 130 CURVE SMOOTH",
"253 130 OFFCURVE",
"221 135 OFFCURVE",
"168 157 CURVE",
"40 48 LINE",
"116 7 OFFCURVE",
"156 -15 OFFCURVE",
"264 -15 CURVE SMOOTH",
"398 -15 OFFCURVE",
"521 40 OFFCURVE",
"535 136 CURVE SMOOTH",
"545 211 OFFCURVE",
"481 282 OFFCURVE",
"382 307 CURVE SMOOTH",
"333 319 OFFCURVE",
"267 346 OFFCURVE",
"269 380 CURVE SMOOTH",
"271 420 OFFCURVE",
"325 465 OFFCURVE",
"398 465 CURVE SMOOTH",
"428 465 OFFCURVE",
"505 458 OFFCURVE",
"545 453 CURVE",
"582 549 LINE"
);
}
);
width = 676;
},
{
anchors = (
{
name = _right_el;
position = "{284, 529}";
},
{
name = bottom;
position = "{308, -42}";
},
{
name = bottom_hook;
position = "{105, -98}";
},
{
name = center;
position = "{389, 269}";
},
{
name = t;
position = "{773, 315}";
},
{
name = top;
position = "{521, 674}";
}
);
layerId = "BBDB329E-CE83-4304-A6B1-53EA5ACC004E";
paths = (
{
closed = 1;
nodes = (
"612 611 OFFCURVE",
"486 623 OFFCURVE",
"415 618 CURVE SMOOTH",
"253 607 OFFCURVE",
"169 509 OFFCURVE",
"188 406 CURVE SMOOTH",
"200 340 OFFCURVE",
"246 306 OFFCURVE",
"288 286 CURVE SMOOTH",
"355 253 OFFCURVE",
"452 239 OFFCURVE",
"456 207 CURVE SMOOTH",
"460 172 OFFCURVE",
"380 168 OFFCURVE",
"350 170 CURVE SMOOTH",
"305 173 OFFCURVE",
"288 192 OFFCURVE",
"222 219 CURVE",
"46 71 LINE",
"133 19 OFFCURVE",
"189 -11 OFFCURVE",
"311 -11 CURVE SMOOTH",
"496 -11 OFFCURVE",
"618 39 OFFCURVE",
"624 187 CURVE SMOOTH",
"626 270 OFFCURVE",
"576 313 OFFCURVE",
"447 352 CURVE SMOOTH",
"367 376 OFFCURVE",
"335 408 OFFCURVE",
"337 448 CURVE SMOOTH",
"339 490 OFFCURVE",
"381 506 OFFCURVE",
"472 502 CURVE SMOOTH",
"539 499 OFFCURVE",
"532 494 OFFCURVE",
"609 479 CURVE",
"678 600 LINE"
);
}
);
width = 757;
}
);
unicode = 0073;
},
{
glyphname = saltillo;
lastChange = "2019-09-05 22:37:17 +0000";
layers = (
{
layerId = "BA196CD0-EE58-4274-B8DF-4393D3617A29";
paths = (
{
closed = 1;
nodes = (
"207 336 LINE",
"255 336 LINE",
"406 758 LINE",
"284 758 LINE"
);
}
);
width = 284;
},
{
layerId = "BBDB329E-CE83-4304-A6B1-53EA5ACC004E";
paths = (
{
closed = 1;
nodes = (
"336 309 LINE",
"434 309 LINE",
"605 785 LINE",
"423 785 LINE"
);
}
);
width = 606;
}
);
unicode = A78C;
},
{
glyphname = germandbls;
lastChange = "2019-09-05 22:37:17 +0000";
layers = (
{
layerId = "BA196CD0-EE58-4274-B8DF-4393D3617A29";
paths = (
{
closed = 1;
nodes = (
"217 0 LINE",
"341 553 LINE",
"384 665 OFFCURVE",
"437 705 OFFCURVE",
"522 705 CURVE SMOOTH",
"597 705 OFFCURVE",
"629 699 OFFCURVE",
"648 580 CURVE",
"511 561 OFFCURVE",
"466 502 OFFCURVE",
"444 420 CURVE SMOOTH",
"429 366 OFFCURVE",
"452 319 OFFCURVE",
"472 281 CURVE",
"505 254 LINE",
"532 234 OFFCURVE",
"550 217 OFFCURVE",
"556 203 CURVE SMOOTH",
"562 189 OFFCURVE",
"563 176 OFFCURVE",
"560 162 CURVE SMOOTH",
"549 122 OFFCURVE",
"503 100 OFFCURVE",
"426 100 CURVE SMOOTH",
"383 100 OFFCURVE",
"341 109 OFFCURVE",
"293 129 CURVE",
"261 10 LINE",
"305 -6 OFFCURVE",
"348 -14 OFFCURVE",
"390 -14 CURVE SMOOTH",
"529 -14 OFFCURVE",
"621 47 OFFCURVE",
"651 159 CURVE SMOOTH",
"668 224 OFFCURVE",
"657 260 OFFCURVE",
"568 329 CURVE SMOOTH",
"544 347 LINE SMOOTH",
"509 375 OFFCURVE",
"498 399 OFFCURVE",
"506 430 CURVE SMOOTH",
"523 493 OFFCURVE",
"591 532 OFFCURVE",
"691 537 CURVE",
"730 683 OFFCURVE",
"676 760 OFFCURVE",
"539 760 CURVE SMOOTH",
"396 760 OFFCURVE",
"294 686 OFFCURVE",
"259 555 CURVE",
"81 0 LINE"
);
}
);
width = 689;
},
{
layerId = "BBDB329E-CE83-4304-A6B1-53EA5ACC004E";
paths = (
{
closed = 1;
nodes = (
"238 -27 LINE",
"368 552 LINE",
"404 646 OFFCURVE",
"443 678 OFFCURVE",
"515 678 CURVE SMOOTH",
"582 678 OFFCURVE",
"600 668 OFFCURVE",
"614 600 CURVE",
"505 577 OFFCURVE",
"444 521 OFFCURVE",
"417 420 CURVE SMOOTH",
"399 355 OFFCURVE",
"428 299 OFFCURVE",
"448 261 CURVE",
"484 231 LINE",
"510 212 OFFCURVE",
"525 198 OFFCURVE",
"530 188 CURVE",
"534 177 OFFCURVE",
"534 170 OFFCURVE",
"532 162 CURVE SMOOTH",
"527 141 OFFCURVE",
"496 127 OFFCURVE",
"433 127 CURVE SMOOTH",
"384 127 OFFCURVE",
"336 140 OFFCURVE",
"277 169 CURVE",
"229 -9 LINE",
"282 -31 OFFCURVE",
"332 -41 OFFCURVE",
"383 -41 CURVE SMOOTH",
"536 -41 OFFCURVE",
"644 32 OFFCURVE",
"678 159 CURVE SMOOTH",
"699 239 OFFCURVE",
"679 282 OFFCURVE",
"589 352 CURVE SMOOTH",
"566 370 LINE SMOOTH",
"536 393 OFFCURVE",
"528 409 OFFCURVE",
"533 430 CURVE SMOOTH",
"546 476 OFFCURVE",
"599 506 OFFCURVE",
"685 510 CURVE",
"719 537 LINE",
"761 697 OFFCURVE",
"700 787 OFFCURVE",
"546 787 CURVE SMOOTH",
"388 787 OFFCURVE",
"271 701 OFFCURVE",
"232 556 CURVE",
"45 -27 LINE"
);
}
);
width = 689;
}
);
unicode = 00DF;
},
{
glyphname = longs;
lastChange = "2019-10-14 02:58:33 +0000";
layers = (
{
anchors = (
{
name = t;
position = "{449, 336}";
}
);
layerId = "BA196CD0-EE58-4274-B8DF-4393D3617A29";
paths = (
{
closed = 1;
nodes = (
"177 0 LINE",
"285 458 LINE",
"290 490 OFFCURVE",
"296 520 OFFCURVE",
"303 547 CURVE SMOOTH",
"334 664 OFFCURVE",
"391 732 OFFCURVE",
"456 732 CURVE SMOOTH",
"480 732 OFFCURVE",
"504 723 OFFCURVE",
"530 704 CURVE",
"550 779 LINE",
"525 800 OFFCURVE",
"495 810 OFFCURVE",
"464 810 CURVE SMOOTH",
"367 810 OFFCURVE",
"254 715 OFFCURVE",
"209 547 CURVE",
"185 458 LINE",
"47 0 LINE"
);
}
);
width = 600;
},
{
anchors = (
{
name = t;
position = "{449, 318}";
}
);
layerId = "BBDB329E-CE83-4304-A6B1-53EA5ACC004E";
paths = (
{
closed = 1;
nodes = (
"195 3 LINE",
"262 287 LINE",
"270 370 OFFCURVE",
"282 436 OFFCURVE",
"296 489 CURVE SMOOTH",
"334 631 OFFCURVE",
"390 677 OFFCURVE",
"452 677 CURVE SMOOTH",
"474 677 OFFCURVE",
"498 671 OFFCURVE",
"521 661 CURVE",
"566 790 LINE",
"507 808 OFFCURVE",
"455 818 OFFCURVE",
"412 818 CURVE SMOOTH",
"302 818 OFFCURVE",
"237 755 OFFCURVE",
"186 604 CURVE",
"147 461 LINE",
"9 3 LINE"
);
}
);
width = 600;
}
);
unicode = 017F;
},
{
color = 7;
glyphname = t;
lastChange = "2019-10-16 22:26:15 +0000";
layers = (
{
anchors = (
{
name = _t;
position = "{100, 336}";
},
{
name = bottom;
position = "{242, -49}";
},
{
name = caron;
position = "{503, 616}";
},
{
name = center;
position = "{285, 337}";
},
{
name = curl;
position = "{552, 330}";
},
{
name = top;
position = "{475, 764}";
},
{
name = top_hook;
position = "{384, 639}";
},
{
name = topright;
position = "{638, 500}";
}
);
layerId = "BA196CD0-EE58-4274-B8DF-4393D3617A29";
paths = (
{
closed = 1;
nodes = (
"156 483 LINE",
"566 483 LINE",
"595 560 LINE",
"203 560 LINE"
);
},
{
closed = 1;
nodes = (
"437 151 OFFCURVE",
"345 137 OFFCURVE",
"293 151 CURVE",
"445 748 LINE",
"340 738 LINE",
"247 344 OFFCURVE",
"139 58 OFFCURVE",
"135 40 CURVE SMOOTH",
"133 33 OFFCURVE",
"126 0 OFFCURVE",
"160 0 CURVE SMOOTH",
"207 0 OFFCURVE",
"385 0 OFFCURVE",
"423 2 CURVE",
"455 150 LINE"
);
}
);
width = 622;
},
{
anchors = (
{
name = _t;
position = "{175, 316}";
},
{
name = bottom;
position = "{296, -59}";
},
{
name = caron;
position = "{538, 616}";
},
{
name = center;
position = "{329, 341}";
},
{
name = curl;
position = "{584, 291}";
},
{
name = top;
position = "{468, 770}";
},
{
name = top_hook;
position = "{433, 692}";
},
{
name = topright;
position = "{673, 500}";
}
);
layerId = "BBDB329E-CE83-4304-A6B1-53EA5ACC004E";
paths = (
{
closed = 1;
nodes = (
"142 431 LINE",
"629 431 LINE",
"629 552 LINE",
"227 552 LINE"
);
},
{
closed = 1;
nodes = (
"467 154 OFFCURVE",
"415 165 OFFCURVE",
"355 178 CURVE",
"546 764 LINE",
"398 746 LINE",
"337 424 OFFCURVE",
"149 102 OFFCURVE",
"143 76 CURVE SMOOTH",
"131 35 OFFCURVE",
"148 0 OFFCURVE",
"188 0 CURVE",
"149 0 OFFCURVE",
"198 0 OFFCURVE",
"479 0 CURVE",
"523 176 LINE"
);
}
);
width = 691;
}
);
unicode = 0074;
},
{
glyphname = tccurl;
lastChange = "2019-10-04 23:56:17 +0000";
layers = (
{
components = (
{
name = t;
},
{
name = ccurl;
transform = "{1, 0, 0, 1, 349, -6}";
}
);
layerId = "BA196CD0-EE58-4274-B8DF-4393D3617A29";
paths = (
{
closed = 1;
nodes = (
"254 0 LINE",
"664 0 LINE",
"535 110 LINE SMOOTH",
"519 124 OFFCURVE",
"530 190 OFFCURVE",
"503 182 CURVE SMOOTH",
"453 167 OFFCURVE",
"363 141 OFFCURVE",
"305 152 CURVE SMOOTH",
"214 169 OFFCURVE",
"179 199 OFFCURVE",
"219 93 CURVE SMOOTH"
);
}
);
width = 1075;
},
{
components = (
{
name = t;
transform = "{1, 0, 0, 1, 7, 0}";
},
{
locked = 1;
name = ccurl;
transform = "{1, 0, 0, 1, 415, 22}";
}
);
layerId = "BBDB329E-CE83-4304-A6B1-53EA5ACC004E";
paths = (
{
closed = 1;
nodes = (
"254 0 LINE",
"664 0 LINE",
"589 136 LINE SMOOTH",
"579 155 OFFCURVE",
"557 203 OFFCURVE",
"530 195 CURVE SMOOTH",
"480 180 OFFCURVE",
"385 141 OFFCURVE",
"329 158 CURVE SMOOTH",
"272 175 OFFCURVE",
"179 199 OFFCURVE",
"219 93 CURVE SMOOTH"
);
}
);
width = 1123;
}
);
unicode = 02A8;
},
{
glyphname = tesh;
lastChange = "2019-09-18 20:48:13 +0000";
layers = (
{
components = (
{
name = t;
transform = "{1, 0, 0.03492, 1, -19, 0}";
},
{
name = esh;
transform = "{0.97435, 0.22503, -0.22503, 0.97435, 217, -67}";
}
);
layerId = "BA196CD0-EE58-4274-B8DF-4393D3617A29";
paths = (
{
closed = 1;
nodes = (
"557 478 LINE",
"709 478 LINE",
"726 555 LINE",
"575 555 LINE"
);
}
);
width = 930;
},
{
components = (
{
name = t;
transform = "{1, 0, 0.03492, 1, -19, 0}";
},
{
name = esh;
transform = "{0.97435, 0.22503, -0.22503, 0.97435, 217, -67}";
}
);
layerId = "BBDB329E-CE83-4304-A6B1-53EA5ACC004E";
paths = (
{
closed = 1;
nodes = (
"513 522 LINE",
"719 522 LINE",
"751 642 LINE",
"545 642 LINE"
);
}
);
width = 930;
}
);
unicode = 02A7;
},
{
glyphname = tretroflexhook;
lastChange = "2019-09-05 22:37:17 +0000";
layers = (
{
anchors = (
{
name = bottom;
position = "{341, 0}";
},
{
name = caron;
position = "{545, 616}";
},
{
name = center;
position = "{336, 341}";
},
{
name = circumflexbelowcomb;
position = "{344, -25}";
},
{
name = curl;
position = "{608, 584}";
},
{
name = top;
position = "{434, 661}";
},
{
name = top_hook;
position = "{426, 639}";
},
{
name = topright;
position = "{680, 500}";
}
);
layerId = "BA196CD0-EE58-4274-B8DF-4393D3617A29";
paths = (
{
closed = 1;
nodes = (
"228 548 LINE",
"638 548 LINE",
"637 615 LINE",
"275 615 LINE"
);
},
{
closed = 1;
nodes = (
"411 11 OFFCURVE",
"339 11 OFFCURVE",
"288 11 CURVE",
"517 737 LINE",
"422 737 LINE",
"333 499 OFFCURVE",
"146 -66 OFFCURVE",
"140 -90 CURVE SMOOTH",
"138 -97 OFFCURVE",
"130 -140 OFFCURVE",
"164 -140 CURVE SMOOTH",
"212 -140 OFFCURVE",
"359 -140 OFFCURVE",
"397 -138 CURVE",
"429 10 LINE"
);
}
);
width = 572;
},
{
anchors = (
{
name = bottom;
position = "{341, 0}";
},
{
name = caron;
position = "{545, 616}";
},
{
name = center;
position = "{336, 341}";
},
{
name = circumflexbelowcomb;
position = "{344, -25}";
},
{
name = curl;
position = "{608, 584}";
},
{
name = top;
position = "{434, 661}";
},
{
name = top_hook;
position = "{426, 639}";
},
{
name = topright;
position = "{680, 500}";
}
);
layerId = "BBDB329E-CE83-4304-A6B1-53EA5ACC004E";
paths = (
{
closed = 1;
nodes = (
"179 521 LINE",
"666 521 LINE",
"666 642 LINE",
"264 642 LINE"
);
},
{
closed = 1;
nodes = (
"422 38 OFFCURVE",
"370 38 OFFCURVE",
"323 38 CURVE",
"552 764 LINE",
"405 764 LINE",
"320 542 OFFCURVE",
"119 -64 OFFCURVE",
"112 -90 CURVE SMOOTH",
"101 -131 OFFCURVE",
"118 -167 OFFCURVE",
"157 -167 CURVE",
"115 -167 OFFCURVE",
"152 -167 OFFCURVE",
"419 -168 CURVE",
"462 36 LINE"
);
}
);
width = 572;
}
);
unicode = 0288;
},
{
glyphname = ts;
lastChange = "2019-10-04 14:14:43 +0000";
layers = (
{
components = (
{
alignment = -1;
name = s;
transform = "{1, 0, 0, 1.05709, 365, 0}";
},
{
alignment = -1;
name = t;
transform = "{0.93149, 0, 0, 1, 5, 0}";
}
);
layerId = "BA196CD0-EE58-4274-B8DF-4393D3617A29";
paths = (
{
closed = 1;
nodes = (
"317 471 LINE",
"679 471 LINE",
"696 534 LINE",
"335 537 LINE"
);
}
);
width = 996;
},
{
components = (
{
alignment = -1;
name = s;
transform = "{1, 0, 0, 1.05709, 365, -7}";
},
{
alignment = -1;
name = t;
transform = "{0.93149, 0, 0, 1, 5, 0}";
}
);
layerId = "BBDB329E-CE83-4304-A6B1-53EA5ACC004E";
width = 996;
}
);
unicode = 02A6;
},
{
color = 7;
glyphname = u;
lastChange = "2019-10-14 02:55:01 +0000";
layers = (
{
anchors = (
{
name = bottom;
position = "{307, -128}";
},
{
name = bottomleft;
position = "{60, -13}";
},
{
name = center;
position = "{357, 335}";
},
{
name = horn;
position = "{676, 456}";
},
{
name = ogonek;
position = "{495, 1}";
},
{
name = top;
position = "{463, 630}";
},
{
name = topright;
position = "{746, 500}";
}
);
layerId = "BA196CD0-EE58-4274-B8DF-4393D3617A29";
paths = (
{
closed = 1;
nodes = (
"348 -14 OFFCURVE",
"413 -7 OFFCURVE",
"473 84 CURVE",
"447 0 LINE",
"557 0 LINE",
"683 547 LINE",
"553 547 LINE",
"501 315 LINE",
"469 225 OFFCURVE",
"430 172 OFFCURVE",
"332 172 CURVE SMOOTH",
"250 172 OFFCURVE",
"205 140 OFFCURVE",
"234 297 CURVE SMOOTH",
"280 547 LINE",
"174 547 LINE",
"107 216 LINE SMOOTH",
"66 16 OFFCURVE",
"144 -14 OFFCURVE",
"269 -14 CURVE SMOOTH"
);
}
);
width = 734;
},
{
anchors = (
{
name = bottom;
position = "{306, 0}";
},
{
name = bottomleft;
position = "{91, 26}";
},
{
name = center;
position = "{371, 367}";
},
{
name = horn;
position = "{675, 456}";
},
{
name = ogonek;
position = "{494, 5}";
},
{
name = top;
position = "{489, 666}";
},
{
name = topright;
position = "{745, 500}";
}
);
layerId = "BBDB329E-CE83-4304-A6B1-53EA5ACC004E";
paths = (
{
closed = 1;
nodes = (
"326 -23 OFFCURVE",
"375 -13 OFFCURVE",
"416 12 CURVE",
"412 3 LINE",
"579 3 LINE",
"716 574 LINE",
"573 574 LINE",
"493 317 LINE",
"457 217 OFFCURVE",
"405 167 OFFCURVE",
"338 167 CURVE SMOOTH",
"256 167 OFFCURVE",
"237 167 OFFCURVE",
"261 299 CURVE SMOOTH",
"312 574 LINE",
"181 574 LINE",
"108 214 LINE SMOOTH",
"74 45 OFFCURVE",
"109 -23 OFFCURVE",
"260 -23 CURVE SMOOTH"
);
}
);
width = 755;
}
);
unicode = 0075;
},
{
color = 7;
glyphname = v;
lastChange = "2019-10-11 15:56:55 +0000";
layers = (
{
anchors = (
{
name = bottom;
position = "{328, 0}";
},
{
name = top;
position = "{495, 575}";
}
);
layerId = "BA196CD0-EE58-4274-B8DF-4393D3617A29";
paths = (
{
closed = 1;
nodes = (
"426 0 LINE",
"485 144 LINE",
"774 547 LINE",
"678 547 LINE",
"377 146 LINE",
"270 547 LINE",
"174 547 LINE",
"250 144 LINE",
"240 0 LINE"
);
}
);
width = 804;
},
{
anchors = (
{
name = bottom;
position = "{370, 0}";
},
{
name = top;
position = "{523, 570}";
}
);
layerId = "BBDB329E-CE83-4304-A6B1-53EA5ACC004E";
paths = (
{
closed = 1;
nodes = (
"485 0 LINE",
"551 136 LINE",
"866 574 LINE",
"710 574 LINE",
"434 206 LINE",
"336 574 LINE",
"181 574 LINE",
"264 136 LINE",
"252 0 LINE"
);
}
);
width = 889;
}
);
unicode = 0076;
},
{
glyphname = vhook;
lastChange = "2019-09-09 14:22:38 +0000";
layers = (
{
anchors = (
{
name = _vhook;
position = "{536, 456}";
},
{
name = bottom;
position = "{360, 0}";
},
{
name = horn;
position = "{645, 446}";
},
{
name = ogonek;
position = "{340, -48}";
},
{
name = top;
position = "{482, 506}";
},
{
name = topright;
position = "{748, 500}";
}
);
layerId = "BA196CD0-EE58-4274-B8DF-4393D3617A29";
paths = (
{
closed = 1;
nodes = (
"88 27 OFFCURVE",
"167 -16 OFFCURVE",
"292 -16 CURVE SMOOTH",
"500 -16 OFFCURVE",
"528 161 OFFCURVE",
"554 258 CURVE SMOOTH",
"610 469 OFFCURVE",
"656 570 OFFCURVE",
"465 570 CURVE",
"445 495 LINE",
"539 495 OFFCURVE",
"505 410 OFFCURVE",
"490 354 CURVE SMOOTH",
"448 197 OFFCURVE",
"431 140 OFFCURVE",
"333 140 CURVE SMOOTH",
"252 140 OFFCURVE",
"204 140 OFFCURVE",
"246 297 CURVE SMOOTH",
"313 547 LINE",
"227 547 LINE",
"139 216 LINE SMOOTH"
);
}
);
width = 566;
},
{
anchors = (
{
name = _vhook;
position = "{536, 456}";
},
{
name = bottom;
position = "{360, 0}";
},
{
name = horn;
position = "{645, 446}";
},
{
name = ogonek;
position = "{340, -48}";
},
{
name = top;
position = "{482, 506}";
},
{
name = topright;
position = "{748, 500}";
}
);
layerId = "BBDB329E-CE83-4304-A6B1-53EA5ACC004E";
paths = (
{
closed = 1;
nodes = (
"53 38 OFFCURVE",
"109 -43 OFFCURVE",
"274 -43 CURVE SMOOTH",
"513 -43 OFFCURVE",
"545 162 OFFCURVE",
"571 258 CURVE SMOOTH",
"630 475 OFFCURVE",
"690 607 OFFCURVE",
"435 596 CURVE",
"400 467 LINE",
"477 471 OFFCURVE",
"483 466 OFFCURVE",
"452 354 CURVE SMOOTH",
"405 184 OFFCURVE",
"395 167 OFFCURVE",
"331 167 CURVE SMOOTH",
"249 167 OFFCURVE",
"229 167 OFFCURVE",
"264 297 CURVE SMOOTH",
"338 574 LINE",
"197 574 LINE",
"101 216 LINE SMOOTH"
);
}
);
width = 566;
}
);
unicode = 028B;
},
{
color = 7;
glyphname = w;
lastChange = "2019-10-12 21:09:54 +0000";
layers = (
{
anchors = (
{
name = bottom;
position = "{381, 0}";
},
{
name = top;
position = "{591, 709}";
},
{
name = top_hook;
position = "{901, 311}";
}
);
layerId = "BA196CD0-EE58-4274-B8DF-4393D3617A29";
paths = (
{
closed = 1;
nodes = (
"277 0 LINE",
"432 189 LINE",
"481 0 LINE",
"608 0 LINE",
"899 561 LINE",
"808 561 LINE",
"601 198 LINE",
"526 423 LINE",
"464 423 LINE",
"268 198 LINE",
"268 560 LINE",
"177 560 LINE",
"155 0 LINE"
);
}
);
width = 926;
},
{
anchors = (
{
name = bottom;
position = "{401, 0}";
},
{
name = top;
position = "{569, 652}";
},
{
name = top_hook;
position = "{921, 311}";
}
);
layerId = "BBDB329E-CE83-4304-A6B1-53EA5ACC004E";
paths = (
{
closed = 1;
nodes = (
"306 0 LINE",
"437 132 LINE",
"478 0 LINE",
"642 0 LINE",
"961 571 LINE",
"815 571 LINE",
"632 263 LINE",
"569 450 LINE",
"476 450 LINE",
"312 263 LINE",
"296 574 LINE",
"181 574 LINE",
"147 0 LINE"
);
}
);
width = 985;
}
);
unicode = 0077;
},
{
color = 7;
glyphname = x;
lastChange = "2019-10-11 15:56:55 +0000";
layers = (
{
anchors = (
{
name = bottom;
position = "{359, 0}";
},
{
name = top;
position = "{493, 500}";
}
);
layerId = "BA196CD0-EE58-4274-B8DF-4393D3617A29";
paths = (
{
closed = 1;
nodes = (
"198 0 LINE",
"761 528 LINE",
"649 528 LINE",
"27 0 LINE"
);
},
{
closed = 1;
nodes = (
"359 528 LINE",
"262 528 LINE",
"467 0 LINE",
"648 0 LINE"
);
}
);
width = 825;
},
{
anchors = (
{
name = bottom;
position = "{374, 13}";
},
{
name = top;
position = "{517, 500}";
}
);
layerId = "BBDB329E-CE83-4304-A6B1-53EA5ACC004E";
paths = (
{
closed = 1;
nodes = (
"493 0 LINE",
"709 0 LINE",
"428 595 LINE",
"262 595 LINE"
);
},
{
closed = 1;
nodes = (
"27 0 LINE",
"244 0 LINE",
"839 595 LINE",
"677 595 LINE"
);
}
);
width = 886;
}
);
leftKerningGroup = Round;
unicode = 0078;
},
{
color = 7;
glyphname = y;
lastChange = "2019-10-12 21:15:25 +0000";
layers = (
{
anchors = (
{
name = bottom;
position = "{300, 0}";
},
{
name = dotbelow;
position = "{559, -66}";
},
{
name = top;
position = "{499, 725}";
},
{
name = top_hook;
position = "{716, 319}";
}
);
layerId = "BA196CD0-EE58-4274-B8DF-4393D3617A29";
paths = (
{
closed = 1;
nodes = (
"620 562 LINE",
"410 149 LINE",
"274 562 LINE",
"178 562 LINE",
"298 41 LINE SMOOTH",
"312 -19 OFFCURVE",
"265 -99 OFFCURVE",
"99 -99 CURVE SMOOTH",
"36 -99 LINE",
"-31 -245 LINE",
"108 -245 LINE SMOOTH",
"253 -245 OFFCURVE",
"368 -211 OFFCURVE",
"426 -93 CURVE SMOOTH",
"745 562 LINE"
);
}
);
width = 771;
},
{
anchors = (
{
name = bottom;
position = "{345, 0}";
},
{
name = dotbelow;
position = "{583, -103}";
},
{
name = top;
position = "{506, 693}";
},
{
name = top_hook;
position = "{761, 319}";
}
);
layerId = "BBDB329E-CE83-4304-A6B1-53EA5ACC004E";
paths = (
{
closed = 1;
nodes = (
"643 574 LINE",
"463 227 LINE",
"341 574 LINE",
"181 574 LINE",
"338 59 LINE SMOOTH",
"359 -11 OFFCURVE",
"203 -101 OFFCURVE",
"129 -77 CURVE SMOOTH",
"50 -51 LINE",
"14 -245 LINE",
"120 -259 LINE SMOOTH",
"241 -275 OFFCURVE",
"387 -215 OFFCURVE",
"450 -101 CURVE SMOOTH",
"825 574 LINE"
);
}
);
width = 848;
}
);
unicode = 0079;
},
{
color = 7;
glyphname = z;
lastChange = "2019-10-12 21:17:15 +0000";
layers = (
{
anchors = (
{
name = _right_el;
position = "{275, 539}";
},
{
name = bottom;
position = "{285, -86}";
},
{
name = bottomhook;
position = "{430, 27}";
},
{
name = center;
position = "{403, 288}";
},
{
name = top;
position = "{533, 662}";
}
);
layerId = "BA196CD0-EE58-4274-B8DF-4393D3617A29";
paths = (
{
closed = 1;
nodes = (
"533 0 LINE",
"508 121 LINE",
"250 121 LINE",
"677 462 LINE",
"700 549 LINE",
"264 549 LINE",
"206 452 LINE",
"522 452 LINE",
"86 131 LINE",
"27 0 LINE"
);
}
);
width = 730;
},
{
anchors = (
{
name = _right_el;
position = "{315, 539}";
},
{
name = bottom;
position = "{330, -7}";
},
{
name = bottomhook;
position = "{470, 27}";
},
{
name = center;
position = "{403, 288}";
},
{
name = top;
position = "{531, 633}";
}
);
layerId = "BBDB329E-CE83-4304-A6B1-53EA5ACC004E";
paths = (
{
closed = 1;
nodes = (
"515 455 LINE",
"105 145 LINE",
"27 0 LINE",
"609 0 LINE",
"572 148 LINE",
"352 148 LINE",
"746 473 LINE",
"746 576 LINE",
"284 576 LINE",
"251 455 LINE"
);
}
);
width = 796;
}
);
unicode = 007A;
},
{
glyphname = zcurl;
lastChange = "2019-09-05 22:37:17 +0000";
layers = (
{
anchors = (
{
name = _right_el;
position = "{344, 514}";
},
{
name = bottom;
position = "{339, 0}";
},
{
name = center;
position = "{417, 288}";
},
{
name = top;
position = "{499, 547}";
}
);
layerId = "BA196CD0-EE58-4274-B8DF-4393D3617A29";
paths = (
{
closed = 1;
nodes = (
"616 482 LINE",
"140 131 LINE",
"81 0 LINE",
"514 0 LINE SMOOTH",
"647 0 OFFCURVE",
"773 219 OFFCURVE",
"643 255 CURVE SMOOTH",
"515 291 OFFCURVE",
"435 181 OFFCURVE",
"335 -193 CURVE",
"435 -193 LINE",
"534 175 OFFCURVE",
"574 192 OFFCURVE",
"596 169 CURVE SMOOTH",
"605 159 OFFCURVE",
"610 121 OFFCURVE",
"516 121 CURVE SMOOTH",
"274 121 LINE",
"726 482 LINE",
"731 549 LINE",
"318 549 LINE",
"300 482 LINE"
);
}
);
width = 733;
},
{
anchors = (
{
name = _right_el;
position = "{344, 514}";
},
{
name = bottom;
position = "{339, 0}";
},
{
name = center;
position = "{417, 288}";
},
{
name = top;
position = "{499, 547}";
}
);
layerId = "BBDB329E-CE83-4304-A6B1-53EA5ACC004E";
paths = (
{
closed = 1;
nodes = (
"539 455 LINE",
"119 145 LINE",
"41 -27 LINE",
"507 -27 LINE SMOOTH",
"679 -27 OFFCURVE",
"810 239 OFFCURVE",
"657 281 CURVE SMOOTH",
"501 325 OFFCURVE",
"406 186 OFFCURVE",
"301 -220 CURVE",
"455 -220 LINE",
"506 -24 OFFCURVE",
"572 149 OFFCURVE",
"573 148 CURVE",
"572 149 OFFCURVE",
"526 148 OFFCURVE",
"523 148 CURVE SMOOTH",
"346 148 LINE",
"753 473 LINE",
"760 576 LINE",
"298 576 LINE",
"265 455 LINE"
);
}
);
width = 733;
}
);
unicode = 0291;
},
{
glyphname = zretroflexhook;
lastChange = "2019-09-18 20:51:50 +0000";
layers = (
{
components = (
{
name = z;
},
{
name = od_hook;
transform = "{1, 0, 0, 1, 296, -335}";
}
);
layerId = "BA196CD0-EE58-4274-B8DF-4393D3617A29";
paths = (
{
closed = 1;
nodes = (
"529 0 LINE",
"605 0 LINE",
"637 121 LINE",
"522 121 LINE"
);
}
);
width = 686;
},
{
components = (
{
name = z;
},
{
name = od_hook;
transform = "{1, 0, 0, 1, 297, -335}";
}
);
layerId = "BBDB329E-CE83-4304-A6B1-53EA5ACC004E";
paths = (
{
closed = 1;
nodes = (
"502 -27 LINE",
"625 -27 LINE",
"672 148 LINE",
"492 148 LINE"
);
}
);
width = 686;
}
);
unicode = 0290;
},
{
color = 7;
glyphname = a.ss01;
lastChange = "2019-09-18 20:52:02 +0000";
layers = (
{
anchors = (
{
name = bottom;
position = "{345, 0}";
},
{
name = ogonek;
position = "{516, 29}";
},
{
name = top;
position = "{489, 577}";
}
);
background = {
components = (
{
alignment = -1;
name = "";
transform = "{1, 0, 0, 1, 9, 150}";
},
{
alignment = -1;
name = "";
transform = "{1, 0, 0, 1, 9, 200}";
},
{
alignment = -1;
name = "";
transform = "{1, 0, 0, 1, 59, 50}";
},
{
alignment = -1;
name = "";
transform = "{1, 0, 0, 1, 59, 100}";
},
{
alignment = -1;
name = "";
transform = "{1, 0, 0, 1, 59, 150}";
},
{
alignment = -1;
name = "";
transform = "{1, 0, 0, 1, 59, 200}";
},
{
alignment = -1;
name = "";
transform = "{1, 0, 0, 1, 59, 250}";
},
{
alignment = -1;
name = "";
transform = "{1, 0, 0, 1, 59, 300}";
},
{
alignment = -1;
name = "";
transform = "{1, 0, 0, 1, 59, 350}";
},
{
alignment = -1;
name = "";
transform = "{1, 0, 0, 1, 109, 0}";
},
{
alignment = -1;
name = "";
transform = "{1, 0, 0, 1, 109, 50}";
},
{
alignment = -1;
name = "";
transform = "{1, 0, 0, 1, 109, 100}";
},
{
alignment = -1;
name = "";
transform = "{1, 0, 0, 1, 109, 400}";
},
{
alignment = -1;
name = "";
transform = "{1, 0, 0, 1, 159, 0}";
},
{
alignment = -1;
name = "";
transform = "{1, 0, 0, 1, 159, 50}";
},
{
alignment = -1;
name = "";
transform = "{1, 0, 0, 1, 159, 100}";
},
{
alignment = -1;
name = "";
transform = "{1, 0, 0, 1, 159, 450}";
},
{
alignment = -1;
name = "";
transform = "{1, 0, 0, 1, 209, 0}";
},
{
alignment = -1;
name = "";
transform = "{1, 0, 0, 1, 209, 50}";
},
{
alignment = -1;
name = "";
transform = "{1, 0, 0, 1, 209, 100}";
},
{
alignment = -1;
name = "";
transform = "{1, 0, 0, 1, 209, 450}";
},
{
alignment = -1;
name = "";
transform = "{1, 0, 0, 1, 259, 0}";
},
{
alignment = -1;
name = "";
transform = "{1, 0, 0, 1, 259, 50}";
},
{
alignment = -1;
name = "";
transform = "{1, 0, 0, 1, 259, 100}";
},
{
alignment = -1;
name = "";
transform = "{1, 0, 0, 1, 259, 450}";
},
{
alignment = -1;
name = "";
transform = "{1, 0, 0, 1, 309, 0}";
},
{
alignment = -1;
name = "";
transform = "{1, 0, 0, 1, 309, 50}";
},
{
alignment = -1;
name = "";
transform = "{1, 0, 0, 1, 309, 100}";
},
{
alignment = -1;
name = "";
transform = "{1, 0, 0, 1, 309, 450}";
},
{
alignment = -1;
name = "";
transform = "{1, 0, 0, 1, 359, 0}";
},
{
alignment = -1;
name = "";
transform = "{1, 0, 0, 1, 359, 50}";
},
{
alignment = -1;
name = "";
transform = "{1, 0, 0, 1, 359, 100}";
},
{
alignment = -1;
name = "";
transform = "{1, 0, 0, 1, 359, 450}";
},
{
alignment = -1;
name = "";
transform = "{1, 0, 0, 1, 409, 50}";
},
{
alignment = -1;
name = "";
transform = "{1, 0, 0, 1, 409, 100}";
},
{
alignment = -1;
name = "";
transform = "{1, 0, 0, 1, 409, 150}";
},
{
alignment = -1;
name = "";
transform = "{1, 0, 0, 1, 409, 200}";
},
{
alignment = -1;
name = "";
transform = "{1, 0, 0, 1, 409, 250}";
},
{
alignment = -1;
name = "";
transform = "{1, 0, 0, 1, 409, 300}";
},
{
alignment = -1;
name = "";
transform = "{1, 0, 0, 1, 409, 350}";
},
{
alignment = -1;
name = "";
transform = "{1, 0, 0, 1, 409, 400}";
},
{
alignment = -1;
name = "";
transform = "{1, 0, 0, 1, 409, 450}";
},
{
alignment = -1;
name = "";
transform = "{1, 0, 0, 1, 409, 500}";
},
{
alignment = -1;
name = "";
transform = "{1, 0, 0, 1, 459, 0}";
},
{
alignment = -1;
name = "";
transform = "{1, 0, 0, 1, 459, 50}";
},
{
alignment = -1;
name = "";
transform = "{1, 0, 0, 1, 459, 100}";
},
{
alignment = -1;
name = "";
transform = "{1, 0, 0, 1, 459, 150}";
},
{
alignment = -1;
name = "";
transform = "{1, 0, 0, 1, 459, 200}";
},
{
alignment = -1;
name = "";
transform = "{1, 0, 0, 1, 459, 250}";
},
{
alignment = -1;
name = "";
transform = "{1, 0, 0, 1, 459, 300}";
},
{
alignment = -1;
name = "";
transform = "{1, 0, 0, 1, 459, 350}";
}
);
paths = (
{
closed = 1;
nodes = (
"418 525 LINE",
"469 525 LINE",
"536 0 LINE",
"446 0 LINE",
"446 82 LINE",
"408 17 OFFCURVE",
"336 -14 OFFCURVE",
"256 -14 CURVE SMOOTH",
"94 -14 OFFCURVE",
"-6 105 OFFCURVE",
"39 273 CURVE SMOOTH",
"78 419 OFFCURVE",
"165 525 OFFCURVE",
"256 525 CURVE SMOOTH",
"327 525 OFFCURVE",
"394 504 OFFCURVE",
"430 446 CURVE"
);
},
{
closed = 1;
nodes = (
"71 175 OFFCURVE",
"94 136 OFFCURVE",
"244 138 CURVE SMOOTH",
"425 140 OFFCURVE",
"429 170 OFFCURVE",
"429 299 CURVE SMOOTH",
"429 448 OFFCURVE",
"322 476 OFFCURVE",
"255 476 CURVE",
"194 476 OFFCURVE",
"135 434 OFFCURVE",
"101 296 CURVE SMOOTH"
);
}
);
};
layerId = "BA196CD0-EE58-4274-B8DF-4393D3617A29";
paths = (
{
closed = 1;
nodes = (
"307 -14 OFFCURVE",
"360 6 OFFCURVE",
"406 45 CURVE SMOOTH",
"425 60 OFFCURVE",
"434 56 OFFCURVE",
"429 35 CURVE SMOOTH",
"426 24 LINE SMOOTH",
"421 8 OFFCURVE",
"423 13 OFFCURVE",
"419 0 CURVE",
"501 0 LINE",
"507 21 OFFCURVE",
"503 9 OFFCURVE",
"507 24 CURVE SMOOTH",
"584 309 LINE SMOOTH",
"628 474 OFFCURVE",
"579 554 OFFCURVE",
"434 554 CURVE SMOOTH",
"387 554 OFFCURVE",
"334 545 OFFCURVE",
"276 524 CURVE SMOOTH",
"262 519 OFFCURVE",
"259 517 OFFCURVE",
"255 516 CURVE",
"235 441 LINE",
"251 452 OFFCURVE",
"249 450 OFFCURVE",
"266 458 CURVE SMOOTH",
"313 478 OFFCURVE",
"361 489 OFFCURVE",
"409 489 CURVE",
"503 482 OFFCURVE",
"535 433 OFFCURVE",
"513 350 CURVE SMOOTH",
"512 345 OFFCURVE",
"503 342 OFFCURVE",
"489 342 CURVE SMOOTH",
"396 342 LINE SMOOTH",
"247 342 OFFCURVE",
"156 279 OFFCURVE",
"123 157 CURVE SMOOTH",
"95 53 OFFCURVE",
"143 -14 OFFCURVE",
"243 -14 CURVE SMOOTH"
);
},
{
closed = 1;
nodes = (
"239 122 OFFCURVE",
"199 126 OFFCURVE",
"197 167 CURVE SMOOTH",
"196 178 OFFCURVE",
"198 186 OFFCURVE",
"202 196 CURVE SMOOTH",
"222 252 OFFCURVE",
"263 276 OFFCURVE",
"374 276 CURVE SMOOTH",
"425 276 LINE SMOOTH",
"439 276 OFFCURVE",
"446 268 OFFCURVE",
"441 252 CURVE SMOOTH",
"442 256 LINE SMOOTH",
"411 141 OFFCURVE",
"374 122 OFFCURVE",
"292 122 CURVE SMOOTH"
);
}
);
width = 582;
},
{
anchors = (
{
name = bottom;
position = "{386, 0}";
},
{
name = ogonek;
position = "{556, 29}";
},
{
name = top;
position = "{529, 577}";
}
);
background = {
components = (
{
alignment = -1;
name = "";
transform = "{1, 0, 0, 1, 49, 150}";
},
{
alignment = -1;
name = "";
transform = "{1, 0, 0, 1, 49, 200}";
},
{
alignment = -1;
name = "";
transform = "{1, 0, 0, 1, 99, 50}";
},
{
alignment = -1;
name = "";
transform = "{1, 0, 0, 1, 99, 100}";
},
{
alignment = -1;
name = "";
transform = "{1, 0, 0, 1, 99, 150}";
},
{
alignment = -1;
name = "";
transform = "{1, 0, 0, 1, 99, 200}";
},
{
alignment = -1;
name = "";
transform = "{1, 0, 0, 1, 99, 250}";
},
{
alignment = -1;
name = "";
transform = "{1, 0, 0, 1, 99, 300}";
},
{
alignment = -1;
name = "";
transform = "{1, 0, 0, 1, 99, 350}";
},
{
alignment = -1;
name = "";
transform = "{1, 0, 0, 1, 149, 0}";
},
{
alignment = -1;
name = "";
transform = "{1, 0, 0, 1, 149, 50}";
},
{
alignment = -1;
name = "";
transform = "{1, 0, 0, 1, 149, 100}";
},
{
alignment = -1;
name = "";
transform = "{1, 0, 0, 1, 149, 400}";
},
{
alignment = -1;
name = "";
transform = "{1, 0, 0, 1, 199, 0}";
},
{
alignment = -1;
name = "";
transform = "{1, 0, 0, 1, 199, 50}";
},
{
alignment = -1;
name = "";
transform = "{1, 0, 0, 1, 199, 100}";
},
{
alignment = -1;
name = "";
transform = "{1, 0, 0, 1, 199, 450}";
},
{
alignment = -1;
name = "";
transform = "{1, 0, 0, 1, 249, 0}";
},
{
alignment = -1;
name = "";
transform = "{1, 0, 0, 1, 249, 50}";
},
{
alignment = -1;
name = "";
transform = "{1, 0, 0, 1, 249, 100}";
},
{
alignment = -1;
name = "";
transform = "{1, 0, 0, 1, 249, 450}";
},
{
alignment = -1;
name = "";
transform = "{1, 0, 0, 1, 299, 0}";
},
{
alignment = -1;
name = "";
transform = "{1, 0, 0, 1, 299, 50}";
},
{
alignment = -1;
name = "";
transform = "{1, 0, 0, 1, 299, 100}";
},
{
alignment = -1;
name = "";
transform = "{1, 0, 0, 1, 299, 450}";
},
{
alignment = -1;
name = "";
transform = "{1, 0, 0, 1, 349, 0}";
},
{
alignment = -1;
name = "";
transform = "{1, 0, 0, 1, 349, 50}";
},
{
alignment = -1;
name = "";
transform = "{1, 0, 0, 1, 349, 100}";
},
{
alignment = -1;
name = "";
transform = "{1, 0, 0, 1, 349, 450}";
},
{
alignment = -1;
name = "";
transform = "{1, 0, 0, 1, 399, 0}";
},
{
alignment = -1;
name = "";
transform = "{1, 0, 0, 1, 399, 50}";
},
{
alignment = -1;
name = "";
transform = "{1, 0, 0, 1, 399, 100}";
},
{
alignment = -1;
name = "";
transform = "{1, 0, 0, 1, 399, 450}";
},
{
alignment = -1;
name = "";
transform = "{1, 0, 0, 1, 449, 50}";
},
{
alignment = -1;
name = "";
transform = "{1, 0, 0, 1, 449, 100}";
},
{
alignment = -1;
name = "";
transform = "{1, 0, 0, 1, 449, 150}";
},
{
alignment = -1;
name = "";
transform = "{1, 0, 0, 1, 449, 200}";
},
{
alignment = -1;
name = "";
transform = "{1, 0, 0, 1, 449, 250}";
},
{
alignment = -1;
name = "";
transform = "{1, 0, 0, 1, 449, 300}";
},
{
alignment = -1;
name = "";
transform = "{1, 0, 0, 1, 449, 350}";
},
{
alignment = -1;
name = "";
transform = "{1, 0, 0, 1, 449, 400}";
},
{
alignment = -1;
name = "";
transform = "{1, 0, 0, 1, 449, 450}";
},
{
alignment = -1;
name = "";
transform = "{1, 0, 0, 1, 449, 500}";
},
{
alignment = -1;
name = "";
transform = "{1, 0, 0, 1, 499, 0}";
},
{
alignment = -1;
name = "";
transform = "{1, 0, 0, 1, 499, 50}";
},
{
alignment = -1;
name = "";
transform = "{1, 0, 0, 1, 499, 100}";
},
{
alignment = -1;
name = "";
transform = "{1, 0, 0, 1, 499, 150}";
},
{
alignment = -1;
name = "";
transform = "{1, 0, 0, 1, 499, 200}";
},
{
alignment = -1;
name = "";
transform = "{1, 0, 0, 1, 499, 250}";
},
{
alignment = -1;
name = "";
transform = "{1, 0, 0, 1, 499, 300}";
},
{
alignment = -1;
name = "";
transform = "{1, 0, 0, 1, 499, 350}";
}
);
paths = (
{
closed = 1;
nodes = (
"458 525 LINE",
"509 525 LINE",
"576 0 LINE",
"486 0 LINE",
"486 82 LINE",
"448 17 OFFCURVE",
"376 -14 OFFCURVE",
"296 -14 CURVE SMOOTH",
"134 -14 OFFCURVE",
"34 105 OFFCURVE",
"79 273 CURVE SMOOTH",
"118 419 OFFCURVE",
"205 525 OFFCURVE",
"296 525 CURVE SMOOTH",
"367 525 OFFCURVE",
"434 504 OFFCURVE",
"470 446 CURVE"
);
},
{
closed = 1;
nodes = (
"111 175 OFFCURVE",
"134 136 OFFCURVE",
"284 138 CURVE SMOOTH",
"465 140 OFFCURVE",
"469 170 OFFCURVE",
"469 299 CURVE SMOOTH",
"469 448 OFFCURVE",
"362 476 OFFCURVE",
"295 476 CURVE",
"234 476 OFFCURVE",
"175 434 OFFCURVE",
"141 296 CURVE SMOOTH"
);
}
);
};
layerId = "BBDB329E-CE83-4304-A6B1-53EA5ACC004E";
paths = (
{
closed = 1;
nodes = (
"459 249 OFFCURVE",
"455 254 OFFCURVE",
"454 252 CURVE",
"509 252 LINE",
"492 207 LINE",
"430 143 OFFCURVE",
"413 149 OFFCURVE",
"340 149 CURVE SMOOTH",
"273 149 OFFCURVE",
"263 157 OFFCURVE",
"266 185 CURVE",
"266 187 OFFCURVE",
"268 190 OFFCURVE",
"269 193 CURVE",
"284 235 OFFCURVE",
"313 249 OFFCURVE",
"407 249 CURVE SMOOTH",
"459 249 LINE"
);
},
{
closed = 1;
nodes = (
"666 466 OFFCURVE",
"619 554 OFFCURVE",
"475 554 CURVE SMOOTH",
"427 554 OFFCURVE",
"375 549 OFFCURVE",
"317 527 CURVE SMOOTH",
"303 522 OFFCURVE",
"300 520 OFFCURVE",
"297 519 CURVE",
"274 433 LINE",
"290 444 OFFCURVE",
"287 442 OFFCURVE",
"304 450 CURVE",
"351 470 OFFCURVE",
"390 481 OFFCURVE",
"438 481 CURVE",
"532 474 OFFCURVE",
"553 425 OFFCURVE",
"533 350 CURVE SMOOTH",
"532 345 OFFCURVE",
"514 342 OFFCURVE",
"500 342 CURVE SMOOTH",
"407 342 LINE SMOOTH",
"258 342 OFFCURVE",
"196 279 OFFCURVE",
"163 157 CURVE SMOOTH",
"135 53 OFFCURVE",
"183 -14 OFFCURVE",
"283 -14 CURVE SMOOTH",
"348 -14 OFFCURVE",
"401 6 OFFCURVE",
"446 45 CURVE",
"466 60 OFFCURVE",
"475 56 OFFCURVE",
"469 35 CURVE SMOOTH",
"466 24 LINE SMOOTH",
"462 8 OFFCURVE",
"463 13 OFFCURVE",
"460 0 CURVE",
"541 0 LINE",
"547 21 OFFCURVE",
"544 9 OFFCURVE",
"548 24 CURVE SMOOTH",
"624 309 LINE SMOOTH"
);
}
);
width = 663;
}
);
leftKerningGroup = Round;
},
{
glyphname = f_f;
lastChange = "2019-10-16 22:24:30 +0000";
layers = (
{
components = (
{
alignment = -1;
name = f;
transform = "{1, 0, 0, 1, 88, 0}";
},
{
alignment = -1;
name = f;
transform = "{1, 0, 0, 1, 554, 1}";
}
);
layerId = "BA196CD0-EE58-4274-B8DF-4393D3617A29";
paths = (
{
closed = 1;
nodes = (
"342 469 LINE",
"848 467 LINE",
"883 559 LINE",
"376 561 LINE"
);
}
);
width = 1070;
},
{
components = (
{
alignment = -1;
name = f;
transform = "{1, 0, 0, 1, 13, 0}";
},
{
name = f;
transform = "{1, 0, 0, 1, 534, -1}";
}
);
layerId = "BBDB329E-CE83-4304-A6B1-53EA5ACC004E";
paths = (
{
closed = 1;
nodes = (
"242 432 LINE",
"1038 430 LINE",
"1073 573 LINE",
"276 575 LINE"
);
}
);
width = 1124;
}
);
},
{
glyphname = "Be-cy";
lastChange = "2019-09-05 22:37:17 +0000";
layers = (
{
layerId = "BA196CD0-EE58-4274-B8DF-4393D3617A29";
paths = (
{
closed = 1;
nodes = (
"450 141 OFFCURVE",
"502 172 QCURVE SMOOTH",
"549 200 OFFCURVE",
"561 242 QCURVE SMOOTH",
"578 308 OFFCURVE",
"548 344 QCURVE SMOOTH",
"517 380 OFFCURVE",
"442 380 QCURVE SMOOTH",
"310 376 LINE",
"253 142 LINE",
"378 141 LINE SMOOTH"
);
},
{
closed = 1;
nodes = (
"723 660 LINE",
"375 660 LINE",
"326 447 LINE",
"450 446 LINE SMOOTH",
"573 446 OFFCURVE",
"622 386 QCURVE SMOOTH",
"668 327 OFFCURVE",
"639 218 QCURVE SMOOTH",
"581 0 OFFCURVE",
"330 0 QCURVE SMOOTH",
"111 0 LINE",
"276 729 LINE",
"775 729 LINE"
);
}
);
width = 662;
},
{
layerId = "BBDB329E-CE83-4304-A6B1-53EA5ACC004E";
paths = (
{
closed = 1;
nodes = (
"443 171 OFFCURVE",
"482 194 QCURVE SMOOTH",
"518 215 OFFCURVE",
"527 247 QCURVE SMOOTH",
"540 296 OFFCURVE",
"517 323 QCURVE SMOOTH",
"494 350 OFFCURVE",
"437 350 QCURVE SMOOTH",
"337 347 LINE",
"295 171 LINE",
"389 171 LINE SMOOTH"
);
},
{
closed = 1;
nodes = (
"671 626 LINE",
"409 626 LINE",
"372 466 LINE",
"465 465 LINE SMOOTH",
"546 451 OFFCURVE",
"594 420 QCURVE SMOOTH",
"679 366 OFFCURVE",
"639 218 QCURVE SMOOTH",
"581 1 OFFCURVE",
"330 0 QCURVE SMOOTH",
"111 0 LINE",
"276 729 LINE",
"775 729 LINE"
);
}
);
width = 662;
}
);
note = uni0411;
unicode = 0411;
},
{
glyphname = "Ve-cy";
lastChange = "2019-09-05 22:37:17 +0000";
layers = (
{
layerId = "BA196CD0-EE58-4274-B8DF-4393D3617A29";
paths = (
{
closed = 1;
nodes = (
"471 0 OFFCURVE",
"556 53 QCURVE SMOOTH",
"642 107 OFFCURVE",
"668 204 QCURVE SMOOTH",
"710 363 OFFCURVE",
"530 393 QCURVE",
"659 413 OFFCURVE",
"696 549 QCURVE SMOOTH",
"719 635 OFFCURVE",
"670 682 QCURVE SMOOTH",
"621 729 OFFCURVE",
"506 729 QCURVE SMOOTH",
"276 729 LINE",
"81 0 LINE",
"345 0 LINE SMOOTH"
);
},
{
closed = 1;
nodes = (
"577 663 OFFCURVE",
"606 628 QCURVE SMOOTH",
"632 595 OFFCURVE",
"617 538 QCURVE SMOOTH",
"587 428 OFFCURVE",
"443 428 QCURVE SMOOTH",
"295 428 LINE",
"358 663 LINE",
"506 663 LINE SMOOTH"
);
},
{
closed = 1;
nodes = (
"512 348 OFFCURVE",
"544 316 QCURVE SMOOTH",
"574 284 OFFCURVE",
"567 259 QCURVE SMOOTH",
"550 193 OFFCURVE",
"505 168 QCURVE SMOOTH",
"463 145 OFFCURVE",
"379 145 QCURVE SMOOTH",
"220 145 LINE",
"274 348 LINE",
"434 348 LINE SMOOTH"
);
}
);
width = 694;
},
{
layerId = "BBDB329E-CE83-4304-A6B1-53EA5ACC004E";
paths = (
{
closed = 1;
nodes = (
"487 -15 OFFCURVE",
"571 41 QCURVE SMOOTH",
"647 92 OFFCURVE",
"671 201 QCURVE SMOOTH",
"708 364 OFFCURVE",
"530 393 QCURVE",
"681 413 OFFCURVE",
"718 549 QCURVE SMOOTH",
"756 641 OFFCURVE",
"684 688 QCURVE SMOOTH",
"635 735 OFFCURVE",
"506 729 QCURVE SMOOTH",
"276 729 LINE",
"81 0 LINE",
"345 0 LINE SMOOTH"
);
},
{
closed = 1;
nodes = (
"568 652 OFFCURVE",
"594 621 QCURVE SMOOTH",
"618 591 OFFCURVE",
"604 539 QCURVE SMOOTH",
"585 469 OFFCURVE",
"454 469 QCURVE SMOOTH",
"320 469 LINE",
"369 652 LINE",
"503 652 LINE SMOOTH"
);
},
{
closed = 1;
nodes = (
"501 332 OFFCURVE",
"530 303 QCURVE SMOOTH",
"557 274 OFFCURVE",
"553 258 QCURVE SMOOTH",
"537 198 OFFCURVE",
"495 175 QCURVE SMOOTH",
"457 154 OFFCURVE",
"382 154 QCURVE SMOOTH",
"236 154 LINE",
"284 332 LINE",
"429 332 LINE SMOOTH"
);
}
);
width = 694;
}
);
note = uni0412;
unicode = 0412;
},
{
glyphname = "Ge-cy";
lastChange = "2019-10-05 01:00:43 +0000";
layers = (
{
anchors = (
{
name = bottomright;
position = "{567, 0}";
},
{
name = center;
position = "{407, 424}";
},
{
name = top;
position = "{484, 850}";
}
);
layerId = "BA196CD0-EE58-4274-B8DF-4393D3617A29";
paths = (
{
closed = 1;
nodes = (
"766 729 LINE",
"290 729 LINE",
"81 0 LINE",
"234 0 LINE",
"374 648 LINE",
"754 648 LINE"
);
}
);
width = 662;
},
{
anchors = (
{
name = center;
position = "{404, 388}";
},
{
name = top;
position = "{525, 815}";
}
);
layerId = "BBDB329E-CE83-4304-A6B1-53EA5ACC004E";
paths = (
{
closed = 1;
nodes = (
"797 756 LINE",
"271 756 LINE",
"45 -27 LINE",
"255 -27 LINE",
"395 621 LINE",
"778 621 LINE"
);
}
);
width = 662;
}
);
note = uni0413;
unicode = 0413;
},
{
glyphname = "Gheupturn-cy";
lastChange = "2019-09-05 22:37:17 +0000";
layers = (
{
components = (
{
name = "Ge-cy";
}
);
layerId = "BA196CD0-EE58-4274-B8DF-4393D3617A29";
paths = (
{
closed = 1;
nodes = (
"668 648 LINE",
"754 648 LINE",
"801 821 LINE",
"714 821 LINE"
);
}
);
width = 662;
},
{
components = (
{
name = "Ge-cy";
}
);
layerId = "BBDB329E-CE83-4304-A6B1-53EA5ACC004E";
paths = (
{
closed = 1;
nodes = (
"633 621 LINE",
"774 621 LINE",
"835 848 LINE",
"694 848 LINE"
);
}
);
width = 662;
}
);
unicode = 0490;
},
{
glyphname = "De-cy";
lastChange = "2019-09-05 22:37:17 +0000";
layers = (
{
layerId = "BA196CD0-EE58-4274-B8DF-4393D3617A29";
paths = (
{
closed = 1;
nodes = (
"861 726 LINE",
"451 725 LINE",
"296 236 LINE",
"249 192 LINE",
"172 114 LINE",
"111 114 LINE",
"106 -95 LINE",
"212 -95 LINE",
"221 4 LINE",
"634 4 LINE",
"583 -95 LINE",
"694 -95 LINE",
"794 114 LINE",
"718 114 LINE",
"838 638 LINE"
);
},
{
closed = 1;
nodes = (
"387 224 LINE",
"516 638 LINE",
"742 638 LINE",
"594 113 LINE",
"308 114 LINE"
);
}
);
width = 844;
},
{
layerId = "BBDB329E-CE83-4304-A6B1-53EA5ACC004E";
paths = (
{
closed = 1;
nodes = (
"896 753 LINE",
"432 752 LINE",
"271 246 LINE",
"231 208 LINE",
"165 141 LINE",
"84 141 LINE",
"77 -122 LINE",
"237 -122 LINE",
"246 -23 LINE",
"592 -23 LINE",
"540 -122 LINE",
"709 -122 LINE",
"835 141 LINE",
"752 141 LINE",
"865 639 LINE"
);
},
{
closed = 1;
nodes = (
"413 218 LINE",
"535 611 LINE",
"707 611 LINE",
"574 140 LINE",
"358 141 LINE"
);
}
);
width = 844;
}
);
note = uni0414;
unicode = 0414;
},
{
glyphname = "Ie-cy";
lastChange = "2019-10-17 20:23:18 +0000";
layers = (
{
anchors = (
{
name = top;
position = "{514, 777}";
}
);
layerId = "BA196CD0-EE58-4274-B8DF-4393D3617A29";
paths = (
{
closed = 1;
nodes = (
"221 151 LINE",
"274 347 LINE",
"624 347 LINE",
"646 430 LINE",
"296 430 LINE",
"354 646 LINE",
"720 646 LINE",
"742 729 LINE",
"276 729 LINE",
"81 0 LINE",
"556 0 LINE",
"596 151 LINE"
);
}
);
width = 636;
},
{
anchors = (
{
name = top;
position = "{528, 768}";
}
);
layerId = "BBDB329E-CE83-4304-A6B1-53EA5ACC004E";
paths = (
{
closed = 1;
nodes = (
"256 178 LINE",
"294 320 LINE",
"644 320 LINE",
"681 457 LINE",
"331 457 LINE",
"374 619 LINE",
"740 619 LINE",
"776 756 LINE",
"256 756 LINE",
"46 -27 LINE",
"576 -27 LINE",
"630 178 LINE"
);
}
);
width = 636;
}
);
note = uni0415;
unicode = 0415;
},
{
glyphname = "Io-cy";
lastChange = "2019-10-11 15:57:11 +0000";
layers = (
{
layerId = "BA196CD0-EE58-4274-B8DF-4393D3617A29";
paths = (
{
closed = 1;
nodes = (
"665 937 LINE",
"632 833 LINE",
"723 833 LINE",
"746 937 LINE"
);
},
{
closed = 1;
nodes = (
"400 937 LINE",
"367 833 LINE",
"458 833 LINE",
"480 937 LINE"
);
},
{
closed = 1;
nodes = (
"221 151 LINE",
"274 347 LINE",
"624 347 LINE",
"646 430 LINE",
"296 430 LINE",
"354 646 LINE",
"720 646 LINE",
"742 729 LINE",
"276 729 LINE",
"81 0 LINE",
"556 0 LINE",
"596 151 LINE"
);
}
);
width = 636;
},
{
components = (
{
name = E;
},
{
name = dieresis;
transform = "{1, 0, 0, 1, 298, 431}";
}
);
layerId = "BBDB329E-CE83-4304-A6B1-53EA5ACC004E";
width = 897;
}
);
note = uni0401;
unicode = 0401;
},
{
glyphname = "Ze-cy";
lastChange = "2019-09-05 22:37:17 +0000";
layers = (
{
anchors = (
{
name = top;
position = "{521, 800}";
}
);
layerId = "BA196CD0-EE58-4274-B8DF-4393D3617A29";
paths = (
{
closed = 1;
nodes = (
"663 427 OFFCURVE",
"697 553 QCURVE SMOOTH",
"720 640 OFFCURVE",
"668 691 QCURVE SMOOTH",
"615 742 OFFCURVE",
"502 742 QCURVE",
"414 742 OFFCURVE",
"294 711 QCURVE SMOOTH",
"272 634 LINE",
"379 654 OFFCURVE",
"475 654 QCURVE SMOOTH",
"623 654 OFFCURVE",
"592 540 QCURVE SMOOTH",
"566 442 OFFCURVE",
"416 440 QCURVE",
"290 438 LINE",
"278 362 LINE",
"390 359 LINE SMOOTH",
"470 358 OFFCURVE",
"507 322 QCURVE SMOOTH",
"544 288 OFFCURVE",
"530 236 QCURVE SMOOTH",
"519 194 OFFCURVE",
"466 158 QCURVE SMOOTH",
"405 116 OFFCURVE",
"313 116 QCURVE SMOOTH",
"216 116 OFFCURVE",
"128 176 QCURVE",
"87 22 LINE",
"182 -14 OFFCURVE",
"274 -14 QCURVE SMOOTH",
"562 -14 OFFCURVE",
"625 222 QCURVE SMOOTH",
"644 293 OFFCURVE",
"616 340 QCURVE SMOOTH",
"588 388 OFFCURVE",
"519 393 QCURVE"
);
}
);
width = 646;
},
{
anchors = (
{
name = top;
position = "{521, 800}";
}
);
layerId = "BBDB329E-CE83-4304-A6B1-53EA5ACC004E";
paths = (
{
closed = 1;
nodes = (
"663 427 OFFCURVE",
"697 553 QCURVE SMOOTH",
"720 640 OFFCURVE",
"668 691 QCURVE SMOOTH",
"615 742 OFFCURVE",
"502 742 QCURVE",
"387 731 OFFCURVE",
"294 711 QCURVE",
"266 599 LINE",
"373 619 OFFCURVE",
"469 619 QCURVE SMOOTH",
"582 619 OFFCURVE",
"557 540 QCURVE SMOOTH",
"532 462 OFFCURVE",
"421 460 QCURVE",
"295 458 LINE",
"272 342 LINE",
"385 339 LINE SMOOTH",
"446 337 OFFCURVE",
"468 317 QCURVE SMOOTH",
"497 290 OFFCURVE",
"465 226 QCURVE SMOOTH",
"451 195 OFFCURVE",
"413 178 QCURVE SMOOTH",
"382 164 OFFCURVE",
"325 160 QCURVE SMOOTH",
"225 153 OFFCURVE",
"140 220 QCURVE",
"87 22 LINE",
"182 -14 OFFCURVE",
"274 -14 QCURVE SMOOTH",
"562 -14 OFFCURVE",
"625 222 QCURVE SMOOTH",
"644 293 OFFCURVE",
"616 340 QCURVE SMOOTH",
"588 388 OFFCURVE",
"519 393 QCURVE"
);
}
);
width = 646;
}
);
note = uni0417;
unicode = 0417;
},
{
glyphname = "El-cy";
lastChange = "2019-10-16 23:45:53 +0000";
layers = (
{
components = (
{
name = "El-cy.loclBGR";
}
);
layerId = "BA196CD0-EE58-4274-B8DF-4393D3617A29";
width = 851;
},
{
layerId = "BBDB329E-CE83-4304-A6B1-53EA5ACC004E";
paths = (
{
closed = 1;
nodes = (
"788 -27 LINE",
"689 756 LINE",
"548 756 LINE",
"34 -27 LINE",
"258 -27 LINE",
"555 508 LINE",
"576 -27 LINE"
);
}
);
width = 836;
}
);
note = uni041B;
unicode = 041B;
},
{
glyphname = "Em-cy";
lastChange = "2019-09-05 22:37:17 +0000";
layers = (
{
layerId = "BA196CD0-EE58-4274-B8DF-4393D3617A29";
paths = (
{
closed = 1;
nodes = (
"399 116 LINE",
"519 116 LINE",
"839 640 LINE",
"647 0 LINE",
"775 0 LINE",
"955 729 LINE",
"816 729 LINE",
"507 296 LINE",
"440 729 LINE",
"291 729 LINE",
"81 0 LINE",
"207 0 LINE",
"359 640 LINE"
);
}
);
width = 855;
},
{
layerId = "BBDB329E-CE83-4304-A6B1-53EA5ACC004E";
paths = (
{
closed = 1;
nodes = (
"331 631 LINE",
"372 89 LINE",
"531 89 LINE",
"863 631 LINE",
"812 641 LINE",
"612 -27 LINE",
"796 -27 LINE",
"988 756 LINE",
"806 756 LINE",
"526 364 LINE",
"465 756 LINE",
"272 756 LINE",
"45 -27 LINE",
"228 -27 LINE",
"387 641 LINE"
);
}
);
width = 855;
}
);
note = uni041C;
unicode = 041C;
},
{
glyphname = "Pe-cy";
lastChange = "2019-09-05 22:37:17 +0000";
layers = (
{
layerId = "BA196CD0-EE58-4274-B8DF-4393D3617A29";
paths = (
{
closed = 1;
nodes = (
"787 726 LINE",
"280 729 LINE",
"81 0 LINE",
"202 0 LINE",
"362 642 LINE",
"668 642 LINE",
"485 0 LINE",
"606 0 LINE",
"765 642 LINE"
);
}
);
width = 687;
},
{
layerId = "BBDB329E-CE83-4304-A6B1-53EA5ACC004E";
paths = (
{
closed = 1;
nodes = (
"822 753 LINE",
"260 756 LINE",
"46 -27 LINE",
"223 -27 LINE",
"383 615 LINE",
"633 615 LINE",
"450 -27 LINE",
"627 -27 LINE",
"792 642 LINE"
);
}
);
width = 687;
}
);
note = uni041F;
unicode = 041F;
},
{
glyphname = "Ef-cy";
lastChange = "2019-09-05 22:37:17 +0000";
layers = (
{
layerId = "BA196CD0-EE58-4274-B8DF-4393D3617A29";
paths = (
{
closed = 1;
nodes = (
"503 0 LINE",
"569 280 LINE",
"624 280 LINE SMOOTH",
"748 280 OFFCURVE",
"828 340 QCURVE SMOOTH",
"907 399 OFFCURVE",
"936 508 QCURVE SMOOTH",
"995 729 OFFCURVE",
"748 728 QCURVE SMOOTH",
"526 726 LINE SMOOTH",
"275 726 OFFCURVE",
"217 508 QCURVE SMOOTH",
"188 399 OFFCURVE",
"236 340 QCURVE SMOOTH",
"283 280 OFFCURVE",
"406 280 QCURVE SMOOTH",
"450 280 LINE",
"366 0 LINE"
);
},
{
closed = 1;
nodes = (
"458 407 OFFCURVE",
"421 410 QCURVE",
"342 411 OFFCURVE",
"309 451 QCURVE SMOOTH",
"279 487 OFFCURVE",
"295 539 QCURVE SMOOTH",
"310 590 OFFCURVE",
"359 625 QCURVE SMOOTH",
"413 664 OFFCURVE",
"486 673 QCURVE",
"559 672 LINE",
"484 409 LINE"
);
},
{
closed = 1;
nodes = (
"670 672 LINE",
"740 672 LINE",
"892 662 OFFCURVE",
"862 547 QCURVE SMOOTH",
"825 410 OFFCURVE",
"669 410 QCURVE SMOOTH",
"604 410 LINE"
);
}
);
width = 881;
},
{
layerId = "BBDB329E-CE83-4304-A6B1-53EA5ACC004E";
paths = (
{
closed = 1;
nodes = (
"538 0 LINE",
"604 280 LINE",
"660 280 LINE SMOOTH",
"783 280 OFFCURVE",
"828 340 QCURVE SMOOTH",
"907 399 OFFCURVE",
"936 508 QCURVE SMOOTH",
"995 729 OFFCURVE",
"748 728 QCURVE SMOOTH",
"526 726 LINE SMOOTH",
"275 726 OFFCURVE",
"217 508 QCURVE SMOOTH",
"188 399 OFFCURVE",
"236 340 QCURVE SMOOTH",
"249 280 OFFCURVE",
"372 280 QCURVE SMOOTH",
"415 280 LINE",
"331 0 LINE"
);
},
{
closed = 1;
nodes = (
"445 440 OFFCURVE",
"418 442 QCURVE",
"359 443 OFFCURVE",
"334 473 QCURVE SMOOTH",
"312 500 OFFCURVE",
"323 539 QCURVE SMOOTH",
"335 578 OFFCURVE",
"372 604 QCURVE SMOOTH",
"412 633 OFFCURVE",
"467 640 QCURVE",
"522 639 LINE",
"466 442 LINE"
);
},
{
closed = 1;
nodes = (
"689 639 LINE",
"742 639 LINE",
"856 632 OFFCURVE",
"833 546 QCURVE SMOOTH",
"806 443 OFFCURVE",
"689 443 QCURVE SMOOTH",
"640 443 LINE"
);
}
);
width = 881;
}
);
note = uni0424;
unicode = 0424;
},
{
glyphname = "Che-cy";
lastChange = "2019-09-18 20:03:01 +0000";
layers = (
{
anchors = (
{
name = top;
position = "{530, 905}";
}
);
layerId = "BA196CD0-EE58-4274-B8DF-4393D3617A29";
paths = (
{
closed = 1;
nodes = (
"94 318 OFFCURVE",
"132 256 QCURVE SMOOTH",
"169 196 OFFCURVE",
"264 196 QCURVE SMOOTH",
"399 196 OFFCURVE",
"474 278 QCURVE",
"393 0 LINE",
"519 0 LINE",
"694 730 LINE",
"610 730 LINE",
"530 477 LINE SMOOTH",
"505 399 OFFCURVE",
"452 354 QCURVE SMOOTH",
"400 310 OFFCURVE",
"326 312 QCURVE SMOOTH",
"261 314 OFFCURVE",
"235 339 QCURVE SMOOTH",
"203 370 OFFCURVE",
"225 459 QCURVE SMOOTH",
"292 730 LINE",
"211 730 LINE",
"126 430 LINE SMOOTH"
);
}
);
width = 670;
},
{
layerId = "BBDB329E-CE83-4304-A6B1-53EA5ACC004E";
paths = (
{
closed = 1;
nodes = (
"156 317 OFFCURVE",
"202 256 QCURVE SMOOTH",
"238 196 OFFCURVE",
"334 196 QCURVE SMOOTH",
"469 196 OFFCURVE",
"544 278 QCURVE",
"463 0 LINE",
"602 0 LINE",
"777 730 LINE",
"655 730 LINE",
"582 500 LINE SMOOTH",
"560 428 OFFCURVE",
"511 388 QCURVE SMOOTH",
"463 349 OFFCURVE",
"407 350 QCURVE SMOOTH",
"349 351 OFFCURVE",
"325 375 QCURVE SMOOTH",
"280 405 OFFCURVE",
"316 484 QCURVE SMOOTH",
"423 727 LINE",
"304 734 LINE",
"196 430 LINE SMOOTH"
);
}
);
width = 670;
}
);
note = uni0427;
unicode = 0427;
},
{
glyphname = "Tse-cy";
lastChange = "2019-09-05 22:37:17 +0000";
layers = (
{
layerId = "BA196CD0-EE58-4274-B8DF-4393D3617A29";
paths = (
{
closed = 1;
nodes = (
"81 0 LINE",
"537 0 LINE",
"458 -144 LINE",
"569 -144 LINE",
"678 118 LINE",
"605 116 LINE",
"754 729 LINE",
"677 729 LINE",
"490 113 LINE",
"223 111 LINE",
"375 728 LINE",
"286 728 LINE"
);
}
);
width = 727;
},
{
layerId = "BBDB329E-CE83-4304-A6B1-53EA5ACC004E";
paths = (
{
closed = 1;
nodes = (
"46 -27 LINE",
"494 -27 LINE",
"415 -171 LINE",
"585 -171 LINE",
"717 146 LINE",
"639 144 LINE",
"787 756 LINE",
"658 756 LINE",
"471 140 LINE",
"256 138 LINE",
"408 755 LINE",
"266 755 LINE"
);
}
);
width = 727;
}
);
note = uni0426;
unicode = 0426;
},
{
glyphname = "Sha-cy";
lastChange = "2019-09-05 22:37:17 +0000";
layers = (
{
layerId = "BA196CD0-EE58-4274-B8DF-4393D3617A29";
paths = (
{
closed = 1;
nodes = (
"275 726 LINE",
"86 0 LINE",
"737 0 LINE",
"927 726 LINE",
"830 726 LINE",
"683 109 LINE",
"502 110 LINE",
"668 702 LINE",
"559 702 LINE",
"418 110 LINE",
"214 110 LINE",
"388 726 LINE"
);
}
);
width = 818;
},
{
layerId = "BBDB329E-CE83-4304-A6B1-53EA5ACC004E";
paths = (
{
closed = 1;
nodes = (
"255 753 LINE",
"51 -27 LINE",
"757 -27 LINE",
"961 753 LINE",
"809 753 LINE",
"662 136 LINE",
"537 137 LINE",
"702 729 LINE",
"538 729 LINE",
"397 137 LINE",
"249 137 LINE",
"423 753 LINE"
);
}
);
width = 818;
}
);
note = uni0428;
unicode = 0428;
},
{
glyphname = "Shcha-cy";
lastChange = "2019-09-05 22:37:17 +0000";
layers = (
{
layerId = "BA196CD0-EE58-4274-B8DF-4393D3617A29";
paths = (
{
closed = 1;
nodes = (
"275 726 LINE",
"86 0 LINE",
"711 0 LINE",
"633 -152 LINE",
"744 -152 LINE",
"861 104 LINE",
"769 122 LINE",
"927 726 LINE",
"830 726 LINE",
"684 121 LINE",
"505 120 LINE",
"668 702 LINE",
"559 702 LINE",
"421 120 LINE",
"206 121 LINE",
"388 726 LINE"
);
}
);
width = 914;
},
{
layerId = "BBDB329E-CE83-4304-A6B1-53EA5ACC004E";
paths = (
{
closed = 1;
nodes = (
"255 753 LINE",
"51 -27 LINE",
"669 -27 LINE",
"591 -179 LINE",
"759 -179 LINE",
"899 126 LINE",
"802 144 LINE",
"961 753 LINE",
"809 753 LINE",
"663 148 LINE",
"539 147 LINE",
"702 729 LINE",
"538 729 LINE",
"400 147 LINE",
"242 148 LINE",
"424 753 LINE"
);
}
);
width = 914;
}
);
note = uni0429;
unicode = 0429;
},
{
glyphname = "Dzhe-cy";
lastChange = "2019-09-05 22:37:17 +0000";
layers = (
{
layerId = "BA196CD0-EE58-4274-B8DF-4393D3617A29";
paths = (
{
closed = 1;
nodes = (
"81 0 LINE",
"633 0 LINE",
"821 700 LINE",
"268 700 LINE"
);
},
{
closed = 1;
nodes = (
"717 700 LINE",
"555 98 LINE",
"214 98 LINE",
"375 700 LINE"
);
},
{
closed = 1;
nodes = (
"265 -188 LINE",
"349 -188 LINE",
"399 0 LINE",
"315 0 LINE"
);
}
);
width = 714;
},
{
layerId = "BBDB329E-CE83-4304-A6B1-53EA5ACC004E";
paths = (
{
closed = 1;
nodes = (
"-7 -27 LINE",
"600 -27 LINE",
"802 727 LINE",
"195 727 LINE"
);
},
{
closed = 1;
nodes = (
"643 727 LINE",
"482 125 LINE",
"195 125 LINE",
"356 727 LINE"
);
},
{
closed = 1;
nodes = (
"177 -215 LINE",
"315 -215 LINE",
"380 27 LINE",
"242 27 LINE"
);
}
);
width = 606;
}
);
unicode = 040F;
},
{
glyphname = "Softsign-cy";
lastChange = "2019-09-05 22:37:17 +0000";
layers = (
{
layerId = "BA196CD0-EE58-4274-B8DF-4393D3617A29";
paths = (
{
closed = 1;
nodes = (
"300 0 LINE SMOOTH",
"550 0 OFFCURVE",
"609 218 QCURVE SMOOTH",
"638 327 OFFCURVE",
"591 386 QCURVE SMOOTH",
"543 446 OFFCURVE",
"419 446 QCURVE SMOOTH",
"299 446 LINE",
"365 729 LINE",
"286 729 LINE",
"81 0 LINE"
);
},
{
closed = 1;
nodes = (
"280 378 LINE",
"415 378 LINE SMOOTH",
"488 378 OFFCURVE",
"516 336 QCURVE SMOOTH",
"543 296 OFFCURVE",
"525 228 QCURVE SMOOTH",
"515 191 OFFCURVE",
"467 162 QCURVE SMOOTH",
"413 130 OFFCURVE",
"343 130 QCURVE SMOOTH",
"218 130 LINE"
);
}
);
width = 631;
},
{
layerId = "BBDB329E-CE83-4304-A6B1-53EA5ACC004E";
paths = (
{
closed = 1;
nodes = (
"300 0 LINE SMOOTH",
"550 0 OFFCURVE",
"609 218 QCURVE SMOOTH",
"638 327 OFFCURVE",
"591 386 QCURVE SMOOTH",
"543 446 OFFCURVE",
"419 446 QCURVE SMOOTH",
"299 446 LINE",
"365 729 LINE",
"256 729 LINE",
"51 0 LINE"
);
},
{
closed = 1;
nodes = (
"271 327 LINE",
"373 327 LINE SMOOTH",
"428 327 OFFCURVE",
"449 296 QCURVE SMOOTH",
"469 266 OFFCURVE",
"455 214 QCURVE SMOOTH",
"448 187 OFFCURVE",
"412 165 QCURVE SMOOTH",
"371 141 OFFCURVE",
"319 141 QCURVE SMOOTH",
"225 141 LINE"
);
}
);
width = 631;
}
);
note = uni042C;
unicode = 042C;
},
{
glyphname = "Lje-cy";
lastChange = "2019-09-05 22:37:17 +0000";
layers = (
{
anchors = (
{
name = _bottom_hook;
position = "{402, 584}";
},
{
name = center;
position = "{533, 349}";
}
);
components = (
{
name = "Softsign-cy";
transform = "{1, 0, 0, 1, 462, 0}";
}
);
layerId = "BA196CD0-EE58-4274-B8DF-4393D3617A29";
paths = (
{
closed = 1;
nodes = (
"379 653 LINE",
"806 653 LINE",
"827 729 LINE",
"399 729 LINE"
);
},
{
closed = 1;
nodes = (
"203 -18 OFFCURVE",
"242 -20 OFFCURVE",
"282 101 CURVE SMOOTH",
"359 339 OFFCURVE",
"383 412 OFFCURVE",
"461 653 CURVE",
"457 664 OFFCURVE",
"438 669 OFFCURVE",
"426 669 CURVE SMOOTH",
"414 669 OFFCURVE",
"391 663 OFFCURVE",
"380 653 CURVE",
"324 432 OFFCURVE",
"227 175 OFFCURVE",
"203 120 CURVE SMOOTH",
"187 83 OFFCURVE",
"186 69 OFFCURVE",
"117 69 CURVE",
"76 -17 LINE"
);
}
);
width = 1093;
},
{
anchors = (
{
name = _bottom_hook;
position = "{159, 584}";
},
{
name = center;
position = "{289, 349}";
}
);
components = (
{
name = "Softsign-cy";
transform = "{1, 0, 0, 1, 218, 0}";
}
);
layerId = "BBDB329E-CE83-4304-A6B1-53EA5ACC004E";
paths = (
{
closed = 1;
nodes = (
"101 626 LINE",
"583 626 LINE",
"618 756 LINE",
"136 756 LINE"
);
},
{
closed = 1;
nodes = (
"-59 -43 OFFCURVE",
"13 -61 OFFCURVE",
"65 99 CURVE SMOOTH",
"143 337 OFFCURVE",
"167 411 OFFCURVE",
"244 652 CURVE",
"244 667 LINE",
"237 685 OFFCURVE",
"214 696 OFFCURVE",
"190 696 CURVE SMOOTH",
"158 696 OFFCURVE",
"110 675 OFFCURVE",
"109 650 CURVE",
"53 431 OFFCURVE",
"-43 178 OFFCURVE",
"-67 124 CURVE SMOOTH",
"-88 75 OFFCURVE",
"-82 102 OFFCURVE",
"-141 94 CURVE",
"-208 -44 LINE"
);
}
);
width = 606;
}
);
unicode = 0409;
},
{
glyphname = "Nje-cy";
lastChange = "2019-09-05 22:37:17 +0000";
layers = (
{
anchors = (
{
name = _bottom_hook;
position = "{356, 584}";
},
{
name = center;
position = "{488, 349}";
}
);
components = (
{
name = "Softsign-cy";
transform = "{1, 0, 0, 1, 417, 0}";
}
);
layerId = "BA196CD0-EE58-4274-B8DF-4393D3617A29";
paths = (
{
closed = 1;
nodes = (
"257 368 LINE",
"685 368 LINE",
"706 444 LINE",
"278 444 LINE"
);
},
{
closed = 1;
nodes = (
"81 0 LINE",
"168 0 LINE",
"365 735 LINE",
"278 735 LINE"
);
}
);
width = 1048;
},
{
anchors = (
{
name = _bottom_hook;
position = "{135, 584}";
},
{
name = center;
position = "{267, 349}";
}
);
components = (
{
name = "Softsign-cy";
transform = "{1, 0, 0, 1, 196, 0}";
}
);
layerId = "BBDB329E-CE83-4304-A6B1-53EA5ACC004E";
paths = (
{
closed = 1;
nodes = (
"1 341 LINE",
"484 341 LINE",
"519 471 LINE",
"36 471 LINE"
);
},
{
closed = 1;
nodes = (
"-175 -27 LINE",
"-33 -27 LINE",
"178 762 LINE",
"37 762 LINE"
);
}
);
width = 606;
}
);
unicode = 040A;
},
{
glyphname = "E-cy";
lastChange = "2019-09-05 22:37:17 +0000";
layers = (
{
anchors = (
{
name = bottom;
position = "{408, -54}";
},
{
name = center;
position = "{526, 387}";
},
{
name = horn;
position = "{842, 547}";
},
{
name = ogonek;
position = "{758, 10}";
},
{
name = top;
position = "{644, 842}";
},
{
name = topleft;
position = "{213, 700}";
},
{
name = topright;
position = "{1006, 700}";
}
);
components = (
{
name = hyphen;
transform = "{1, 0, 0, 1, 31, 91}";
}
);
layerId = "BA196CD0-EE58-4274-B8DF-4393D3617A29";
paths = (
{
closed = 1;
nodes = (
"663 219 LINE",
"612 185 OFFCURVE",
"546 173 OFFCURVE",
"469 173 CURVE SMOOTH",
"324 173 OFFCURVE",
"243 213 OFFCURVE",
"283 364 CURVE SMOOTH",
"333 548 OFFCURVE",
"458 672 OFFCURVE",
"602 672 CURVE SMOOTH",
"700 672 OFFCURVE",
"759 615 OFFCURVE",
"770 521 CURVE",
"878 521 LINE",
"867 659 OFFCURVE",
"776 742 OFFCURVE",
"621 742 CURVE SMOOTH",
"414 742 OFFCURVE",
"240 594 OFFCURVE",
"178 364 CURVE SMOOTH",
"95 54 OFFCURVE",
"184 -12 OFFCURVE",
"418 -14 CURVE SMOOTH",
"629 -16 OFFCURVE",
"736 31 OFFCURVE",
"812 219 CURVE"
);
}
);
width = 834;
},
{
anchors = (
{
name = bottom;
position = "{413, -54}";
},
{
name = center;
position = "{531, 387}";
},
{
name = horn;
position = "{848, 547}";
},
{
name = ogonek;
position = "{763, 10}";
},
{
name = top;
position = "{649, 842}";
},
{
name = topleft;
position = "{218, 700}";
},
{
name = topright;
position = "{1011, 700}";
}
);
components = (
{
name = hyphen;
transform = "{1, 0, 0, 1, 97, 91}";
}
);
layerId = "BBDB329E-CE83-4304-A6B1-53EA5ACC004E";
paths = (
{
closed = 1;
nodes = (
"665 246 LINE",
"623 214 OFFCURVE",
"567 200 OFFCURVE",
"481 200 CURVE SMOOTH",
"329 200 OFFCURVE",
"284 246 OFFCURVE",
"316 364 CURVE SMOOTH",
"362 536 OFFCURVE",
"474 645 OFFCURVE",
"600 645 CURVE SMOOTH",
"690 645 OFFCURVE",
"743 591 OFFCURVE",
"748 494 CURVE",
"912 494 LINE",
"915 667 OFFCURVE",
"809 769 OFFCURVE",
"633 769 CURVE SMOOTH",
"410 769 OFFCURVE",
"221 608 OFFCURVE",
"156 364 CURVE SMOOTH",
"76 64 OFFCURVE",
"142 -39 OFFCURVE",
"416 -41 CURVE SMOOTH",
"665 -43 OFFCURVE",
"776 30 OFFCURVE",
"855 246 CURVE"
);
}
);
width = 843;
}
);
unicode = 0404;
},
{
glyphname = "Iu-cy";
lastChange = "2019-09-05 22:37:17 +0000";
layers = (
{
layerId = "BA196CD0-EE58-4274-B8DF-4393D3617A29";
paths = (
{
closed = 1;
nodes = (
"849 -2 OFFCURVE",
"947 364 QCURVE SMOOTH",
"1046 733 OFFCURVE",
"762 733 QCURVE SMOOTH",
"490 733 OFFCURVE",
"362 343 QCURVE",
"283 360 LINE",
"388 729 LINE",
"276 729 LINE",
"89 0 LINE",
"175 0 LINE",
"252 266 LINE",
"343 275 LINE",
"277 -2 OFFCURVE",
"565 -2 QCURVE SMOOTH"
);
},
{
closed = 1;
nodes = (
"521 146 OFFCURVE",
"481 200 QCURVE SMOOTH",
"438 259 OFFCURVE",
"466 364 QCURVE SMOOTH",
"504 504 OFFCURVE",
"575 582 QCURVE SMOOTH",
"649 662 OFFCURVE",
"743 662 QCURVE SMOOTH",
"931 662 OFFCURVE",
"851 364 QCURVE SMOOTH",
"822 256 OFFCURVE",
"756 200 QCURVE SMOOTH",
"692 146 OFFCURVE",
"604 146 QCURVE SMOOTH"
);
}
);
width = 930;
},
{
layerId = "BBDB329E-CE83-4304-A6B1-53EA5ACC004E";
paths = (
{
closed = 1;
nodes = (
"849 -2 OFFCURVE",
"947 364 QCURVE SMOOTH",
"1051 754 OFFCURVE",
"768 754 QCURVE SMOOTH",
"507 754 OFFCURVE",
"393 461 QCURVE",
"330 478 LINE",
"403 729 LINE",
"276 729 LINE",
"89 0 LINE",
"190 0 LINE",
"267 266 LINE",
"343 275 LINE",
"277 -2 OFFCURVE",
"565 -2 QCURVE SMOOTH"
);
},
{
closed = 1;
nodes = (
"547 191 OFFCURVE",
"513 235 QCURVE SMOOTH",
"478 284 OFFCURVE",
"501 371 QCURVE SMOOTH",
"532 487 OFFCURVE",
"591 551 QCURVE SMOOTH",
"652 617 OFFCURVE",
"730 617 QCURVE",
"885 617 OFFCURVE",
"820 371 QCURVE SMOOTH",
"796 282 OFFCURVE",
"741 235 QCURVE SMOOTH",
"687 191 OFFCURVE",
"615 191 QCURVE SMOOTH"
);
}
);
width = 930;
}
);
note = uni042E;
unicode = 042E;
},
{
glyphname = "Yat-cy";
lastChange = "2019-09-20 13:25:54 +0000";
layers = (
{
components = (
{
name = hyphen;
transform = "{1, 0, 0, 1, 83, 310}";
}
);
layerId = "BA196CD0-EE58-4274-B8DF-4393D3617A29";
paths = (
{
closed = 1;
nodes = (
"621 -14 OFFCURVE",
"653 0 OFFCURVE",
"714 226 CURVE SMOOTH",
"733 297 OFFCURVE",
"714 395 OFFCURVE",
"553 395 CURVE SMOOTH",
"404 395 OFFCURVE",
"391 410 OFFCURVE",
"436 558 CURVE SMOOTH",
"483 708 LINE",
"388 708 LINE",
"269 265 OFFCURVE",
"214 104 OFFCURVE",
"251 46 CURVE SMOOTH",
"296 -25 OFFCURVE",
"308 -14 OFFCURVE",
"453 -14 CURVE SMOOTH"
);
},
{
closed = 1;
nodes = (
"386 146 OFFCURVE",
"354 144 OFFCURVE",
"374 219 CURVE SMOOTH",
"405 336 OFFCURVE",
"405 336 OFFCURVE",
"559 339 CURVE SMOOTH",
"657 341 OFFCURVE",
"652 252 OFFCURVE",
"646 227 CURVE",
"630 174 OFFCURVE",
"599 152 OFFCURVE",
"517 146 CURVE"
);
}
);
width = 734;
},
{
components = (
{
name = hyphen;
transform = "{1, 0, 0, 1, 92, 310}";
}
);
layerId = "BBDB329E-CE83-4304-A6B1-53EA5ACC004E";
paths = (
{
closed = 1;
nodes = (
"649 -41 OFFCURVE",
"688 -5 OFFCURVE",
"750 226 CURVE SMOOTH",
"782 345 OFFCURVE",
"711 422 OFFCURVE",
"570 422 CURVE SMOOTH",
"436 422 OFFCURVE",
"432 426 OFFCURVE",
"472 557 CURVE SMOOTH",
"527 735 LINE",
"377 735 LINE",
"254 273 OFFCURVE",
"191 96 OFFCURVE",
"235 28 CURVE SMOOTH",
"290 -59 OFFCURVE",
"332 -41 OFFCURVE",
"455 -41 CURVE SMOOTH"
);
},
{
closed = 1;
nodes = (
"399 173 OFFCURVE",
"398 173 OFFCURVE",
"410 219 CURVE SMOOTH",
"435 313 OFFCURVE",
"416 309 OFFCURVE",
"562 312 CURVE SMOOTH",
"637 314 OFFCURVE",
"633 249 OFFCURVE",
"627 227 CURVE SMOOTH",
"617 190 OFFCURVE",
"599 178 OFFCURVE",
"532 173 CURVE"
);
}
);
width = 752;
}
);
unicode = 0462;
},
{
glyphname = "Yusbig-cy";
lastChange = "2019-09-05 22:37:17 +0000";
layers = (
{
layerId = "BA196CD0-EE58-4274-B8DF-4393D3617A29";
paths = (
{
closed = 1;
nodes = (
"1026 715 LINE",
"319 715 LINE",
"292 616 LINE",
"999 616 LINE"
);
},
{
closed = 1;
nodes = (
"612 333 LINE",
"422 715 LINE",
"292 616 LINE",
"505 333 LINE"
);
},
{
closed = 1;
nodes = (
"612 330 LINE",
"999 616 LINE",
"916 715 LINE",
"505 330 LINE"
);
},
{
closed = 1;
nodes = (
"449 123 OFFCURVE",
"446 36 OFFCURVE",
"401 -2 CURVE",
"454 -2 OFFCURVE",
"518 -2 OFFCURVE",
"542 -2 CURVE",
"518 36 OFFCURVE",
"568 123 OFFCURVE",
"627 394 CURVE",
"522 394 LINE"
);
},
{
closed = 1;
nodes = (
"724 340 OFFCURVE",
"757 257 OFFCURVE",
"730 -2 CURVE",
"859 -2 LINE",
"807 97 OFFCURVE",
"908 377 OFFCURVE",
"670 377 CURVE",
"662 435 OFFCURVE",
"626 368 OFFCURVE",
"616 330 CURVE"
);
},
{
closed = 1;
nodes = (
"321 257 OFFCURVE",
"398 340 OFFCURVE",
"502 330 CURVE",
"512 368 OFFCURVE",
"511 435 OFFCURVE",
"473 377 CURVE",
"234 377 OFFCURVE",
"185 97 OFFCURVE",
"80 -2 CURVE",
"210 -2 LINE"
);
}
);
width = 940;
},
{
layerId = "BBDB329E-CE83-4304-A6B1-53EA5ACC004E";
paths = (
{
closed = 1;
nodes = (
"1025 742 LINE",
"263 742 LINE",
"222 589 LINE",
"984 589 LINE"
);
},
{
closed = 1;
nodes = (
"624 306 LINE",
"401 756 LINE",
"218 616 LINE",
"452 306 LINE"
);
},
{
closed = 1;
nodes = (
"580 303 LINE",
"1004 616 LINE",
"888 754 LINE",
"405 303 LINE"
);
},
{
closed = 1;
nodes = (
"358 25 OFFCURVE",
"390 12 OFFCURVE",
"298 -29 CURVE",
"339 -29 OFFCURVE",
"463 -29 OFFCURVE",
"499 -29 CURVE",
"532 16 LINE",
"515 43 OFFCURVE",
"563 125 OFFCURVE",
"625 421 CURVE",
"466 421 LINE"
);
},
{
closed = 1;
nodes = (
"576 303 LINE",
"669 312 OFFCURVE",
"693 231 OFFCURVE",
"664 -29 CURVE",
"873 -29 LINE",
"806 96 OFFCURVE",
"896 390 OFFCURVE",
"659 404 CURVE",
"640 459 OFFCURVE",
"576 415 OFFCURVE",
"553 330 CURVE"
);
},
{
closed = 1;
nodes = (
"300 231 OFFCURVE",
"367 312 OFFCURVE",
"456 303 CURVE",
"493 330 LINE",
"516 415 OFFCURVE",
"475 459 OFFCURVE",
"427 404 CURVE",
"182 390 OFFCURVE",
"115 97 OFFCURVE",
"-18 -29 CURVE",
"190 -29 LINE"
);
}
);
width = 869;
}
);
unicode = 046A;
},
{
glyphname = "Zhedescender-cy";
lastChange = "2019-10-12 22:50:50 +0000";
layers = (
{
components = (
{
name = "Zhe-cy";
transform = "{1, 0, 0, 1, 37, 0}";
}
);
layerId = "BA196CD0-EE58-4274-B8DF-4393D3617A29";
paths = (
{
closed = 1;
nodes = (
"949 -133 LINE",
"1021 -133 LINE",
"1074 65 LINE",
"1002 65 LINE"
);
}
);
width = 1137;
},
{
components = (
{
name = "Zhe-cy";
transform = "{1, 0, 0, 1, 151, 19}";
}
);
layerId = "BBDB329E-CE83-4304-A6B1-53EA5ACC004E";
paths = (
{
closed = 1;
nodes = (
"1083 -160 LINE",
"1210 -160 LINE",
"1277 92 LINE",
"1151 92 LINE"
);
}
);
width = 1475;
}
);
unicode = 0496;
},
{
glyphname = "Zedescender-cy";
lastChange = "2019-09-05 22:37:17 +0000";
layers = (
{
components = (
{
name = "Ze-cy";
}
);
layerId = "BA196CD0-EE58-4274-B8DF-4393D3617A29";
paths = (
{
closed = 1;
nodes = (
"216 -124 LINE",
"298 -124 LINE",
"334 10 LINE",
"252 10 LINE"
);
}
);
width = 646;
},
{
components = (
{
name = "Ze-cy";
}
);
layerId = "BBDB329E-CE83-4304-A6B1-53EA5ACC004E";
paths = (
{
closed = 1;
nodes = (
"182 -151 LINE",
"318 -151 LINE",
"368 37 LINE",
"232 37 LINE"
);
}
);
width = 646;
}
);
unicode = 0498;
},
{
glyphname = "Kadescender-cy";
lastChange = "2019-10-12 22:57:36 +0000";
layers = (
{
components = (
{
name = K;
}
);
layerId = "BA196CD0-EE58-4274-B8DF-4393D3617A29";
paths = (
{
closed = 1;
nodes = (
"627 -118 LINE",
"697 -118 LINE",
"740 43 LINE",
"671 43 LINE"
);
}
);
width = 760;
},
{
components = (
{
name = K;
transform = "{1, 0, 0, 1, -11, 0}";
}
);
layerId = "BBDB329E-CE83-4304-A6B1-53EA5ACC004E";
paths = (
{
closed = 1;
nodes = (
"692 -145 LINE",
"816 -145 LINE",
"874 70 LINE",
"749 70 LINE"
);
}
);
width = 737;
}
);
unicode = 049A;
},
{
glyphname = "Kaverticalstroke-cy";
lastChange = "2019-10-03 20:41:38 +0000";
layers = (
{
anchors = (
{
name = bottom;
position = "{321, 0}";
},
{
name = top;
position = "{574, 729}";
},
{
name = top_hook;
position = "{736, 515}";
}
);
components = (
{
name = verticallinemod;
transform = "{1.1546, 0, 0, 2.04615, -17, -953}";
}
);
layerId = "BA196CD0-EE58-4274-B8DF-4393D3617A29";
paths = (
{
closed = 1;
nodes = (
"381 276 LINE",
"497 0 LINE",
"733 0 LINE",
"479 327 LINE",
"832 729 LINE",
"704 729 LINE",
"408 375 LINE"
);
},
{
closed = 1;
nodes = (
"408 375 LINE",
"203 359 LINE",
"316 729 LINE",
"227 729 LINE",
"-35 0 LINE",
"95 0 LINE",
"185 289 LINE",
"380 272 LINE"
);
}
);
width = 848;
},
{
anchors = (
{
name = bottom;
position = "{310, 0}";
},
{
name = top;
position = "{564, 729}";
},
{
name = top_hook;
position = "{726, 515}";
}
);
components = (
{
name = verticallinemod;
transform = "{0.69753, 0.10799, 0.26065, 1.4877, 114, -622}";
}
);
layerId = "BBDB329E-CE83-4304-A6B1-53EA5ACC004E";
paths = (
{
closed = 1;
nodes = (
"421 268 LINE",
"545 -27 LINE",
"862 -27 LINE",
"584 331 LINE",
"957 756 LINE",
"764 756 LINE",
"452 382 LINE"
);
},
{
closed = 1;
nodes = (
"433 406 LINE",
"309 390 LINE",
"421 756 LINE",
"278 756 LINE",
"-2 -27 LINE",
"184 -27 LINE",
"272 258 LINE",
"389 241 LINE"
);
}
);
width = 1074;
}
);
unicode = 049C;
},
{
glyphname = "Endescender-cy";
lastChange = "2019-10-12 02:02:41 +0000";
layers = (
{
components = (
{
name = H;
}
);
layerId = "BA196CD0-EE58-4274-B8DF-4393D3617A29";
paths = (
{
closed = 1;
nodes = (
"652 -127 LINE",
"731 -127 LINE",
"775 39 LINE",
"696 39 LINE"
);
}
);
width = 845;
},
{
components = (
{
name = H;
transform = "{1, 0, 0, 1, -117, 0}";
}
);
layerId = "BBDB329E-CE83-4304-A6B1-53EA5ACC004E";
paths = (
{
closed = 1;
nodes = (
"584 -154 LINE",
"717 -154 LINE",
"776 66 LINE",
"643 66 LINE"
);
}
);
width = 779;
}
);
unicode = 04A2;
},
{
glyphname = "Pedescender-cy";
lastChange = "2019-09-05 22:37:17 +0000";
layers = (
{
components = (
{
name = "Pe-cy";
}
);
layerId = "BA196CD0-EE58-4274-B8DF-4393D3617A29";
paths = (
{
closed = 1;
nodes = (
"552 -126 LINE",
"637 -126 LINE",
"695 91 LINE",
"610 91 LINE"
);
}
);
width = 751;
},
{
components = (
{
name = "Pe-cy";
transform = "{1, 0, 0, 1, -32, 0}";
}
);
layerId = "BBDB329E-CE83-4304-A6B1-53EA5ACC004E";
paths = (
{
closed = 1;
nodes = (
"485 -153 LINE",
"625 -153 LINE",
"697 118 LINE",
"558 118 LINE"
);
}
);
width = 687;
}
);
unicode = 0524;
},
{
glyphname = "Haabkhasian-cy";
lastChange = "2019-09-05 22:37:17 +0000";
layers = (
{
layerId = "BA196CD0-EE58-4274-B8DF-4393D3617A29";
paths = (
{
closed = 1;
nodes = (
"392 704 OFFCURVE",
"213 494 OFFCURVE",
"161 300 CURVE SMOOTH",
"124 163 OFFCURVE",
"151 35 OFFCURVE",
"261 -1 CURVE SMOOTH",
"314 -18 OFFCURVE",
"366 -26 OFFCURVE",
"416 -26 CURVE SMOOTH",
"732 -26 OFFCURVE",
"995 275 OFFCURVE",
"1040 443 CURVE SMOOTH",
"1061 523 OFFCURVE",
"1055 623 OFFCURVE",
"885 623 CURVE SMOOTH",
"688 623 OFFCURVE",
"550 463 OFFCURVE",
"508 305 CURVE SMOOTH",
"467 151 OFFCURVE",
"516 -1 OFFCURVE",
"689 -1 CURVE SMOOTH",
"814 -1 OFFCURVE",
"849 12 OFFCURVE",
"997 86 CURVE",
"974 197 LINE",
"877 141 OFFCURVE",
"802 119 OFFCURVE",
"745 119 CURVE SMOOTH",
"618 119 OFFCURVE",
"584 232 OFFCURVE",
"614 343 CURVE SMOOTH",
"642 448 OFFCURVE",
"727 550 OFFCURVE",
"843 550 CURVE SMOOTH",
"850 550 OFFCURVE",
"857 550 OFFCURVE",
"865 549 CURVE SMOOTH",
"951 539 OFFCURVE",
"975 500 OFFCURVE",
"962 449 CURVE SMOOTH",
"931 334 OFFCURVE",
"710 158 OFFCURVE",
"584 118 CURVE SMOOTH",
"528 100 OFFCURVE",
"479 92 OFFCURVE",
"439 92 CURVE SMOOTH",
"286 92 OFFCURVE",
"244 204 OFFCURVE",
"275 321 CURVE SMOOTH",
"310 451 OFFCURVE",
"437 587 OFFCURVE",
"608 577 CURVE",
"640 695 LINE"
);
}
);
width = 1054;
},
{
layerId = "BBDB329E-CE83-4304-A6B1-53EA5ACC004E";
paths = (
{
closed = 1;
nodes = (
"254 744 OFFCURVE",
"23 560 OFFCURVE",
"-47 300 CURVE SMOOTH",
"-90 138 OFFCURVE",
"-47 10 OFFCURVE",
"65 -27 CURVE SMOOTH",
"121 -44 OFFCURVE",
"174 -53 OFFCURVE",
"228 -53 CURVE SMOOTH",
"559 -53 OFFCURVE",
"839 268 OFFCURVE",
"886 443 CURVE SMOOTH",
"922 576 OFFCURVE",
"859 650 OFFCURVE",
"711 650 CURVE SMOOTH",
"524 650 OFFCURVE",
"354 506 OFFCURVE",
"300 305 CURVE SMOOTH",
"248 113 OFFCURVE",
"332 -28 OFFCURVE",
"501 -28 CURVE SMOOTH",
"638 -28 OFFCURVE",
"678 -10 OFFCURVE",
"848 75 CURVE",
"815 238 LINE",
"716 177 OFFCURVE",
"635 146 OFFCURVE",
"571 146 CURVE SMOOTH",
"474 146 OFFCURVE",
"430 228 OFFCURVE",
"461 343 CURVE SMOOTH",
"489 450 OFFCURVE",
"567 523 OFFCURVE",
"655 523 CURVE SMOOTH",
"662 523 OFFCURVE",
"667 523 OFFCURVE",
"674 522 CURVE SMOOTH",
"741 514 OFFCURVE",
"765 490 OFFCURVE",
"754 449 CURVE SMOOTH",
"729 356 OFFCURVE",
"530 184 OFFCURVE",
"401 143 CURVE SMOOTH",
"350 127 OFFCURVE",
"305 119 OFFCURVE",
"265 119 CURVE SMOOTH",
"145 119 OFFCURVE",
"89 200 OFFCURVE",
"121 321 CURVE SMOOTH",
"161 469 OFFCURVE",
"302 571 OFFCURVE",
"447 547 CURVE",
"493 720 LINE"
);
}
);
width = 693;
}
);
unicode = 04A8;
},
{
glyphname = "Tedescender-cy";
lastChange = "2019-10-12 02:07:27 +0000";
layers = (
{
components = (
{
name = T;
}
);
layerId = "BA196CD0-EE58-4274-B8DF-4393D3617A29";
paths = (
{
closed = 1;
nodes = (
"493 -100 LINE",
"537 63 LINE",
"460 63 LINE",
"417 -100 LINE"
);
}
);
width = 785;
},
{
components = (
{
name = T;
transform = "{1, 0, 0, 1, -106, 0}";
}
);
layerId = "BBDB329E-CE83-4304-A6B1-53EA5ACC004E";
paths = (
{
closed = 1;
nodes = (
"385 -127 LINE",
"516 -127 LINE",
"575 90 LINE",
"443 90 LINE"
);
}
);
width = 785;
}
);
unicode = 04AC;
},
{
glyphname = "Hadescender-cy";
lastChange = "2019-10-12 03:45:57 +0000";
layers = (
{
components = (
{
name = X;
}
);
layerId = "BA196CD0-EE58-4274-B8DF-4393D3617A29";
paths = (
{
closed = 1;
nodes = (
"645 -116 LINE",
"715 -116 LINE",
"762 59 LINE",
"691 59 LINE"
);
}
);
width = 827;
},
{
components = (
{
name = X;
transform = "{1, 0, 0, 1, -15, 0}";
}
);
layerId = "BBDB329E-CE83-4304-A6B1-53EA5ACC004E";
paths = (
{
closed = 1;
nodes = (
"769 -153 LINE",
"894 -153 LINE",
"956 76 LINE",
"830 76 LINE"
);
}
);
width = 1115;
}
);
unicode = 04B2;
},
{
glyphname = "Tetse-cy";
lastChange = "2019-09-25 15:05:21 +0000";
layers = (
{
layerId = "BA196CD0-EE58-4274-B8DF-4393D3617A29";
paths = (
{
closed = 1;
nodes = (
"174 623 LINE",
"658 623 LINE",
"678 700 LINE",
"194 700 LINE"
);
},
{
closed = 1;
nodes = (
"214 0 LINE",
"321 0 LINE",
"492 639 LINE",
"385 639 LINE"
);
},
{
closed = 1;
nodes = (
"214 0 LINE",
"737 0 LINE",
"773 133 LINE",
"249 133 LINE"
);
},
{
closed = 1;
nodes = (
"667 133 LINE",
"752 133 LINE",
"901 688 LINE",
"815 688 LINE"
);
},
{
closed = 1;
nodes = (
"688 -172 LINE",
"793 -172 LINE",
"875 133 LINE",
"770 133 LINE"
);
}
);
width = 994;
},
{
layerId = "BBDB329E-CE83-4304-A6B1-53EA5ACC004E";
paths = (
{
closed = 1;
nodes = (
"19 596 LINE",
"558 596 LINE",
"593 727 LINE",
"54 727 LINE"
);
},
{
closed = 1;
nodes = (
"59 -27 LINE",
"221 -27 LINE",
"407 666 LINE",
"245 666 LINE"
);
},
{
closed = 1;
nodes = (
"59 -27 LINE",
"637 -27 LINE",
"687 160 LINE",
"110 160 LINE"
);
},
{
closed = 1;
nodes = (
"512 106 LINE",
"653 106 LINE",
"816 715 LINE",
"675 715 LINE"
);
},
{
closed = 1;
nodes = (
"533 -199 LINE",
"693 -199 LINE",
"789 160 LINE",
"630 160 LINE"
);
}
);
width = 606;
}
);
unicode = 04B4;
},
{
glyphname = "Chedescender-cy";
lastChange = "2019-09-05 22:37:17 +0000";
layers = (
{
components = (
{
name = "Shha-cy";
transform = "{-1, 0, 0, -1, 870, 700}";
}
);
layerId = "BA196CD0-EE58-4274-B8DF-4393D3617A29";
paths = (
{
closed = 1;
nodes = (
"526 -220 LINE",
"621 -220 LINE",
"677 -10 LINE",
"582 -10 LINE"
);
}
);
width = 761;
},
{
components = (
{
name = "Shha-cy";
transform = "{-1, 0, 0, -1, 832, 700}";
}
);
layerId = "BBDB329E-CE83-4304-A6B1-53EA5ACC004E";
paths = (
{
closed = 1;
nodes = (
"453 -247 LINE",
"602 -247 LINE",
"673 17 LINE",
"524 17 LINE"
);
}
);
width = 683;
}
);
unicode = 04B6;
},
{
glyphname = "Cheverticalstroke-cy";
lastChange = "2019-09-05 22:37:17 +0000";
layers = (
{
components = (
{
name = "Che-cy";
}
);
layerId = "BA196CD0-EE58-4274-B8DF-4393D3617A29";
paths = (
{
closed = 1;
nodes = (
"284 85 LINE",
"364 85 LINE",
"452 411 LINE",
"372 411 LINE"
);
}
);
width = 670;
},
{
components = (
{
name = "Che-cy";
}
);
layerId = "BBDB329E-CE83-4304-A6B1-53EA5ACC004E";
paths = (
{
closed = 1;
nodes = (
"250 58 LINE",
"384 58 LINE",
"486 438 LINE",
"352 438 LINE"
);
}
);
width = 670;
}
);
unicode = 04B8;
},
{
glyphname = "Shha-cy";
lastChange = "2019-09-05 22:37:17 +0000";
layers = (
{
anchors = (
{
name = bottom;
position = "{341, 0}";
},
{
name = bottom_hook;
position = "{523, 0}";
},
{
name = center;
position = "{378, 273}";
},
{
name = top;
position = "{452, 547}";
},
{
name = top_hook;
position = "{312, 482}";
}
);
layerId = "BA196CD0-EE58-4274-B8DF-4393D3617A29";
paths = (
{
closed = 1;
nodes = (
"680 434 OFFCURVE",
"628 460 OFFCURVE",
"511 460 CURVE SMOOTH",
"435 460 OFFCURVE",
"387 451 OFFCURVE",
"323 434 CURVE",
"399 800 LINE",
"308 800 LINE",
"81 0 LINE",
"205 0 LINE",
"252 334 OFFCURVE",
"311 388 OFFCURVE",
"472 388 CURVE SMOOTH",
"629 388 OFFCURVE",
"579 290 OFFCURVE",
"478 0 CURVE",
"602 0 LINE",
"646 242 LINE SMOOTH"
);
}
);
width = 683;
},
{
anchors = (
{
name = bottom;
position = "{341, 0}";
},
{
name = bottom_hook;
position = "{523, 0}";
},
{
name = center;
position = "{378, 273}";
},
{
name = top;
position = "{452, 547}";
},
{
name = top_hook;
position = "{312, 482}";
}
);
layerId = "BBDB329E-CE83-4304-A6B1-53EA5ACC004E";
paths = (
{
closed = 1;
nodes = (
"707 429 OFFCURVE",
"669 487 OFFCURVE",
"518 487 CURVE SMOOTH",
"455 487 OFFCURVE",
"409 481 OFFCURVE",
"358 469 CURVE",
"432 827 LINE",
"288 827 LINE",
"46 -27 LINE",
"229 -27 LINE",
"273 302 OFFCURVE",
"310 361 OFFCURVE",
"464 361 CURVE SMOOTH",
"592 361 OFFCURVE",
"550 290 OFFCURVE",
"441 -27 CURVE",
"624 -27 LINE",
"673 244 LINE SMOOTH"
);
}
);
width = 683;
}
);
unicode = 04BA;
},
{
glyphname = "Shhadescender-cy";
lastChange = "2019-09-05 22:37:17 +0000";
layers = (
{
components = (
{
name = "Shha-cy";
}
);
layerId = "BA196CD0-EE58-4274-B8DF-4393D3617A29";
paths = (
{
closed = 1;
nodes = (
"553 -75 LINE",
"618 -75 LINE",
"661 84 LINE",
"595 84 LINE"
);
}
);
width = 719;
},
{
components = (
{
name = "Shha-cy";
transform = "{1, 0, 0, 1, -18, 0}";
}
);
layerId = "BBDB329E-CE83-4304-A6B1-53EA5ACC004E";
paths = (
{
closed = 1;
nodes = (
"500 -102 LINE",
"620 -102 LINE",
"677 111 LINE",
"557 111 LINE"
);
}
);
width = 683;
}
);
unicode = 0526;
},
{
glyphname = "Chedescenderabkhasian-cy";
lastChange = "2019-09-25 15:05:27 +0000";
layers = (
{
components = (
{
name = "Cheabkhasian-cy";
transform = "{1, 0, 0, 1, 44, 1}";
}
);
layerId = "BA196CD0-EE58-4274-B8DF-4393D3617A29";
paths = (
{
closed = 1;
nodes = (
"385 -153 LINE",
"457 -153 LINE",
"496 -7 LINE",
"424 -7 LINE"
);
}
);
width = 880;
},
{
components = (
{
name = "Cheabkhasian-cy";
transform = "{1, 0, 0, 1, 53, 0}";
}
);
layerId = "BBDB329E-CE83-4304-A6B1-53EA5ACC004E";
paths = (
{
closed = 1;
nodes = (
"360 -181 LINE",
"486 -181 LINE",
"539 19 LINE",
"413 19 LINE"
);
}
);
width = 905;
}
);
unicode = 04BE;
},
